<svg width="145" height="145" viewBox="0 0 145 145" fill="none" xmlns="http://www.w3.org/2000/svg">
<path d="M113.27 64.1228C113.27 58.7448 117.339 54.3835 122.361 54.3835H122.565C127.577 54.3835 131.644 58.7278 131.655 64.0945C131.698 81.6616 131.67 83.3863 131.647 109.625C131.633 124.354 120.48 136.289 106.728 136.289H77.2011C68.1669 136.289 59.8379 131.047 55.4369 122.593L29.1104 72.0157L31.8603 69.7359C37.5555 64.5023 46.1195 65.1452 51.0756 71.1774L58.4417 80.1465L58.487 18.445C58.4898 13.067 62.5595 8.7113 67.5778 8.7113H67.5807C72.6019 8.7113 76.6715 13.0726 76.6715 18.4507V55.7117C76.8357 50.4894 80.8431 46.3094 85.7595 46.3094H85.9719C90.9931 46.3094 95.0655 50.6707 95.0655 56.0487V59.1838C95.0655 53.8029 99.1352 49.4444 104.156 49.4444H104.179C109.2 49.4444 113.27 53.8029 113.27 59.1838V64.1228Z" fill="#F7CAA5"/>
<path d="M122.565 52.1094H122.361C119.571 52.12 116.89 53.1935 114.863 55.1113C113.283 50.4874 109.086 47.1751 104.156 47.1751C102.645 47.1945 101.155 47.5225 99.7751 48.139C98.3956 48.7554 97.1567 49.6473 96.1343 50.7599C94.2689 46.8225 90.4153 44.1797 85.9719 44.1797H85.7595C83.1945 44.1797 80.7128 44.9287 79.0136 46.4291V18.4507C79.0136 11.8311 73.8808 6.44568 67.616 6.44568C61.3573 6.44568 56.2443 11.828 56.2403 18.4433L56.1905 73.8239L52.8309 69.739C51.4935 68.0743 49.8278 66.7027 47.9373 65.7097C46.0469 64.7168 43.9722 64.1237 41.8426 63.9674C39.7547 63.8238 37.6596 64.11 35.6868 64.8084C33.714 65.5068 31.9054 66.6024 30.3729 68.0276L27.6657 70.2715C27.2668 70.602 26.9933 71.0592 26.8906 71.567C26.788 72.0747 26.8624 72.6023 27.1016 73.0619L53.4281 123.605C58.2171 132.805 67.3263 138.486 77.2011 138.486H106.728C121.702 138.486 133.897 125.544 133.912 109.593C133.919 102.028 133.926 96.5181 133.931 92.0628C133.946 81.1122 133.951 76.5838 133.921 64.0781C133.907 57.4758 128.813 52.1094 122.565 52.1094ZM129.4 92.073C129.395 96.53 129.388 102.024 129.381 109.589C129.367 123.043 119.206 133.955 106.728 133.955H77.2011C69.0224 133.955 61.453 129.208 57.4468 121.513L31.9647 72.5753L33.306 71.4708C33.336 71.4462 33.3649 71.4252 33.3932 71.3992C34.4756 70.3812 35.756 69.5971 37.1547 69.0956C38.5533 68.5942 40.0403 68.3861 41.5228 68.4844C43.037 68.6003 44.5112 69.0267 45.8534 69.7371C47.1956 70.4475 48.3772 71.4266 49.3245 72.6135L56.6909 81.5831C56.9872 81.9439 57.3877 82.2043 57.8376 82.3287C58.2875 82.4532 58.7649 82.4357 59.2045 82.2785C59.6441 82.1213 60.0243 81.8322 60.2933 81.4507C60.5623 81.0691 60.7069 80.6138 60.7073 80.147L60.7526 18.4453C60.7546 14.3267 63.8548 10.9761 67.6189 10.9761C71.3829 10.9761 74.4823 14.3301 74.4823 18.4507V55.699C74.4823 55.8142 74.4764 55.9312 74.4764 56.0459C74.4764 56.0847 74.4823 56.1226 74.4823 56.1609V72.1205C74.4823 72.7214 74.721 73.2976 75.1459 73.7225C75.5708 74.1474 76.147 74.3861 76.7479 74.3861C77.3488 74.3861 77.9251 74.1474 78.35 73.7225C78.7749 73.2976 79.0136 72.7214 79.0136 72.1205V55.7627C79.0136 51.7307 82.0665 48.7109 85.7595 48.7109H85.9719C89.7368 48.7109 92.8905 51.9275 92.8905 56.0487V70.6025C92.8905 71.2034 93.1292 71.7797 93.5541 72.2046C93.979 72.6294 94.5553 72.8681 95.1561 72.8681C95.757 72.8681 96.3333 72.6294 96.7582 72.2046C97.1831 71.7797 97.4218 71.2034 97.4218 70.6025V59.1838C97.4218 55.0626 100.444 51.71 104.23 51.71C107.994 51.71 111.016 55.0626 111.016 59.1838V69.9568C111.016 70.5577 111.254 71.134 111.679 71.5589C112.104 71.9837 112.68 72.2224 113.281 72.2224C113.882 72.2224 114.458 71.9837 114.883 71.5589C115.308 71.134 115.547 70.5577 115.547 69.9568V64.1228C115.547 60.0017 118.597 56.6406 122.361 56.6406H122.565C126.319 56.6406 129.381 59.9869 129.39 64.0956C129.42 76.5937 129.414 81.128 129.4 92.073Z" fill="black"/>
<path d="M86.9433 19.5966H116.308L111.042 24.8622C110.617 25.2871 110.378 25.8634 110.378 26.4643C110.378 27.0652 110.617 27.6415 111.042 28.0664C111.467 28.4913 112.043 28.73 112.644 28.73C113.245 28.73 113.821 28.4913 114.246 28.0664L123.345 18.9671C123.556 18.7567 123.723 18.5069 123.837 18.232C123.95 17.9572 124.009 17.6625 124.009 17.365C124.009 17.0675 123.95 16.7728 123.837 16.498C123.723 16.2231 123.556 15.9733 123.345 15.7629L114.246 6.6636C114.036 6.45321 113.786 6.28633 113.511 6.17246C113.236 6.0586 112.942 6 112.644 6C112.346 6 112.052 6.0586 111.777 6.17246C111.502 6.28633 111.252 6.45321 111.042 6.6636C110.832 6.87399 110.665 7.12376 110.551 7.39864C110.437 7.67353 110.378 7.96815 110.378 8.26568C110.378 8.56322 110.437 8.85784 110.551 9.13272C110.665 9.40761 110.832 9.65738 111.042 9.86776L116.24 15.0654H86.9433C86.3425 15.0654 85.7662 15.3041 85.3413 15.729C84.9164 16.1539 84.6777 16.7301 84.6777 17.331C84.6777 17.9319 84.9164 18.5082 85.3413 18.9331C85.7662 19.3579 86.3425 19.5966 86.9433 19.5966ZM18.7574 19.5966H47.8613C48.4622 19.5966 49.0385 19.3579 49.4634 18.9331C49.8882 18.5082 50.1269 17.9319 50.1269 17.331C50.1269 16.7301 49.8882 16.1539 49.4634 15.729C49.0385 15.3041 48.4622 15.0654 47.8613 15.0654H18.8256L24.0233 9.86776C24.4482 9.44287 24.6869 8.86658 24.6869 8.26568C24.6869 7.66479 24.4482 7.0885 24.0233 6.6636C23.5984 6.2387 23.0221 6 22.4212 6C21.8203 6 21.244 6.2387 20.8191 6.6636L11.7198 15.7629C11.5094 15.9733 11.3425 16.2231 11.2286 16.498C11.1148 16.7728 11.0562 17.0675 11.0562 17.365C11.0562 17.6625 11.1148 17.9572 11.2286 18.232C11.3425 18.5069 11.5094 18.7567 11.7198 18.9671L20.8191 28.0664C21.244 28.4913 21.8203 28.73 22.4212 28.73C23.0221 28.73 23.5984 28.4913 24.0233 28.0664C24.4482 27.6415 24.6869 27.0652 24.6869 26.4643C24.6869 25.8634 24.4482 25.2871 24.0233 24.8622L18.7574 19.5966Z" fill="white"/>
</svg>
