<svg width="238" height="80" viewBox="0 0 238 80" fill="none" xmlns="http://www.w3.org/2000/svg">
<g clip-path="url(#clip0_107_2275)">
<path d="M218.708 0.331069H18.9342C18.206 0.331069 17.4865 0.331069 16.7603 0.335042C16.1523 0.339015 15.5492 0.350557 14.9354 0.360271C13.6019 0.375968 12.2716 0.493321 10.956 0.711311C9.64222 0.934046 8.3696 1.35397 7.18118 1.95687C5.99421 2.56487 4.90964 3.3549 3.96682 4.29831C3.01905 5.23907 2.22902 6.32645 1.62709 7.51866C1.02349 8.70849 0.604963 9.9835 0.385945 11.2997C0.164845 12.6142 0.0458693 13.9438 0.0300852 15.2767C0.0116568 15.8858 0.00971068 16.4969 0 17.106V63.0232C0.00971068 63.64 0.0116568 64.2376 0.0300852 64.8546C0.0458742 66.1874 0.16485 67.517 0.385945 68.8315C0.604358 70.1484 1.02291 71.4241 1.62709 72.6144C2.22874 73.8027 3.01889 74.8857 3.96682 75.8213C4.90607 76.7689 5.99134 77.5594 7.18118 78.1628C8.36959 78.7673 9.64207 79.1897 10.956 79.4159C12.2718 79.6321 13.602 79.7495 14.9354 79.7671C15.5492 79.7806 16.1523 79.7884 16.7603 79.7884C17.4865 79.7923 18.206 79.7923 18.9342 79.7923H218.708C219.422 79.7923 220.147 79.7923 220.861 79.7884C221.466 79.7884 222.087 79.7806 222.692 79.7671C224.023 79.7505 225.35 79.6331 226.663 79.4159C227.982 79.1881 229.259 78.7658 230.453 78.1628C231.641 77.5591 232.726 76.7685 233.664 75.8213C234.61 74.8821 235.402 73.7999 236.011 72.6144C236.61 71.4233 237.025 70.1476 237.24 68.8315C237.462 67.5168 237.585 66.1875 237.609 64.8546C237.616 64.2376 237.616 63.64 237.616 63.0232C237.632 62.3015 237.632 61.5838 237.632 60.8504V19.2749C237.632 18.5474 237.632 17.8257 237.616 17.106C237.616 16.4969 237.616 15.8858 237.609 15.2766C237.585 13.9436 237.462 12.6143 237.24 11.2996C237.024 9.98419 236.61 8.70927 236.011 7.51858C234.785 5.12893 232.841 3.18378 230.453 1.95669C229.259 1.35526 227.981 0.935452 226.663 0.711132C225.35 0.492182 224.023 0.374788 222.692 0.359993C222.087 0.350298 221.466 0.338657 220.861 0.334784C220.147 0.330811 219.422 0.331069 218.708 0.331069Z" fill="#A6A6A6"/>
<path d="M16.7702 78.0539C16.1652 78.0539 15.5747 78.0461 14.9744 78.0326C13.7309 78.0164 12.4902 77.9081 11.2626 77.7086C10.118 77.5114 9.00914 77.1446 7.97265 76.6202C6.94567 76.1002 6.00897 75.4183 5.19846 74.6007C4.37621 73.7927 3.69165 72.8556 3.1719 71.8265C2.64643 70.7907 2.28277 69.6804 2.0936 68.5344C1.88931 67.303 1.77878 66.0578 1.76296 64.8097C1.75037 64.3907 1.73389 62.9958 1.73389 62.9958V17.1058C1.73389 17.1058 1.75144 15.7323 1.76306 15.3287C1.7782 14.0825 1.88809 12.8393 2.09177 11.6098C2.2813 10.4606 2.64524 9.34718 3.17099 8.30799C3.68882 7.27959 4.36958 6.34178 5.18688 5.53092C6.00326 4.71235 6.94295 4.02696 7.97168 3.49975C9.00579 2.97706 10.1125 2.61281 11.2549 2.4192C12.4865 2.2177 13.7314 2.10875 14.9793 2.09329L16.7712 2.06903H220.852L222.665 2.09426C223.901 2.10896 225.135 2.21693 226.355 2.41725C227.509 2.61329 228.627 2.98009 229.673 3.50557C231.734 4.56806 233.411 6.24902 234.469 8.31284C234.986 9.34486 235.345 10.4492 235.532 11.5885C235.738 12.8281 235.853 14.0811 235.877 15.3375C235.883 15.9001 235.883 16.5044 235.883 17.1058C235.899 17.8507 235.899 18.5598 235.899 19.2746V60.8501C235.899 61.5718 235.899 62.276 235.883 62.986C235.883 63.6321 235.883 64.2238 235.875 64.8329C235.852 66.0669 235.738 67.2975 235.536 68.5149C235.35 69.6692 234.989 70.7882 234.463 71.8325C233.94 72.8504 233.259 73.7794 232.447 74.5852C231.635 75.4072 230.697 76.0931 229.668 76.6164C228.625 77.1448 227.508 77.513 226.355 77.7086C225.128 77.9092 223.887 78.0175 222.643 78.0326C222.062 78.0461 221.453 78.0539 220.861 78.0539L218.709 78.0578L16.7702 78.0539Z" fill="black"/>
<path d="M49.1859 40.6587C49.2072 39.0007 49.6475 37.3749 50.4657 35.9328C51.2839 34.4907 52.4535 33.279 53.8656 32.4105C52.9685 31.1289 51.7851 30.0742 50.4093 29.3301C49.0334 28.5861 47.5031 28.1732 45.9399 28.1242C42.6052 27.7741 39.3724 30.1204 37.6731 30.1204C35.9409 30.1204 33.3246 28.159 30.5072 28.217C28.6849 28.2759 26.9089 28.806 25.3522 29.7557C23.7956 30.7054 22.5114 32.0422 21.6248 33.636C17.7842 40.2877 20.6489 50.0636 24.3279 55.4403C26.1686 58.0732 28.3198 61.0141 31.1346 60.9098C33.889 60.7956 34.9178 59.1528 38.2426 59.1528C41.5366 59.1528 42.5018 60.9098 45.3737 60.8435C48.3294 60.7955 50.1916 58.199 51.9677 55.5412C53.2902 53.6652 54.3079 51.5918 54.983 49.3978C53.2658 48.6713 51.8005 47.4552 50.7696 45.9011C49.7387 44.3471 49.1879 42.5238 49.1859 40.6587Z" fill="white"/>
<path d="M43.7611 24.5882C45.3726 22.6529 46.1666 20.1654 45.9743 17.654C43.5122 17.9127 41.2379 19.0898 39.6046 20.9509C38.806 21.86 38.1944 22.9177 37.8047 24.0635C37.415 25.2093 37.2548 26.4206 37.3334 27.6284C38.5649 27.6411 39.7832 27.374 40.8966 26.8474C42.01 26.3208 42.9894 25.5484 43.7611 24.5882Z" fill="white"/>
<path d="M84.0041 54.2446H74.6044L72.3471 60.9123H68.3657L77.269 36.2436H81.4054L90.3087 60.9123H86.2595L84.0041 54.2446ZM75.5779 51.1678H83.0287L79.3557 40.3467H79.2529L75.5779 51.1678Z" fill="white"/>
<path d="M109.537 51.9206C109.537 57.5096 106.547 61.1005 102.034 61.1005C100.891 61.1603 99.754 60.8969 98.7536 60.3404C97.7531 59.7839 96.9296 58.9568 96.3772 57.9539H96.2918V66.8622H92.6013V42.9269H96.1735V45.9183H96.2414C96.8192 44.9201 97.6567 44.0973 98.6647 43.5374C99.6728 42.9775 100.814 42.7015 101.966 42.7387C106.529 42.7387 109.537 46.347 109.537 51.9206ZM105.744 51.9206C105.744 48.2793 103.863 45.8853 100.993 45.8853C98.1729 45.8853 96.2763 48.3297 96.2763 51.9206C96.2763 55.5444 98.1729 57.9714 100.993 57.9714C103.863 57.9714 105.744 55.5949 105.744 51.9206Z" fill="white"/>
<path d="M129.325 51.9206C129.325 57.5096 126.334 61.1005 121.822 61.1005C120.678 61.1603 119.542 60.8969 118.541 60.3404C117.541 59.7839 116.717 58.9568 116.165 57.9538H116.079V66.8622H112.389V42.9268H115.961V45.9183H116.029C116.607 44.9201 117.444 44.0973 118.452 43.5374C119.46 42.9775 120.601 42.7015 121.754 42.7387C126.317 42.7387 129.325 46.347 129.325 51.9206ZM125.531 51.9206C125.531 48.2792 123.65 45.8853 120.78 45.8853C117.961 45.8853 116.064 48.3297 116.064 51.9206C116.064 55.5444 117.961 57.9713 120.78 57.9713C123.65 57.9713 125.531 55.5949 125.531 51.9206Z" fill="white"/>
<path d="M142.404 54.039C142.677 56.4853 145.053 58.0915 148.299 58.0915C151.41 58.0915 153.648 56.4852 153.648 54.2794C153.648 52.3647 152.298 51.2182 149.102 50.4325L145.906 49.6623C141.378 48.5681 139.276 46.4497 139.276 43.0121C139.276 38.7558 142.984 35.8322 148.249 35.8322C153.46 35.8322 157.032 38.7558 157.152 43.0121H153.427C153.204 40.5502 151.17 39.0642 148.197 39.0642C145.224 39.0642 143.189 40.5677 143.189 42.756C143.189 44.5 144.489 45.5263 147.667 46.3119L150.384 46.9792C155.444 48.1762 157.546 50.2093 157.546 53.8176C157.546 58.4328 153.871 61.3234 148.026 61.3234C142.557 61.3234 138.865 58.5007 138.626 54.0388L142.404 54.039Z" fill="white"/>
<path d="M165.511 38.6705V42.9268H168.93V45.8503H165.511V55.7655C165.511 57.3058 166.195 58.0236 167.698 58.0236C168.104 58.0166 168.509 57.988 168.912 57.9382V60.8443C168.237 60.9706 167.55 61.0278 166.862 61.015C163.222 61.015 161.803 59.6473 161.803 56.1593V45.8503H159.189V42.9268H161.803V38.6705H165.511Z" fill="white"/>
<path d="M170.908 51.9206C170.908 46.2617 174.24 42.7057 179.435 42.7057C184.648 42.7057 187.964 46.2616 187.964 51.9206C187.964 57.595 184.666 61.1354 179.435 61.1354C174.207 61.1354 170.908 57.595 170.908 51.9206ZM184.204 51.9206C184.204 48.0387 182.426 45.7476 179.435 45.7476C176.445 45.7476 174.669 48.0561 174.669 51.9206C174.669 55.8179 176.445 58.0916 179.435 58.0916C182.426 58.0916 184.204 55.8179 184.204 51.9206Z" fill="white"/>
<path d="M191.008 42.9269H194.528V45.9881H194.613C194.851 45.032 195.411 44.1871 196.199 43.5953C196.986 43.0036 197.953 42.7011 198.938 42.7387C199.363 42.7372 199.787 42.7834 200.202 42.8764V46.3296C199.665 46.1654 199.105 46.0901 198.544 46.1065C198.008 46.0847 197.473 46.1793 196.977 46.3837C196.481 46.588 196.035 46.8974 195.67 47.2905C195.304 47.6836 195.028 48.1512 194.861 48.6611C194.693 49.171 194.638 49.7111 194.698 50.2444V60.9123H191.008L191.008 42.9269Z" fill="white"/>
<path d="M217.218 55.6298C216.722 58.8947 213.543 61.1354 209.476 61.1354C204.246 61.1354 201 57.6299 201 52.0059C201 46.3645 204.264 42.7057 209.321 42.7057C214.295 42.7057 217.424 46.1239 217.424 51.5772V52.842H204.725V53.0651C204.667 53.727 204.749 54.3939 204.968 55.0213C205.187 55.6487 205.537 56.2224 205.994 56.7042C206.452 57.186 207.006 57.565 207.621 57.8159C208.236 58.0668 208.898 58.1839 209.562 58.1595C210.434 58.2412 211.309 58.0392 212.057 57.5834C212.805 57.1276 213.386 56.4424 213.714 55.6298L217.218 55.6298ZM204.743 50.2619H213.731C213.764 49.6667 213.674 49.0711 213.466 48.5125C213.258 47.9539 212.937 47.4443 212.523 47.0156C212.109 46.587 211.611 46.2486 211.06 46.0217C210.509 45.7948 209.917 45.6843 209.321 45.6971C208.72 45.6935 208.125 45.809 207.568 46.037C207.012 46.2649 206.507 46.6008 206.081 47.0252C205.655 47.4496 205.318 47.9541 205.088 48.5096C204.859 49.0652 204.741 49.6607 204.743 50.2619Z" fill="white"/>
<path d="M75.1171 17.6751C75.8909 17.6195 76.6672 17.7365 77.3903 18.0174C78.1134 18.2984 78.7651 18.7364 79.2984 19.2998C79.8318 19.8632 80.2335 20.5381 80.4746 21.2756C80.7157 22.0131 80.7901 22.795 80.6926 23.5648C80.6926 27.3516 78.6467 29.5284 75.1171 29.5284H70.8372V17.6751H75.1171ZM72.6775 27.8521H74.9116C75.4644 27.8851 76.0177 27.7945 76.5311 27.5866C77.0445 27.3788 77.5052 27.0591 77.8795 26.6507C78.2538 26.2424 78.5324 25.7556 78.6949 25.226C78.8575 24.6963 78.9 24.1371 78.8192 23.589C78.8941 23.043 78.8473 22.4872 78.6823 21.9615C78.5172 21.4357 78.238 20.953 77.8645 20.5479C77.491 20.1427 77.0326 19.8253 76.5221 19.6182C76.0116 19.4111 75.4616 19.3196 74.9116 19.3501H72.6775V27.8521Z" fill="white"/>
<path d="M82.7709 25.0518C82.7147 24.464 82.7819 23.8708 82.9683 23.3105C83.1546 22.7502 83.456 22.235 83.853 21.798C84.2501 21.361 84.7341 21.0118 85.2739 20.7729C85.8138 20.5339 86.3976 20.4105 86.9879 20.4105C87.5782 20.4105 88.162 20.5339 88.7019 20.7729C89.2417 21.0118 89.7257 21.361 90.1227 21.798C90.5198 22.235 90.8212 22.7502 91.0075 23.3105C91.1939 23.8708 91.2611 24.464 91.2049 25.0518C91.2621 25.6403 91.1957 26.2342 91.0099 26.7954C90.824 27.3567 90.5228 27.8728 90.1257 28.3107C89.7285 28.7485 89.2442 29.0984 88.7038 29.3379C88.1634 29.5773 87.5789 29.701 86.9879 29.701C86.3969 29.701 85.8124 29.5773 85.272 29.3379C84.7316 29.0984 84.2473 28.7485 83.8501 28.3107C83.453 27.8728 83.1518 27.3567 82.9659 26.7954C82.7801 26.2342 82.7136 25.6403 82.7709 25.0518ZM89.3897 25.0518C89.3897 23.1128 88.5189 21.9789 86.9908 21.9789C85.4568 21.9789 84.5939 23.1128 84.5939 25.0518C84.5939 27.0064 85.4569 28.1315 86.9908 28.1315C88.519 28.1315 89.3897 26.9986 89.3897 25.0518Z" fill="white"/>
<path d="M102.416 29.5283H100.585L98.7371 22.9401H98.5975L96.7571 29.5283H94.9438L92.479 20.5831H94.269L95.8708 27.4088H96.0027L97.8411 20.5831H99.5341L101.373 27.4088H101.512L103.106 20.5831H104.871L102.416 29.5283Z" fill="white"/>
<path d="M106.945 20.583H108.643V22.004H108.775C108.999 21.4936 109.376 21.0658 109.855 20.7801C110.333 20.4944 110.888 20.3651 111.444 20.4103C111.879 20.3776 112.316 20.4432 112.722 20.6023C113.128 20.7614 113.494 21.0099 113.791 21.3295C114.088 21.649 114.31 22.0313 114.439 22.4481C114.569 22.8649 114.603 23.3056 114.539 23.7373V29.5281H112.774V24.1807C112.774 22.7431 112.15 22.0282 110.844 22.0282C110.549 22.0145 110.254 22.0648 109.98 22.1757C109.706 22.2866 109.459 22.4555 109.256 22.6708C109.053 22.8861 108.899 23.1427 108.805 23.4231C108.711 23.7035 108.678 24.0009 108.709 24.2951V29.5282H106.945L106.945 20.583Z" fill="white"/>
<path d="M117.35 17.0911H119.115V29.5282H117.35V17.0911Z" fill="white"/>
<path d="M121.57 25.0518C121.514 24.4639 121.581 23.8708 121.767 23.3104C121.954 22.75 122.255 22.2348 122.652 21.7978C123.049 21.3608 123.533 21.0116 124.073 20.7727C124.613 20.5338 125.197 20.4103 125.787 20.4103C126.378 20.4103 126.961 20.5338 127.501 20.7727C128.041 21.0116 128.525 21.3608 128.922 21.7978C129.319 22.2348 129.621 22.75 129.807 23.3104C129.994 23.8708 130.061 24.4639 130.005 25.0518C130.062 25.6403 129.995 26.2342 129.809 26.7955C129.624 27.3567 129.322 27.8728 128.925 28.3107C128.528 28.7485 128.044 29.0984 127.503 29.3378C126.963 29.5773 126.378 29.701 125.787 29.701C125.196 29.701 124.612 29.5773 124.071 29.3378C123.531 29.0984 123.046 28.7485 122.649 28.3107C122.252 27.8728 121.951 27.3567 121.765 26.7955C121.579 26.2342 121.512 25.6403 121.57 25.0518ZM128.188 25.0518C128.188 23.1128 127.318 21.9789 125.79 21.9789C124.256 21.9789 123.393 23.1128 123.393 25.0518C123.393 27.0063 124.256 28.1315 125.79 28.1315C127.318 28.1315 128.188 26.9986 128.188 25.0518Z" fill="white"/>
<path d="M131.862 26.9986C131.862 25.3884 133.06 24.4601 135.188 24.3282L137.61 24.1885V23.4164C137.61 22.4717 136.985 21.9382 135.779 21.9382C134.794 21.9382 134.111 22.3 133.916 22.9324H132.207C132.387 21.396 133.832 20.4105 135.861 20.4105C138.102 20.4105 139.367 21.5269 139.367 23.4164V29.5283H137.668V28.2712H137.528C137.245 28.7222 136.847 29.0898 136.375 29.3365C135.903 29.5833 135.374 29.7003 134.842 29.6757C134.467 29.7148 134.088 29.6747 133.729 29.5581C133.37 29.4415 133.039 29.2509 132.758 28.9987C132.478 28.7465 132.253 28.4382 132.098 28.0937C131.944 27.7492 131.863 27.3761 131.862 26.9986ZM137.61 26.2342V25.4864L135.426 25.6261C134.195 25.7085 133.636 26.1275 133.636 26.9161C133.636 27.7212 134.334 28.1897 135.294 28.1897C135.576 28.2182 135.86 28.1898 136.13 28.1062C136.4 28.0226 136.65 27.8855 136.867 27.703C137.083 27.5206 137.26 27.2965 137.387 27.0442C137.515 26.7919 137.591 26.5164 137.61 26.2342Z" fill="white"/>
<path d="M141.686 25.0518C141.686 22.2252 143.139 20.4346 145.398 20.4346C145.957 20.4089 146.512 20.5428 146.997 20.8207C147.483 21.0986 147.879 21.509 148.14 22.004H148.272V17.0911H150.037V29.5282H148.346V28.1149H148.206C147.925 28.6066 147.515 29.0119 147.02 29.287C146.525 29.5621 145.964 29.6965 145.398 29.6756C143.123 29.6757 141.686 27.8851 141.686 25.0518ZM143.509 25.0518C143.509 26.9491 144.403 28.0907 145.898 28.0907C147.386 28.0907 148.305 26.9326 148.305 25.0595C148.305 23.1952 147.376 22.0206 145.898 22.0206C144.413 22.0206 143.509 23.17 143.509 25.0518Z" fill="white"/>
<path d="M157.338 25.0518C157.281 24.464 157.349 23.8708 157.535 23.3105C157.721 22.7502 158.023 22.235 158.42 21.798C158.817 21.361 159.301 21.0118 159.841 20.7729C160.38 20.5339 160.964 20.4105 161.555 20.4105C162.145 20.4105 162.729 20.5339 163.269 20.7729C163.808 21.0118 164.292 21.361 164.689 21.798C165.086 22.235 165.388 22.7502 165.574 23.3105C165.76 23.8708 165.828 24.464 165.772 25.0518C165.829 25.6403 165.762 26.2342 165.577 26.7954C165.391 27.3567 165.089 27.8728 164.692 28.3107C164.295 28.7485 163.811 29.0984 163.27 29.3379C162.73 29.5773 162.146 29.701 161.555 29.701C160.964 29.701 160.379 29.5773 159.839 29.3379C159.298 29.0984 158.814 28.7485 158.417 28.3107C158.02 27.8728 157.718 27.3567 157.533 26.7954C157.347 26.2342 157.28 25.6403 157.338 25.0518ZM163.956 25.0518C163.956 23.1128 163.086 21.9789 161.557 21.9789C160.023 21.9789 159.161 23.1128 159.161 25.0518C159.161 27.0064 160.024 28.1315 161.557 28.1315C163.086 28.1315 163.956 26.9986 163.956 25.0518Z" fill="white"/>
<path d="M168.139 20.583H169.838V22.004H169.97C170.194 21.4936 170.571 21.0658 171.049 20.7801C171.528 20.4944 172.083 20.3651 172.639 20.4103C173.074 20.3776 173.511 20.4432 173.917 20.6023C174.323 20.7614 174.688 21.0099 174.986 21.3295C175.283 21.649 175.504 22.0313 175.634 22.4481C175.763 22.8649 175.797 23.3056 175.734 23.7373V29.5281H173.969V24.1807C173.969 22.7431 173.344 22.0282 172.039 22.0282C171.744 22.0145 171.449 22.0648 171.175 22.1757C170.901 22.2866 170.654 22.4555 170.451 22.6708C170.248 22.8861 170.094 23.1427 170 23.4231C169.906 23.7035 169.873 24.0009 169.904 24.2951V29.5282H168.139V20.583Z" fill="white"/>
<path d="M185.706 18.356V20.6238H187.643V22.1108H185.706V26.7105C185.706 27.6475 186.092 28.0578 186.97 28.0578C187.195 28.057 187.42 28.0434 187.643 28.017V29.4875C187.326 29.5442 187.005 29.5744 186.683 29.5777C184.721 29.5777 183.939 28.8871 183.939 27.1625V22.1107H182.52V20.6237H183.939V18.356H185.706Z" fill="white"/>
<path d="M190.053 17.0911H191.802V22.0205H191.942C192.177 21.5054 192.564 21.0751 193.052 20.7884C193.54 20.5016 194.105 20.3723 194.669 20.4181C195.101 20.3946 195.534 20.4669 195.936 20.6298C196.338 20.7928 196.698 21.0425 196.992 21.361C197.287 21.6795 197.507 22.059 197.637 22.4725C197.768 22.886 197.806 23.3232 197.748 23.7529V29.5282H195.982V24.1884C195.982 22.7597 195.316 22.036 194.07 22.036C193.766 22.0112 193.461 22.0529 193.176 22.1583C192.89 22.2637 192.631 22.4302 192.417 22.6462C192.202 22.8622 192.037 23.1225 191.934 23.4088C191.831 23.6951 191.791 24.0006 191.818 24.3039V29.5282H190.053L190.053 17.0911Z" fill="white"/>
<path d="M208.039 27.113C207.799 27.9305 207.28 28.6377 206.571 29.1108C205.863 29.5839 205.011 29.7927 204.164 29.7009C203.575 29.7164 202.99 29.6036 202.448 29.3701C201.907 29.1366 201.423 28.7881 201.03 28.3488C200.637 27.9095 200.345 27.3899 200.173 26.8261C200 26.2623 199.953 25.6678 200.033 25.0838C199.955 24.498 200.003 23.9021 200.175 23.3366C200.347 22.7711 200.638 22.2491 201.029 21.806C201.42 21.3628 201.901 21.0089 202.441 20.7681C202.981 20.5273 203.566 20.4053 204.156 20.4104C206.644 20.4104 208.145 22.1108 208.145 24.9198V25.5358H201.831V25.6347C201.804 25.963 201.845 26.2934 201.952 26.6048C202.06 26.9162 202.231 27.2017 202.455 27.4429C202.68 27.6842 202.952 27.876 203.254 28.0059C203.557 28.1358 203.883 28.201 204.213 28.1974C204.635 28.248 205.062 28.172 205.441 27.9789C205.82 27.7858 206.133 27.4844 206.34 27.1129L208.039 27.113ZM201.831 24.2302H206.348C206.37 23.9299 206.329 23.6284 206.228 23.3449C206.127 23.0614 205.967 22.8022 205.76 22.5839C205.553 22.3657 205.302 22.1933 205.024 22.0777C204.746 21.9621 204.448 21.906 204.147 21.9129C203.841 21.909 203.539 21.9664 203.256 22.0815C202.973 22.1966 202.716 22.3672 202.5 22.5831C202.285 22.7991 202.114 23.0561 201.999 23.3389C201.884 23.6218 201.827 23.9248 201.831 24.2302Z" fill="white"/>
<rect x="182.149" y="-14" width="91.3151" height="17.5857" transform="rotate(37.0794 182.149 -14)" fill="white" fill-opacity="0.8"/>
<path d="M199.776 13.6407L201.47 14.6606C201.172 15.2618 201.074 15.7942 201.179 16.2576C201.287 16.7237 201.588 17.1402 202.082 17.5069C202.605 17.8954 203.08 18.0777 203.506 18.0537C203.939 18.0288 204.266 17.8682 204.486 17.5718C204.627 17.3816 204.69 17.1784 204.674 16.9625C204.665 16.7456 204.558 16.4845 204.353 16.1793C204.212 15.9722 203.865 15.5331 203.313 14.8623C202.603 13.9998 202.188 13.2808 202.071 12.7054C201.906 11.8959 202.059 11.1728 202.532 10.5361C202.836 10.1263 203.235 9.8295 203.729 9.64572C204.23 9.46099 204.767 9.43696 205.341 9.57363C205.919 9.71302 206.517 10.0123 207.135 10.4714C208.145 11.2212 208.74 12.0062 208.92 12.8266C209.103 13.6497 208.933 14.4403 208.41 15.1984L206.733 14.0636C206.97 13.5985 207.04 13.1908 206.943 12.8403C206.852 12.4889 206.578 12.1434 206.12 11.8039C205.648 11.4534 205.207 11.276 204.795 11.2716C204.531 11.2683 204.322 11.371 204.167 11.5796C204.025 11.7698 203.985 11.9924 204.046 12.2473C204.123 12.5714 204.487 13.1202 205.139 13.8936C205.791 14.667 206.231 15.2943 206.458 15.7753C206.692 16.2554 206.786 16.7481 206.74 17.2533C206.7 17.7575 206.492 18.2639 206.114 18.7725C205.772 19.2336 205.323 19.5703 204.768 19.7826C204.213 19.9949 203.628 20.026 203.013 19.8759C202.401 19.7221 201.745 19.3857 201.047 18.8669C200.029 18.1116 199.422 17.2974 199.225 16.4243C199.03 15.5475 199.213 14.6197 199.776 13.6407ZM207.598 18.861C207.979 18.3488 208.473 17.9467 209.081 17.6548C209.69 17.3629 210.318 17.2619 210.966 17.3517C211.619 17.4442 212.23 17.7024 212.801 18.1262C213.683 18.7809 214.192 19.6047 214.329 20.5975C214.469 21.5867 214.214 22.5185 213.565 23.393C212.91 24.2749 212.081 24.7948 211.079 24.9528C210.082 25.1098 209.152 24.8678 208.289 24.2267C207.754 23.8301 207.334 23.3303 207.026 22.7275C206.723 22.1274 206.617 21.5013 206.71 20.8492C206.805 20.1933 207.101 19.5306 207.598 18.861ZM209.118 20.1169C208.689 20.6951 208.497 21.2397 208.543 21.7508C208.59 22.2619 208.814 22.6669 209.216 22.9657C209.619 23.2645 210.07 23.3608 210.569 23.2545C211.071 23.1509 211.54 22.8063 211.975 22.2209C212.398 21.6501 212.587 21.1091 212.541 20.598C212.498 20.0896 212.276 19.686 211.873 19.3872C211.471 19.0883 211.018 18.9907 210.516 19.0943C210.013 19.1979 209.547 19.5388 209.118 20.1169ZM214.47 23.9629C214.85 23.4506 215.345 23.0485 215.953 22.7566C216.561 22.4648 217.19 22.3637 217.838 22.4535C218.49 22.5461 219.102 22.8042 219.673 23.228C220.554 23.8828 221.064 24.7065 221.201 25.6994C221.341 26.6885 221.086 27.6204 220.437 28.4949C219.782 29.3767 218.953 29.8967 217.95 30.0546C216.954 30.2117 216.024 29.9697 215.16 29.3285C214.626 28.9319 214.205 28.4322 213.898 27.8294C213.594 27.2293 213.489 26.6032 213.581 25.951C213.677 25.2952 213.973 24.6325 214.47 23.9629ZM215.99 25.2188C215.56 25.7969 215.369 26.3416 215.415 26.8527C215.461 27.3638 215.686 27.7687 216.088 28.0676C216.491 28.3664 216.941 28.4627 217.44 28.3563C217.943 28.2527 218.412 27.9082 218.846 27.3227C219.27 26.7519 219.459 26.2109 219.413 25.6998C219.37 25.1914 219.147 24.7878 218.745 24.489C218.342 24.1902 217.89 24.0926 217.387 24.1962C216.885 24.2998 216.419 24.6407 215.99 25.2188ZM224.775 36.2628L223.233 35.1177L225.442 32.1429C225.909 31.5135 226.178 31.0829 226.248 30.8511C226.32 30.6156 226.32 30.3909 226.246 30.1771C226.175 29.9659 226.036 29.783 225.827 29.6281C225.56 29.4298 225.266 29.325 224.945 29.3138C224.625 29.3026 224.334 29.3879 224.074 29.5696C223.818 29.7541 223.448 30.172 222.965 30.8233L221.005 33.4633L219.462 32.3182L223.79 26.4893L225.223 27.5529L224.587 28.4091C225.585 28.1281 226.469 28.2742 227.241 28.8474C227.582 29.1001 227.847 29.3932 228.036 29.7268C228.228 30.0567 228.325 30.3698 228.326 30.666C228.331 30.9649 228.272 31.2555 228.147 31.5378C228.027 31.8227 227.799 32.1903 227.465 32.6403L224.775 36.2628ZM203.024 36.8227L205.655 32.4417L207.057 30.5536L208.725 31.7924L207.323 33.6805L203.896 37.4706L203.024 36.8227ZM201.148 38.6488L202.294 37.1065L203.836 38.2516L202.691 39.7939L201.148 38.6488Z" fill="#303030"/>
</g>
<defs>
<clipPath id="clip0_107_2275">
<rect width="238" height="80" fill="white"/>
</clipPath>
</defs>
</svg>
