<svg width="506" height="727" viewBox="0 0 506 727" fill="none" xmlns="http://www.w3.org/2000/svg">
<path fill-rule="evenodd" clip-rule="evenodd" d="M407.001 461.511C431.54 457.913 459.872 447.618 478.528 463.987C497.476 480.613 488.059 510.64 491.483 535.638C495.946 568.233 514.611 600.009 501.273 630.074C482.356 672.716 452.649 735.372 407.001 726.072C358.737 716.239 368.737 641.156 344.595 598.152C331.576 574.961 298.001 562.162 300.094 535.638C302.157 509.479 332.196 497.215 353.735 482.281C370.021 470.988 387.403 464.383 407.001 461.511Z" fill="#878585" fill-opacity="0.2"/>
<path fill-rule="evenodd" clip-rule="evenodd" d="M150.206 287.934C174.141 296.509 174.287 335 197.488 345.4C232.424 361.061 296.138 322.81 308.704 358.983C321.141 394.785 240.257 399.913 228.996 436.103C217.457 473.184 271.271 515.359 249.945 547.812C231.163 576.395 184.265 559.056 150.206 556.005C119.221 553.229 80.1065 556.791 62.6535 531.033C44.5387 504.298 80.6118 467.045 69.4062 436.756C57.2832 403.987 -0.0645137 396.618 5.44803e-05 361.678C0.0589782 329.792 41.043 313.653 69.6597 299.604C94.6241 287.348 124.025 278.555 150.206 287.934Z" fill="#878585" fill-opacity="0.2"/>
<path fill-rule="evenodd" clip-rule="evenodd" d="M237.023 0.0786212C257.914 -1.53342 271.808 22.0599 289.88 32.6828C306.521 42.4642 327.926 45.298 339.832 60.5093C351.728 75.7078 349.576 97.1359 354.865 115.71C360.44 135.291 377.214 153.848 372.013 173.532C366.779 193.341 342.043 200.406 328.443 215.71C315.641 230.116 311.215 252.578 294.034 261.28C276.857 269.979 256.266 261.605 237.023 262.008C217.383 262.419 195.523 274.106 178.853 263.692C161.743 253.002 164.699 226.237 153.2 209.639C142.633 194.386 122.766 187.28 114.429 170.697C105.445 152.825 95.8001 130.422 104.267 112.299C113.226 93.1205 141.234 92.7157 157.29 78.9482C169.877 68.1557 176.157 52.2103 187.947 40.5485C203.216 25.4452 215.631 1.72935 237.023 0.0786212Z" fill="#878585" fill-opacity="0.2"/>
</svg>
