<svg width="1440" height="1024" viewBox="0 0 1440 1024" fill="none" xmlns="http://www.w3.org/2000/svg">
<path fill-rule="evenodd" clip-rule="evenodd" d="M108.292 476.283C158.693 494.334 159.001 575.364 207.855 597.257C281.422 630.226 415.586 549.701 442.046 625.851C468.235 701.221 297.916 712.016 274.203 788.202C249.906 866.265 363.223 955.048 318.317 1023.37C278.766 1083.54 180.011 1047.04 108.292 1040.62C43.047 1034.77 -39.3176 1042.27 -76.0689 988.046C-114.214 931.764 -38.2536 853.34 -61.8495 789.577C-87.3772 720.592 -208.136 705.081 -208 631.525C-207.876 564.399 -121.575 530.425 -61.3158 500.849C-8.74741 475.047 53.1627 456.537 108.292 476.283Z" fill="#878585" fill-opacity="0.2"/>
<path fill-rule="evenodd" clip-rule="evenodd" d="M1259.94 587.841C1304.65 581.299 1356.27 562.574 1390.26 592.346C1424.78 622.584 1407.62 677.195 1413.86 722.66C1421.99 781.942 1456 839.734 1431.7 894.415C1397.23 971.97 1343.11 1085.93 1259.94 1069.01C1172.01 1051.13 1190.23 914.569 1146.25 836.357C1122.53 794.179 1061.36 770.9 1065.17 722.66C1068.93 675.083 1123.66 652.779 1162.9 625.616C1192.57 605.078 1224.24 593.066 1259.94 587.841Z" fill="#878585" fill-opacity="0.2"/>
<path fill-rule="evenodd" clip-rule="evenodd" d="M720.423 -177.803C772.859 -181.841 807.733 -122.739 853.096 -96.1281C894.865 -71.6253 948.593 -64.5266 978.477 -26.4216C1008.34 11.6515 1002.93 65.3297 1016.21 111.858C1030.2 160.909 1072.31 207.395 1059.25 256.705C1046.11 306.327 984.025 324.026 949.889 362.362C917.755 398.45 906.647 454.72 863.522 476.517C820.407 498.309 768.722 477.333 720.423 478.342C671.126 479.373 616.255 508.648 574.414 482.559C531.467 455.781 538.886 388.733 510.025 347.156C483.501 308.946 433.632 291.146 412.707 249.603C390.157 204.835 365.948 148.713 387.199 103.313C409.687 55.271 479.987 54.257 520.29 19.7688C551.884 -7.26701 567.647 -47.2108 597.239 -76.4241C635.564 -114.259 666.728 -173.668 720.423 -177.803Z" fill="#878585" fill-opacity="0.2"/>
</svg>
