<svg width="165" height="63" viewBox="0 0 165 63" fill="none" xmlns="http://www.w3.org/2000/svg">
<rect x="1" y="1" width="162.073" height="61" rx="9" fill="url(#paint0_linear_2140_67939)" fill-opacity="0.3"/>
<rect x="1" y="1" width="162.073" height="61" rx="9" stroke="url(#paint1_linear_2140_67939)" stroke-width="2"/>
<path d="M58.1682 21.7469L57.5691 23.7087H56.2656L58.4841 16.7832H60.097L62.3484 23.7087H60.9923L60.3669 21.7469H58.1682ZM60.1497 20.7923L59.6033 19.0873C59.4716 18.666 59.3597 18.192 59.2544 17.7904H59.2346C59.1293 18.192 59.0305 18.6726 58.9055 19.0873L58.3722 20.7923H60.1497Z" fill="white"/>
<path d="M64.2377 18.7056L65.0474 21.2467C65.1923 21.6877 65.291 22.0893 65.3898 22.4975H65.4227C65.5148 22.0893 65.6268 21.6943 65.765 21.2467L66.5681 18.7056H67.8914L65.9822 23.7088H64.738L62.875 18.7056H64.2443H64.2377Z" fill="white"/>
<path d="M72.927 22.5105C72.927 22.9647 72.9468 23.4058 73.006 23.7152H71.8672L71.775 23.1622H71.7421C71.4458 23.5506 70.9192 23.8271 70.2609 23.8271C69.2536 23.8271 68.6875 23.0964 68.6875 22.3393C68.6875 21.0885 69.8066 20.4368 71.6565 20.45V20.371C71.6565 20.0418 71.5248 19.4954 70.6361 19.4954C70.1424 19.4954 69.6289 19.6468 69.2931 19.8641L69.0496 19.0412C69.4182 18.8173 70.07 18.6001 70.8599 18.6001C72.4662 18.6001 72.927 19.6205 72.927 20.7199V22.5171V22.5105ZM71.696 21.2663C70.8007 21.2531 69.9515 21.444 69.9515 22.2011C69.9515 22.6948 70.2675 22.9186 70.669 22.9186C71.1825 22.9186 71.5446 22.5895 71.6631 22.2274C71.696 22.1352 71.696 22.0431 71.696 21.9509V21.2597V21.2663Z" fill="white"/>
<path d="M75.3423 17.9879C74.921 17.9879 74.6445 17.6785 74.6445 17.3099C74.6445 16.9215 74.9342 16.6187 75.3555 16.6187C75.7768 16.6187 76.0533 16.9149 76.0665 17.3099C76.0665 17.6785 75.79 17.9879 75.3555 17.9879H75.3423ZM74.7169 23.7087V18.7055H75.9809V23.7087H74.7169Z" fill="white"/>
<path d="M77.7969 16.4082H79.0608V23.7155H77.7969V16.4082Z" fill="white"/>
<path d="M84.7786 22.5105C84.7786 22.9647 84.7984 23.4058 84.8576 23.7152H83.7187L83.6266 23.1622H83.5936C83.2974 23.5506 82.7707 23.8271 82.1124 23.8271C81.1052 23.8271 80.5391 23.0964 80.5391 22.3393C80.5391 21.0885 81.6582 20.4368 83.5081 20.45V20.371C83.5081 20.0418 83.3764 19.4954 82.4943 19.4954C82.0005 19.4954 81.487 19.6468 81.1513 19.8641L80.9077 19.0412C81.2764 18.8173 81.9281 18.6001 82.7181 18.6001C84.3178 18.6001 84.7852 19.6205 84.7852 20.7199V22.5171L84.7786 22.5105ZM83.5476 21.2663C82.6522 21.2531 81.803 21.444 81.803 22.2011C81.803 22.6948 82.119 22.9186 82.5206 22.9186C83.0341 22.9186 83.3961 22.5895 83.5146 22.2274C83.5476 22.1352 83.5476 22.0431 83.5476 21.9509V21.2597V21.2663Z" fill="white"/>
<path d="M86.5603 16.4082H87.8242V19.3969H87.844C88.1534 18.9164 88.6998 18.5938 89.4503 18.5938C90.6747 18.5938 91.5437 19.6142 91.5371 21.1349C91.5371 22.9321 90.3982 23.8274 89.2659 23.8274C88.6208 23.8274 88.0415 23.5772 87.686 22.965H87.6662L87.607 23.7155H86.5273C86.5471 23.3732 86.5668 22.8202 86.5668 22.3199V16.4082H86.5603ZM87.8242 21.6484C87.8242 21.7537 87.8374 21.8525 87.8571 21.9446C87.9888 22.4581 88.4299 22.8268 88.9763 22.8268C89.7662 22.8268 90.2534 22.2014 90.2534 21.181C90.2534 20.2988 89.8321 19.5813 88.9894 19.5813C88.476 19.5813 88.002 19.9499 87.8703 20.5029C87.8506 20.5951 87.8308 20.707 87.8308 20.8321V21.6418L87.8242 21.6484Z" fill="white"/>
<path d="M93.0234 16.4082H94.2874V23.7155H93.0234V16.4082Z" fill="white"/>
<path d="M97.0082 21.5627C97.0411 22.4646 97.7455 22.8596 98.5486 22.8596C99.1345 22.8596 99.5427 22.7675 99.9377 22.6358L100.122 23.4982C99.6875 23.6825 99.095 23.8142 98.3775 23.8142C96.7514 23.8142 95.7969 22.8201 95.7969 21.2863C95.7969 19.8972 96.6395 18.5938 98.2458 18.5938C99.8521 18.5938 100.405 19.9301 100.405 21.0295C100.405 21.2665 100.385 21.4508 100.366 21.5627H97.0148H97.0082ZM99.2069 20.6806C99.2201 20.2198 99.0095 19.4561 98.1668 19.4561C97.3834 19.4561 97.0543 20.1671 97.0082 20.6806H99.2069Z" fill="white"/>
<path d="M106.641 23.8273C105.232 23.8273 104.133 22.8596 104.133 21.2468C104.133 19.6339 105.212 18.5938 106.72 18.5938C108.228 18.5938 109.208 19.6405 109.208 21.1612C109.208 22.9979 107.912 23.8208 106.648 23.8208H106.634L106.641 23.8273ZM106.68 22.9123C107.398 22.9123 107.905 22.2145 107.905 21.1941C107.905 20.4107 107.556 19.5088 106.694 19.5088C105.831 19.5088 105.436 20.3844 105.436 21.2138C105.436 22.1816 105.917 22.9123 106.667 22.9123H106.68Z" fill="white"/>
<path d="M110.696 20.1998C110.696 19.6271 110.676 19.1399 110.656 18.712H111.756L111.815 19.4625H111.848C112.072 19.0741 112.618 18.6001 113.454 18.6001C114.29 18.6001 115.232 19.1662 115.232 20.7462V23.7152H113.968V20.891C113.968 20.1735 113.698 19.6271 113.013 19.6271C112.513 19.6271 112.164 19.9891 112.026 20.3644C111.986 20.4697 111.966 20.6211 111.966 20.7659V23.7152H110.702V20.1998H110.696Z" fill="white"/>
<path d="M121.049 17.4221V18.7058H122.254V19.6538H121.049V21.8526C121.049 22.4714 121.214 22.7742 121.694 22.7742C121.918 22.7742 122.043 22.761 122.188 22.7215L122.208 23.6761C122.023 23.7485 121.681 23.8078 121.293 23.8078C120.819 23.8078 120.443 23.6563 120.206 23.3996C119.93 23.1099 119.805 22.6491 119.805 21.9908V19.6472H119.094V18.6992H119.805V17.7644L121.049 17.4155V17.4221Z" fill="white"/>
<path d="M123.659 16.4082H124.923V19.3904H124.943C125.094 19.1534 125.311 18.9559 125.568 18.8242C125.825 18.6794 126.121 18.6004 126.444 18.6004C127.293 18.6004 128.188 19.1665 128.188 20.7662V23.7155H126.924V20.8979C126.924 20.1803 126.654 19.6208 125.956 19.6208C125.463 19.6208 125.114 19.9499 124.969 20.3318C124.929 20.4437 124.916 20.5819 124.916 20.7136V23.7155H123.652V16.4082H123.659Z" fill="white"/>
<path d="M130.879 21.5627C130.912 22.4646 131.617 22.8596 132.42 22.8596C133.006 22.8596 133.414 22.7675 133.809 22.6358L133.993 23.4982C133.559 23.6825 132.966 23.8142 132.249 23.8142C130.623 23.8142 129.668 22.8201 129.668 21.2863C129.668 19.8972 130.511 18.5938 132.117 18.5938C133.723 18.5938 134.276 19.9301 134.276 21.0295C134.276 21.2665 134.256 21.4508 134.237 21.5627H130.886H130.879ZM133.078 20.6806C133.091 20.2198 132.881 19.4561 132.038 19.4561C131.255 19.4561 130.925 20.1671 130.879 20.6806H133.078Z" fill="white"/>
<path d="M42.4445 30.4303C42.4116 27.0005 45.249 25.3349 45.3806 25.2559C43.7743 22.9123 41.2793 22.5898 40.4038 22.5634C38.3103 22.3462 36.2827 23.8142 35.2163 23.8142C34.1498 23.8142 32.4843 22.5832 30.72 22.6161C28.4422 22.6556 26.3159 23.9722 25.1441 26.013C22.7346 30.1867 24.5318 36.3156 26.8425 39.6928C28.0011 41.3451 29.3507 43.1884 31.115 43.1226C32.8398 43.0502 33.4849 42.0232 35.5718 42.0232C37.6586 42.0232 38.2445 43.1226 40.0483 43.0831C41.9047 43.0502 43.0699 41.4241 44.1825 39.7586C45.5189 37.8627 46.0521 35.9996 46.0784 35.9075C46.0324 35.8943 42.4775 34.5382 42.438 30.4237" fill="white"/>
<path d="M39.0355 20.3515C39.9637 19.1862 40.6022 17.6063 40.4245 16C39.0815 16.0592 37.3963 16.9282 36.4285 18.0671C35.5727 19.0677 34.8025 20.7135 35 22.254C36.5141 22.3659 38.0611 21.4903 39.0355 20.3449" fill="white"/>
<path d="M67.4206 42.8594H65.0112L63.6946 38.712H59.1127L57.8553 42.8594H55.5117L60.0541 28.7451H62.8585L67.4206 42.8594ZM63.2996 36.974L62.108 33.2875C61.9829 32.9122 61.746 32.0235 61.397 30.6279H61.3575C61.2193 31.227 60.9955 32.1157 60.6861 33.2875L59.5143 36.974H63.3062H63.2996Z" fill="white"/>
<path d="M79.107 37.6453C79.107 39.3767 78.6396 40.7459 77.7048 41.7466C76.8687 42.6419 75.8286 43.083 74.5844 43.083C73.2414 43.083 72.2803 42.6024 71.6944 41.6412H71.6549V46.9999H69.3903V36.0258C69.3903 34.9396 69.3639 33.8205 69.3047 32.675H71.2928L71.4179 34.2879H71.464C72.2144 33.07 73.3599 32.4644 74.8938 32.4644C76.0919 32.4644 77.0991 32.9383 77.8957 33.8863C78.6988 34.8343 79.1004 36.0851 79.1004 37.6321M76.7963 37.7177C76.7963 36.7302 76.5725 35.9073 76.1248 35.2688C75.6377 34.5973 74.9794 34.2616 74.1565 34.2616C73.5969 34.2616 73.09 34.4459 72.6358 34.8145C72.1815 35.1898 71.8853 35.6703 71.747 36.2694C71.6746 36.5525 71.6417 36.7763 71.6417 36.9606V38.6591C71.6417 39.3964 71.8655 40.0218 72.3198 40.5287C72.774 41.0422 73.3665 41.2923 74.0906 41.2923C74.9399 41.2923 75.6048 40.9698 76.0787 40.3115C76.5527 39.6531 76.7897 38.7908 76.7897 37.7111" fill="white"/>
<path d="M90.8113 37.6453C90.8113 39.3767 90.3439 40.7459 89.4091 41.7466C88.5731 42.6419 87.5329 43.083 86.2887 43.083C84.9523 43.083 83.9846 42.6024 83.3987 41.6412H83.3592V46.9999H81.1012V36.0258C81.1012 34.9396 81.0749 33.8205 81.0156 32.675H83.0037L83.1288 34.2879H83.1749C83.9254 33.07 85.0708 32.4644 86.6047 32.4644C87.8028 32.4644 88.8035 32.9383 89.6066 33.8863C90.4098 34.8343 90.8113 36.0851 90.8113 37.6321M88.5072 37.7177C88.5072 36.7302 88.2834 35.9073 87.8358 35.2688C87.3486 34.5973 86.6903 34.2616 85.8674 34.2616C85.3078 34.2616 84.8009 34.4459 84.3467 34.8145C83.8925 35.1898 83.5962 35.6703 83.458 36.2694C83.3856 36.5525 83.3526 36.7763 83.3526 36.9606V38.6591C83.3526 39.3964 83.5765 40.0218 84.0307 40.5287C84.4849 41.0422 85.0708 41.2923 85.8016 41.2923C86.6508 41.2923 87.3157 40.9698 87.7897 40.3115C88.2637 39.6531 88.5007 38.7908 88.5007 37.7111" fill="white"/>
<path d="M103.899 38.9026C103.899 40.1008 103.484 41.0817 102.641 41.8321C101.72 42.655 100.443 43.0698 98.7969 43.0698C97.2762 43.0698 96.0584 42.7801 95.1367 42.1942L95.6634 40.3114C96.6574 40.9105 97.7436 41.2133 98.9352 41.2133C99.7844 41.2133 100.449 41.0224 100.923 40.6406C101.397 40.2522 101.634 39.7387 101.634 39.1001C101.634 38.5274 101.437 38.0468 101.048 37.6518C100.66 37.2569 100.008 36.8948 99.0998 36.559C96.6311 35.6374 95.3935 34.2879 95.3935 32.5104C95.3935 31.3518 95.8279 30.3972 96.6903 29.6599C97.5527 28.916 98.7048 28.5474 100.146 28.5474C101.43 28.5474 102.497 28.7712 103.346 29.2188L102.78 31.0621C101.983 30.6276 101.081 30.4104 100.081 30.4104C99.2841 30.4104 98.6653 30.6079 98.2176 30.9963C97.8424 31.3452 97.6515 31.7731 97.6515 32.2734C97.6515 32.833 97.8687 33.2938 98.2966 33.6559C98.6719 33.9916 99.3565 34.3537 100.351 34.7487C101.562 35.2358 102.457 35.8086 103.03 36.4669C103.603 37.1252 103.886 37.9415 103.886 38.9158" fill="white"/>
<path d="M111.369 34.3804H108.881V39.3244C108.881 40.5817 109.322 41.2071 110.204 41.2071C110.606 41.2071 110.941 41.1742 111.205 41.1018L111.264 42.82C110.823 42.9846 110.23 43.0702 109.506 43.0702C108.611 43.0702 107.913 42.8003 107.413 42.2539C106.912 41.7075 106.656 40.7924 106.656 39.5087V34.3804H105.168V32.682H106.656V30.8189L108.874 30.1475V32.682H111.363V34.3804H111.369Z" fill="white"/>
<path d="M122.613 37.6919C122.613 39.2587 122.165 40.5424 121.276 41.543C120.341 42.5766 119.097 43.09 117.55 43.09C116.003 43.09 114.864 42.5963 113.982 41.6023C113.093 40.6148 112.652 39.364 112.652 37.8565C112.652 36.2765 113.107 34.9862 114.022 33.9856C114.937 32.9783 116.168 32.478 117.715 32.478C119.262 32.478 120.407 32.9718 121.316 33.9658C122.185 34.9335 122.613 36.1712 122.613 37.6919ZM120.269 37.7643C120.269 36.8295 120.065 36.0198 119.663 35.3483C119.189 34.5386 118.511 34.1304 117.636 34.1304C116.76 34.1304 116.036 34.5386 115.562 35.3483C115.154 36.0198 114.956 36.8361 114.956 37.8038C114.956 38.7715 115.154 39.5483 115.562 40.2198C116.049 41.0295 116.734 41.4377 117.616 41.4377C118.498 41.4377 119.156 41.0229 119.644 40.2001C120.065 39.5154 120.269 38.7057 120.269 37.7643Z" fill="white"/>
<path d="M129.96 34.6768C129.736 34.6373 129.499 34.6175 129.249 34.6175C128.452 34.6175 127.84 34.9204 127.406 35.5194C127.03 36.0527 126.839 36.7176 126.839 37.5273V42.8662H124.581L124.601 35.8947C124.601 34.7229 124.575 33.6564 124.516 32.6887H126.484L126.57 34.6373H126.629C126.866 33.9658 127.248 33.426 127.761 33.0244C128.261 32.6624 128.808 32.478 129.394 32.478C129.604 32.478 129.789 32.4912 129.96 32.5175V34.6768Z" fill="white"/>
<path d="M140.074 37.29C140.074 37.6982 140.047 38.0339 139.995 38.317H133.214C133.241 39.3242 133.57 40.0879 134.195 40.6211C134.768 41.0951 135.505 41.3321 136.414 41.3321C137.414 41.3321 138.329 41.1741 139.159 40.8515L139.514 42.4249C138.553 42.8462 137.414 43.0569 136.098 43.0569C134.524 43.0569 133.28 42.5895 132.385 41.6612C131.489 40.733 131.035 39.4888 131.035 37.922C131.035 36.3552 131.456 35.111 132.293 34.0906C133.168 33.0044 134.36 32.458 135.847 32.458C137.335 32.458 138.428 33.0044 139.178 34.0906C139.778 34.9596 140.074 36.0261 140.074 37.2966M137.921 36.7107C137.934 36.0392 137.789 35.4599 137.48 34.9728C137.092 34.3474 136.486 34.0314 135.676 34.0314C134.939 34.0314 134.34 34.3408 133.879 34.953C133.504 35.4402 133.28 36.0261 133.214 36.7107H137.921Z" fill="white"/>
<defs>
<linearGradient id="paint0_linear_2140_67939" x1="82" y1="1.17759e-10" x2="82.0365" y2="63" gradientUnits="userSpaceOnUse">
<stop stop-color="white"/>
<stop offset="1" stop-color="white" stop-opacity="0"/>
</linearGradient>
<linearGradient id="paint1_linear_2140_67939" x1="-31.5" y1="-28.5" x2="27" y2="56" gradientUnits="userSpaceOnUse">
<stop stop-color="white"/>
<stop offset="1" stop-color="#545454"/>
</linearGradient>
</defs>
</svg>
