<svg width="185" height="50" viewBox="0 0 185 50" fill="none" xmlns="http://www.w3.org/2000/svg">
<path d="M54.1761 9.11344L53.2261 12.2243H51.1592L54.6771 1.24243H57.2347L60.8048 12.2243H58.6544L57.6627 9.11344H54.1761ZM57.3182 7.59979L56.4518 4.89609C56.243 4.22799 56.0655 3.47638 55.8985 2.8396H55.8672C55.7002 3.47638 55.5436 4.23843 55.3452 4.89609L54.4997 7.59979H57.3182Z" fill="white"/>
<path d="M63.8005 4.29102L65.0845 8.32047C65.3142 9.01989 65.4708 9.65667 65.6273 10.3039H65.6795C65.8257 9.65667 66.0032 9.03033 66.2224 8.32047L67.4959 4.29102H69.5942L66.5669 12.2247H64.5939L61.6396 4.29102H63.811H63.8005Z" fill="white"/>
<path d="M77.5801 10.3243C77.5801 11.0446 77.6115 11.744 77.7054 12.2346H75.8995L75.7533 11.3578H75.7011C75.2314 11.9737 74.3962 12.4121 73.3523 12.4121C71.7552 12.4121 70.8574 11.2534 70.8574 10.0529C70.8574 8.06948 72.6321 7.03602 75.5654 7.0569V6.93163C75.5654 6.40968 75.3566 5.54324 73.9474 5.54324C73.1644 5.54324 72.3502 5.78334 71.8178 6.12783L71.4316 4.82295C72.0162 4.46802 73.0496 4.12354 74.3023 4.12354C76.8494 4.12354 77.5801 5.74158 77.5801 7.4849V10.3347V10.3243ZM75.628 8.35133C74.2083 8.33046 72.8617 8.63319 72.8617 9.83367C72.8617 10.6166 73.3628 10.9715 73.9996 10.9715C74.8138 10.9715 75.3879 10.4496 75.5759 9.87543C75.628 9.72928 75.628 9.58314 75.628 9.43699V8.34089V8.35133Z" fill="white"/>
<path d="M81.4112 3.15251C80.7431 3.15251 80.3047 2.66188 80.3047 2.0773C80.3047 1.4614 80.764 0.981201 81.4321 0.981201C82.1002 0.981201 82.5386 1.45096 82.5595 2.0773C82.5595 2.66188 82.1211 3.15251 81.4321 3.15251H81.4112ZM80.4195 12.224V4.29037H82.4238V12.224H80.4195Z" fill="white"/>
<path d="M85.3047 0.647461H87.309V12.2348H85.3047V0.647461Z" fill="white"/>
<path d="M96.3702 10.3243C96.3702 11.0446 96.4015 11.744 96.4954 12.2346H94.6895L94.5434 11.3578H94.4912C94.0214 11.9737 93.1863 12.4121 92.1424 12.4121C90.5452 12.4121 89.6475 11.2534 89.6475 10.0529C89.6475 8.06948 91.4221 7.03602 94.3555 7.0569V6.93163C94.3555 6.40968 94.1467 5.54324 92.7478 5.54324C91.9649 5.54324 91.1507 5.78334 90.6183 6.12783L90.232 4.82295C90.8166 4.46802 91.8501 4.12354 93.1028 4.12354C95.6395 4.12354 96.3806 5.74158 96.3806 7.4849V10.3347L96.3702 10.3243ZM94.4181 8.35133C92.9984 8.33046 91.6517 8.63319 91.6517 9.83367C91.6517 10.6166 92.1528 10.9715 92.7896 10.9715C93.6038 10.9715 94.178 10.4496 94.3659 9.87543C94.4181 9.72928 94.4181 9.58314 94.4181 9.43699V8.34089V8.35133Z" fill="white"/>
<path d="M99.1987 0.647461H101.203V5.38677H101.234C101.725 4.62472 102.591 4.11321 103.781 4.11321C105.723 4.11321 107.101 5.73126 107.091 8.14267C107.091 10.9925 105.285 12.4122 103.489 12.4122C102.466 12.4122 101.547 12.0155 100.984 11.0447H100.952L100.858 12.2348H99.1465C99.1778 11.6919 99.2091 10.8151 99.2091 10.0217V0.647461H99.1987ZM101.203 8.95691C101.203 9.12394 101.224 9.28052 101.255 9.42667C101.464 10.2409 102.163 10.8255 103.03 10.8255C104.282 10.8255 105.055 9.83379 105.055 8.21574C105.055 6.81692 104.387 5.67906 103.051 5.67906C102.236 5.67906 101.485 6.26365 101.276 7.14052C101.245 7.28667 101.213 7.46413 101.213 7.66247V8.94647L101.203 8.95691Z" fill="white"/>
<path d="M109.45 0.647461H111.454V12.2348H109.45V0.647461Z" fill="white"/>
<path d="M115.766 8.82103C115.819 10.2512 116.936 10.8775 118.209 10.8775C119.138 10.8775 119.785 10.7314 120.412 10.5226L120.704 11.8901C120.015 12.1824 119.076 12.3912 117.938 12.3912C115.359 12.3912 113.846 10.8149 113.846 8.38259C113.846 6.17996 115.182 4.11304 117.729 4.11304C120.276 4.11304 121.153 6.23216 121.153 7.97547C121.153 8.35128 121.122 8.64357 121.09 8.82103H115.777H115.766ZM119.253 7.4222C119.274 6.69147 118.94 5.48055 117.604 5.48055C116.362 5.48055 115.84 6.60796 115.766 7.4222H119.253Z" fill="white"/>
<path d="M131.038 12.4121C128.804 12.4121 127.061 10.8775 127.061 8.31996C127.061 5.7624 128.773 4.11304 131.163 4.11304C133.554 4.11304 135.109 5.77284 135.109 8.18425C135.109 11.0967 133.053 12.4016 131.048 12.4016H131.027L131.038 12.4121ZM131.1 10.961C132.238 10.961 133.042 9.85449 133.042 8.23645C133.042 6.9942 132.489 5.56406 131.121 5.56406C129.754 5.56406 129.127 6.95245 129.127 8.26776C129.127 9.8023 129.89 10.961 131.08 10.961H131.1Z" fill="white"/>
<path d="M137.469 6.66021C137.469 5.75202 137.438 4.97953 137.406 4.301H139.15L139.244 5.49104H139.296C139.651 4.87514 140.517 4.12354 141.843 4.12354C143.169 4.12354 144.661 5.02129 144.661 7.52665V12.2346H142.657V7.75631C142.657 6.61846 142.229 5.75202 141.143 5.75202C140.35 5.75202 139.797 6.32617 139.578 6.92119C139.515 7.08821 139.484 7.32831 139.484 7.55797V12.2346H137.479V6.66021H137.469Z" fill="white"/>
<path d="M153.889 2.25531V4.29092H155.8V5.79414H153.889V9.28077C153.889 10.262 154.15 10.7422 154.912 10.7422C155.267 10.7422 155.466 10.7213 155.695 10.6587L155.727 12.1724C155.434 12.2872 154.892 12.3812 154.276 12.3812C153.524 12.3812 152.929 12.1411 152.553 11.7339C152.115 11.2746 151.916 10.5439 151.916 9.49998V5.7837H150.789V4.28048H151.916V2.79814L153.889 2.24487V2.25531Z" fill="white"/>
<path d="M158.023 0.647461H160.027V5.37633H160.059C160.299 5.00053 160.643 4.68736 161.05 4.47858C161.458 4.24892 161.927 4.12365 162.439 4.12365C163.785 4.12365 165.205 5.0214 165.205 7.55808V12.2348H163.201V7.76687C163.201 6.62901 162.773 5.7417 161.666 5.7417C160.883 5.7417 160.33 6.26365 160.1 6.86911C160.038 7.04657 160.017 7.26579 160.017 7.47457V12.2348H158.013V0.647461H158.023Z" fill="white"/>
<path d="M169.474 8.82103C169.527 10.2512 170.644 10.8775 171.917 10.8775C172.846 10.8775 173.494 10.7314 174.12 10.5226L174.412 11.8901C173.723 12.1824 172.784 12.3912 171.646 12.3912C169.067 12.3912 167.554 10.8149 167.554 8.38259C167.554 6.17996 168.89 4.11304 171.437 4.11304C173.984 4.11304 174.861 6.23216 174.861 7.97547C174.861 8.35128 174.83 8.64357 174.798 8.82103H169.485H169.474ZM172.961 7.4222C172.982 6.69147 172.648 5.48055 171.312 5.48055C170.07 5.48055 169.548 6.60796 169.474 7.4222H172.961Z" fill="white"/>
<path d="M29.2479 22.8827C29.1957 17.444 33.6949 14.8029 33.9037 14.6776C31.3566 10.9613 27.4002 10.4498 26.0118 10.4081C22.6922 10.0636 19.477 12.3915 17.7858 12.3915C16.0947 12.3915 13.4537 10.4394 10.656 10.4916C7.04411 10.5542 3.67231 12.642 1.81416 15.8781C-2.00652 22.4964 0.843334 32.2152 4.50743 37.5704C6.34469 40.1906 8.48469 43.1135 11.2823 43.0091C14.0174 42.8943 15.0404 41.2658 18.3496 41.2658C21.6587 41.2658 22.5878 43.0091 25.4481 42.9465C28.3919 42.8943 30.2396 40.3158 32.0038 37.6748C34.1229 34.6683 34.9685 31.7141 35.0102 31.5679C34.9371 31.5471 29.3001 29.3966 29.2374 22.8723" fill="white"/>
<path d="M23.8393 6.90067C25.3112 5.05297 26.3238 2.54761 26.0419 0.000488281C23.9123 0.0944394 21.24 1.47239 19.7054 3.27834C18.3484 4.86507 17.127 7.47482 17.4402 9.91755C19.8411 10.095 22.2943 8.70662 23.8393 6.89023" fill="white"/>
<path d="M68.8529 42.5922H65.0322L62.9444 36.0156H55.6789L53.685 42.5922H49.9688L57.1717 20.2109H61.6187L68.8529 42.5922ZM62.3181 33.2597L60.4286 27.4139C60.2303 26.8188 59.8545 25.4096 59.3012 23.1965H59.2386C59.0194 24.1464 58.6644 25.5557 58.1738 27.4139L56.3157 33.2597H62.3285H62.3181Z" fill="white"/>
<path d="M87.3816 34.3241C87.3816 37.0696 86.6404 39.2409 85.1581 40.8276C83.8323 42.2474 82.1829 42.9468 80.21 42.9468C78.0804 42.9468 76.5563 42.1847 75.6272 40.6606H75.5646V49.158H71.9736V31.7561C71.9736 30.0337 71.9318 28.2591 71.8379 26.4427H74.9905L75.1888 29.0002H75.2619C76.4519 27.069 78.2683 26.1086 80.7006 26.1086C82.6005 26.1086 84.1977 26.8603 85.4608 28.3635C86.7344 29.8667 87.3711 31.8501 87.3711 34.3033M83.7175 34.439C83.7175 32.8731 83.3626 31.5682 82.6527 30.5557C81.8802 29.4909 80.8363 28.9585 79.5314 28.9585C78.6441 28.9585 77.8403 29.2508 77.12 29.8354C76.3997 30.4304 75.93 31.1924 75.7108 32.1424C75.5959 32.5913 75.5437 32.9462 75.5437 33.2385V35.9318C75.5437 37.1009 75.8987 38.0926 76.619 38.8964C77.3392 39.7107 78.2788 40.1074 79.427 40.1074C80.7737 40.1074 81.828 39.5958 82.5796 38.5519C83.3312 37.508 83.707 36.1405 83.707 34.4285" fill="white"/>
<path d="M105.942 34.3241C105.942 37.0696 105.201 39.2409 103.719 40.8276C102.393 42.2474 100.744 42.9468 98.7708 42.9468C96.6517 42.9468 95.1172 42.1847 94.1881 40.6606H94.1255V49.158H90.5449V31.7561C90.5449 30.0337 90.5031 28.2591 90.4092 26.4427H93.5618L93.7601 29.0002H93.8332C95.0232 27.069 96.8396 26.1086 99.2719 26.1086C101.172 26.1086 102.759 26.8603 104.032 28.3635C105.306 29.8667 105.942 31.8501 105.942 34.3033M102.289 34.439C102.289 32.8731 101.934 31.5682 101.224 30.5557C100.451 29.4909 99.4076 28.9585 98.1027 28.9585C97.2154 28.9585 96.4116 29.2508 95.6913 29.8354C94.971 30.4304 94.5013 31.1924 94.2821 32.1424C94.1672 32.5913 94.115 32.9462 94.115 33.2385V35.9318C94.115 37.1009 94.4699 38.0926 95.1902 38.8964C95.9105 39.7107 96.8396 40.1074 97.9983 40.1074C99.345 40.1074 100.399 39.5958 101.151 38.5519C101.903 37.508 102.278 36.1405 102.278 34.4285" fill="white"/>
<path d="M126.695 36.318C126.695 38.2179 126.037 39.7733 124.701 40.9634C123.24 42.2683 121.215 42.9259 118.605 42.9259C116.193 42.9259 114.262 42.4666 112.801 41.5375L113.636 38.552C115.212 39.5019 116.935 39.9821 118.824 39.9821C120.171 39.9821 121.225 39.6794 121.977 39.0739C122.728 38.458 123.104 37.6438 123.104 36.6312C123.104 35.723 122.791 34.9609 122.175 34.3346C121.559 33.7083 120.526 33.1341 119.085 32.6017C115.17 31.1403 113.208 29.0003 113.208 26.1817C113.208 24.3445 113.897 22.8308 115.264 21.6617C116.632 20.482 118.459 19.8975 120.745 19.8975C122.78 19.8975 124.472 20.2524 125.818 20.9622L124.92 23.8852C123.657 23.1962 122.227 22.8517 120.64 22.8517C119.377 22.8517 118.396 23.1649 117.686 23.7808C117.091 24.334 116.788 25.0126 116.788 25.8059C116.788 26.6933 117.133 27.424 117.812 27.9981C118.407 28.5305 119.492 29.1047 121.068 29.731C122.989 30.5035 124.409 31.4117 125.317 32.4556C126.225 33.4995 126.674 34.7939 126.674 36.3389" fill="white"/>
<path d="M138.544 29.1464H134.598V36.9861C134.598 38.9799 135.297 39.9716 136.696 39.9716C137.333 39.9716 137.865 39.9194 138.283 39.8046L138.376 42.5292C137.677 42.7902 136.738 42.9259 135.589 42.9259C134.17 42.9259 133.063 42.4979 132.27 41.6314C131.476 40.765 131.069 39.314 131.069 37.2784V29.1464H128.71V26.4531H131.069V23.4989L134.587 22.4341V26.4531H138.533V29.1464H138.544Z" fill="white"/>
<path d="M156.373 34.3976C156.373 36.8821 155.663 38.9177 154.254 40.5044C152.772 42.1433 150.799 42.9576 148.346 42.9576C145.893 42.9576 144.087 42.1746 142.688 40.5984C141.279 39.0325 140.579 37.0491 140.579 34.6586C140.579 32.1532 141.299 30.1071 142.75 28.5204C144.201 26.9232 146.154 26.1299 148.607 26.1299C151.06 26.1299 152.876 26.9128 154.317 28.4891C155.695 30.0236 156.373 31.9862 156.373 34.3976ZM152.657 34.5124C152.657 33.0301 152.333 31.7461 151.697 30.6813C150.945 29.3973 149.87 28.7501 148.481 28.7501C147.093 28.7501 145.945 29.3973 145.193 30.6813C144.546 31.7461 144.233 33.0405 144.233 34.575C144.233 36.1096 144.546 37.3414 145.193 38.4062C145.966 39.6902 147.051 40.3374 148.45 40.3374C149.849 40.3374 150.893 39.6797 151.665 38.3748C152.333 37.2892 152.657 36.0052 152.657 34.5124Z" fill="white"/>
<path d="M168.024 29.6165C167.669 29.5539 167.293 29.5226 166.896 29.5226C165.633 29.5226 164.662 30.0028 163.973 30.9527C163.378 31.7983 163.076 32.8526 163.076 34.1366V42.6026H159.495L159.526 31.5477C159.526 29.6896 159.485 27.9985 159.391 26.4639H162.512L162.648 29.5539H162.742C163.117 28.4891 163.723 27.6331 164.537 26.9963C165.33 26.4222 166.197 26.1299 167.126 26.1299C167.46 26.1299 167.752 26.1508 168.024 26.1925V29.6165Z" fill="white"/>
<path d="M184.057 33.7601C184.057 34.4074 184.016 34.9397 183.932 35.3886H173.18C173.222 36.9858 173.744 38.1967 174.735 39.0423C175.644 39.7939 176.813 40.1697 178.253 40.1697C179.84 40.1697 181.291 39.9191 182.606 39.4076L183.17 41.9026C181.646 42.5707 179.84 42.9047 177.752 42.9047C175.257 42.9047 173.284 42.1635 171.865 40.6916C170.445 39.2197 169.725 37.2468 169.725 34.7623C169.725 32.2778 170.393 30.3048 171.718 28.6868C173.107 26.9643 174.996 26.0979 177.356 26.0979C179.715 26.0979 181.448 26.9643 182.638 28.6868C183.588 30.0647 184.057 31.7558 184.057 33.7706M180.644 32.8415C180.665 31.7767 180.435 30.8581 179.944 30.0856C179.328 29.0939 178.368 28.5928 177.084 28.5928C175.915 28.5928 174.965 29.0835 174.234 30.0543C173.639 30.8268 173.284 31.7558 173.18 32.8415H180.644Z" fill="white"/>
</svg>
