<svg width="40" height="40" viewBox="0 0 40 40" fill="none" xmlns="http://www.w3.org/2000/svg">
<path d="M3.33301 3.3335L36.6663 36.6668" stroke="white" stroke-width="3" stroke-linecap="round" stroke-linejoin="round"/>
<path d="M27.4997 27.4998L19.9997 34.9998L8.33301 23.3332C5.83301 20.9165 3.33301 17.9998 3.33301 14.1665C3.33412 12.7659 3.65618 11.3841 4.27445 10.1273C4.89273 8.87055 5.79079 7.77216 6.89967 6.9165" stroke="white" stroke-width="3" stroke-linecap="round" stroke-linejoin="round"/>
<path d="M14.5996 5.16667C16.5163 5.53333 18.1496 6.46667 19.9996 8.33333C22.4996 5.83333 24.5663 5 27.4996 5C29.9308 5 32.2623 5.96577 33.9814 7.68485C35.7005 9.40394 36.6663 11.7355 36.6663 14.1667C36.6663 17.7 34.4996 20.4667 32.2163 22.7833" stroke="white" stroke-width="3" stroke-linecap="round" stroke-linejoin="round"/>
</svg>
