<svg width="187" height="45" viewBox="0 0 187 45" fill="none" xmlns="http://www.w3.org/2000/svg">
<path d="M37.5 24.75V27H28.5V24.75H27V27C27 27.825 27.675 28.5 28.5 28.5H37.5C38.325 28.5 39 27.825 39 27V24.75H37.5ZM36.75 21.75L35.6925 20.6925L33.75 22.6275V16.5H32.25V22.6275L30.3075 20.6925L29.25 21.75L33 25.5L36.75 21.75Z" fill="black"/>
<path d="M54.6297 27.5H52.2L52.2156 25.9453H54.6297C55.3328 25.9453 55.9214 25.7917 56.3953 25.4844C56.8745 25.1771 57.2339 24.737 57.4734 24.1641C57.7182 23.5911 57.8406 22.9089 57.8406 22.1172V21.5C57.8406 20.8854 57.7703 20.3411 57.6297 19.8672C57.4943 19.3932 57.2911 18.9948 57.0203 18.6719C56.7547 18.349 56.4266 18.1042 56.0359 17.9375C55.6505 17.7708 55.2052 17.6875 54.7 17.6875H52.1531V16.125H54.7C55.4552 16.125 56.1453 16.2526 56.7703 16.5078C57.3953 16.7578 57.9344 17.1198 58.3875 17.5938C58.8458 18.0677 59.1974 18.6354 59.4422 19.2969C59.687 19.9583 59.8094 20.6979 59.8094 21.5156V22.1172C59.8094 22.9349 59.687 23.6745 59.4422 24.3359C59.1974 24.9974 58.8458 25.5651 58.3875 26.0391C57.9292 26.5078 57.3823 26.8698 56.7469 27.125C56.1167 27.375 55.4109 27.5 54.6297 27.5ZM53.2859 16.125V27.5H51.325V16.125H53.2859ZM61.3313 23.3672V23.1875C61.3313 22.5781 61.4198 22.013 61.5969 21.4922C61.774 20.9661 62.0292 20.5104 62.3625 20.125C62.701 19.7344 63.1125 19.4323 63.5969 19.2188C64.0865 19 64.6385 18.8906 65.2531 18.8906C65.8729 18.8906 66.425 19 66.9094 19.2188C67.399 19.4323 67.813 19.7344 68.1516 20.125C68.4901 20.5104 68.7479 20.9661 68.925 21.4922C69.1021 22.013 69.1906 22.5781 69.1906 23.1875V23.3672C69.1906 23.9766 69.1021 24.5417 68.925 25.0625C68.7479 25.5833 68.4901 26.0391 68.1516 26.4297C67.813 26.8151 67.4016 27.1172 66.9172 27.3359C66.4328 27.5495 65.8833 27.6562 65.2688 27.6562C64.649 27.6562 64.0943 27.5495 63.6047 27.3359C63.1203 27.1172 62.7089 26.8151 62.3703 26.4297C62.0318 26.0391 61.774 25.5833 61.5969 25.0625C61.4198 24.5417 61.3313 23.9766 61.3313 23.3672ZM63.2141 23.1875V23.3672C63.2141 23.7474 63.2531 24.1068 63.3313 24.4453C63.4094 24.7839 63.5318 25.0807 63.6984 25.3359C63.8651 25.5911 64.0786 25.7917 64.3391 25.9375C64.5995 26.0833 64.9094 26.1562 65.2688 26.1562C65.6177 26.1562 65.9198 26.0833 66.175 25.9375C66.4354 25.7917 66.649 25.5911 66.8156 25.3359C66.9823 25.0807 67.1047 24.7839 67.1828 24.4453C67.2661 24.1068 67.3078 23.7474 67.3078 23.3672V23.1875C67.3078 22.8125 67.2661 22.4583 67.1828 22.125C67.1047 21.7865 66.9797 21.487 66.8078 21.2266C66.6411 20.9661 66.4276 20.763 66.1672 20.6172C65.912 20.4661 65.6073 20.3906 65.2531 20.3906C64.899 20.3906 64.5917 20.4661 64.3313 20.6172C64.076 20.763 63.8651 20.9661 63.6984 21.2266C63.5318 21.487 63.4094 21.7865 63.3313 22.125C63.2531 22.4583 63.2141 22.8125 63.2141 23.1875ZM73.1656 25.625L75.1188 19.0469H76.3219L75.9938 21.0156L74.025 27.5H72.9469L73.1656 25.625ZM72.0172 19.0469L73.5406 25.6562L73.6656 27.5H72.4625L70.1734 19.0469H72.0172ZM78.15 25.5781L79.6266 19.0469H81.4625L79.1813 27.5H77.9781L78.15 25.5781ZM76.525 19.0469L78.4547 25.5469L78.6969 27.5H77.6188L75.6266 21.0078L75.2984 19.0469H76.525ZM84.7109 20.8516V27.5H82.8281V19.0469H84.6016L84.7109 20.8516ZM84.375 22.9609L83.7656 22.9531C83.7708 22.3542 83.8542 21.8047 84.0156 21.3047C84.1823 20.8047 84.4115 20.375 84.7031 20.0156C85 19.6562 85.3542 19.3802 85.7656 19.1875C86.1771 18.9896 86.6354 18.8906 87.1406 18.8906C87.5469 18.8906 87.9141 18.9479 88.2422 19.0625C88.5755 19.1719 88.8594 19.3516 89.0938 19.6016C89.3333 19.8516 89.5156 20.1771 89.6406 20.5781C89.7656 20.974 89.8281 21.4609 89.8281 22.0391V27.5H87.9375V22.0312C87.9375 21.625 87.8776 21.3047 87.7578 21.0703C87.6432 20.8307 87.474 20.6615 87.25 20.5625C87.0312 20.4583 86.7578 20.4062 86.4297 20.4062C86.1068 20.4062 85.8177 20.474 85.5625 20.6094C85.3073 20.7448 85.0911 20.9297 84.9141 21.1641C84.7422 21.3984 84.6094 21.6693 84.5156 21.9766C84.4219 22.2839 84.375 22.612 84.375 22.9609ZM93.8656 15.5V27.5H91.975V15.5H93.8656ZM95.6688 23.3672V23.1875C95.6688 22.5781 95.7573 22.013 95.9344 21.4922C96.1115 20.9661 96.3667 20.5104 96.7 20.125C97.0385 19.7344 97.45 19.4323 97.9344 19.2188C98.424 19 98.976 18.8906 99.5906 18.8906C100.21 18.8906 100.763 19 101.247 19.2188C101.736 19.4323 102.151 19.7344 102.489 20.125C102.828 20.5104 103.085 20.9661 103.263 21.4922C103.44 22.013 103.528 22.5781 103.528 23.1875V23.3672C103.528 23.9766 103.44 24.5417 103.263 25.0625C103.085 25.5833 102.828 26.0391 102.489 26.4297C102.151 26.8151 101.739 27.1172 101.255 27.3359C100.77 27.5495 100.221 27.6562 99.6063 27.6562C98.9865 27.6562 98.4318 27.5495 97.9422 27.3359C97.4578 27.1172 97.0464 26.8151 96.7078 26.4297C96.3693 26.0391 96.1115 25.5833 95.9344 25.0625C95.7573 24.5417 95.6688 23.9766 95.6688 23.3672ZM97.5516 23.1875V23.3672C97.5516 23.7474 97.5906 24.1068 97.6688 24.4453C97.7469 24.7839 97.8693 25.0807 98.0359 25.3359C98.2026 25.5911 98.4161 25.7917 98.6766 25.9375C98.937 26.0833 99.2469 26.1562 99.6063 26.1562C99.9552 26.1562 100.257 26.0833 100.513 25.9375C100.773 25.7917 100.986 25.5911 101.153 25.3359C101.32 25.0807 101.442 24.7839 101.52 24.4453C101.604 24.1068 101.645 23.7474 101.645 23.3672V23.1875C101.645 22.8125 101.604 22.4583 101.52 22.125C101.442 21.7865 101.317 21.487 101.145 21.2266C100.979 20.9661 100.765 20.763 100.505 20.6172C100.249 20.4661 99.9448 20.3906 99.5906 20.3906C99.2365 20.3906 98.9292 20.4661 98.6688 20.6172C98.4135 20.763 98.2026 20.9661 98.0359 21.2266C97.8693 21.487 97.7469 21.7865 97.6688 22.125C97.5906 22.4583 97.5516 22.8125 97.5516 23.1875ZM109.972 25.8047V21.7734C109.972 21.4714 109.917 21.2109 109.808 20.9922C109.698 20.7734 109.532 20.6042 109.308 20.4844C109.089 20.3646 108.813 20.3047 108.48 20.3047C108.172 20.3047 107.907 20.3568 107.683 20.4609C107.459 20.5651 107.284 20.7057 107.159 20.8828C107.034 21.0599 106.972 21.2604 106.972 21.4844H105.097C105.097 21.151 105.178 20.8281 105.339 20.5156C105.501 20.2031 105.735 19.9245 106.042 19.6797C106.349 19.4349 106.717 19.2422 107.144 19.1016C107.571 18.9609 108.05 18.8906 108.581 18.8906C109.217 18.8906 109.779 18.9974 110.269 19.2109C110.764 19.4245 111.152 19.7474 111.433 20.1797C111.719 20.6068 111.862 21.1432 111.862 21.7891V25.5469C111.862 25.9323 111.889 26.2786 111.941 26.5859C111.998 26.888 112.079 27.151 112.183 27.375V27.5H110.253C110.165 27.2969 110.094 27.0391 110.042 26.7266C109.995 26.4089 109.972 26.1016 109.972 25.8047ZM110.245 22.3594L110.261 23.5234H108.909C108.56 23.5234 108.253 23.5573 107.987 23.625C107.722 23.6875 107.501 23.7812 107.323 23.9062C107.146 24.0312 107.014 24.1823 106.925 24.3594C106.836 24.5365 106.792 24.737 106.792 24.9609C106.792 25.1849 106.844 25.3906 106.948 25.5781C107.053 25.7604 107.204 25.9036 107.402 26.0078C107.605 26.112 107.849 26.1641 108.136 26.1641C108.521 26.1641 108.857 26.0859 109.144 25.9297C109.435 25.7682 109.665 25.5729 109.831 25.3438C109.998 25.1094 110.086 24.888 110.097 24.6797L110.706 25.5156C110.644 25.7292 110.537 25.9583 110.386 26.2031C110.235 26.4479 110.037 26.6823 109.792 26.9062C109.553 27.125 109.264 27.3047 108.925 27.4453C108.592 27.5859 108.206 27.6562 107.769 27.6562C107.217 27.6562 106.724 27.5469 106.292 27.3281C105.86 27.1042 105.521 26.8047 105.277 26.4297C105.032 26.0495 104.909 25.6198 104.909 25.1406C104.909 24.6927 104.993 24.2969 105.159 23.9531C105.331 23.6042 105.581 23.3125 105.909 23.0781C106.243 22.8438 106.649 22.6667 107.128 22.5469C107.607 22.4219 108.154 22.3594 108.769 22.3594H110.245ZM119.088 25.75V15.5H120.978V27.5H119.267L119.088 25.75ZM113.588 23.3672V23.2031C113.588 22.5625 113.663 21.9792 113.814 21.4531C113.965 20.9219 114.184 20.4661 114.47 20.0859C114.757 19.7005 115.106 19.4062 115.517 19.2031C115.929 18.9948 116.392 18.8906 116.908 18.8906C117.418 18.8906 117.866 18.9896 118.252 19.1875C118.637 19.3854 118.965 19.6693 119.236 20.0391C119.507 20.4036 119.723 20.8411 119.884 21.3516C120.046 21.8568 120.16 22.4193 120.228 23.0391V23.5625C120.16 24.1667 120.046 24.7188 119.884 25.2188C119.723 25.7188 119.507 26.151 119.236 26.5156C118.965 26.8802 118.634 27.1615 118.244 27.3594C117.858 27.5573 117.408 27.6562 116.892 27.6562C116.382 27.6562 115.921 27.5495 115.509 27.3359C115.103 27.1224 114.757 26.8229 114.47 26.4375C114.184 26.0521 113.965 25.599 113.814 25.0781C113.663 24.5521 113.588 23.9818 113.588 23.3672ZM115.47 23.2031V23.3672C115.47 23.7526 115.504 24.112 115.572 24.4453C115.645 24.7786 115.757 25.0729 115.908 25.3281C116.059 25.5781 116.254 25.776 116.494 25.9219C116.739 26.0625 117.03 26.1328 117.369 26.1328C117.796 26.1328 118.147 26.0391 118.423 25.8516C118.699 25.6641 118.916 25.4115 119.072 25.0938C119.233 24.7708 119.343 24.4115 119.4 24.0156V22.6016C119.369 22.2943 119.304 22.0078 119.205 21.7422C119.111 21.4766 118.983 21.2448 118.822 21.0469C118.66 20.8438 118.46 20.6875 118.22 20.5781C117.986 20.4635 117.707 20.4062 117.384 20.4062C117.041 20.4062 116.749 20.4792 116.509 20.625C116.27 20.7708 116.072 20.9714 115.916 21.2266C115.765 21.4818 115.653 21.7786 115.58 22.1172C115.507 22.4557 115.47 22.8177 115.47 23.2031ZM131.748 17.6406L128.35 27.5H126.295L130.577 16.125H131.889L131.748 17.6406ZM134.592 27.5L131.186 17.6406L131.038 16.125H132.358L136.655 27.5H134.592ZM134.428 23.2812V24.8359H128.241V23.2812H134.428ZM139.591 20.6719V30.75H137.708V19.0469H139.442L139.591 20.6719ZM145.098 23.1953V23.3594C145.098 23.974 145.026 24.5443 144.88 25.0703C144.739 25.5911 144.528 26.0469 144.247 26.4375C143.971 26.8229 143.63 27.1224 143.223 27.3359C142.817 27.5495 142.348 27.6562 141.817 27.6562C141.291 27.6562 140.83 27.5599 140.434 27.3672C140.044 27.1693 139.713 26.8906 139.442 26.5312C139.171 26.1719 138.953 25.75 138.786 25.2656C138.624 24.776 138.51 24.2396 138.442 23.6562V23.0234C138.51 22.4036 138.624 21.8411 138.786 21.3359C138.953 20.8307 139.171 20.3958 139.442 20.0312C139.713 19.6667 140.044 19.3854 140.434 19.1875C140.825 18.9896 141.281 18.8906 141.802 18.8906C142.333 18.8906 142.804 18.9948 143.216 19.2031C143.627 19.4062 143.973 19.6979 144.255 20.0781C144.536 20.4531 144.747 20.9062 144.887 21.4375C145.028 21.9635 145.098 22.5495 145.098 23.1953ZM143.216 23.3594V23.1953C143.216 22.8047 143.179 22.4427 143.106 22.1094C143.033 21.7708 142.919 21.474 142.762 21.2188C142.606 20.9635 142.406 20.7656 142.161 20.625C141.921 20.4792 141.632 20.4062 141.294 20.4062C140.96 20.4062 140.674 20.4635 140.434 20.5781C140.195 20.6875 139.994 20.8411 139.833 21.0391C139.671 21.237 139.546 21.4688 139.458 21.7344C139.369 21.9948 139.307 22.2786 139.27 22.5859V24.1016C139.333 24.4766 139.44 24.8203 139.591 25.1328C139.742 25.4453 139.955 25.6953 140.231 25.8828C140.512 26.0651 140.872 26.1562 141.309 26.1562C141.648 26.1562 141.937 26.0833 142.177 25.9375C142.416 25.7917 142.611 25.5911 142.762 25.3359C142.919 25.0755 143.033 24.776 143.106 24.4375C143.179 24.099 143.216 23.7396 143.216 23.3594ZM148.691 20.6719V30.75H146.808V19.0469H148.542L148.691 20.6719ZM154.198 23.1953V23.3594C154.198 23.974 154.126 24.5443 153.98 25.0703C153.839 25.5911 153.628 26.0469 153.347 26.4375C153.071 26.8229 152.73 27.1224 152.323 27.3359C151.917 27.5495 151.448 27.6562 150.917 27.6562C150.391 27.6562 149.93 27.5599 149.534 27.3672C149.144 27.1693 148.813 26.8906 148.542 26.5312C148.271 26.1719 148.053 25.75 147.886 25.2656C147.724 24.776 147.61 24.2396 147.542 23.6562V23.0234C147.61 22.4036 147.724 21.8411 147.886 21.3359C148.053 20.8307 148.271 20.3958 148.542 20.0312C148.813 19.6667 149.144 19.3854 149.534 19.1875C149.925 18.9896 150.381 18.8906 150.902 18.8906C151.433 18.8906 151.904 18.9948 152.316 19.2031C152.727 19.4062 153.073 19.6979 153.355 20.0781C153.636 20.4531 153.847 20.9062 153.988 21.4375C154.128 21.9635 154.198 22.5495 154.198 23.1953ZM152.316 23.3594V23.1953C152.316 22.8047 152.279 22.4427 152.206 22.1094C152.133 21.7708 152.019 21.474 151.863 21.2188C151.706 20.9635 151.506 20.7656 151.261 20.625C151.021 20.4792 150.732 20.4062 150.394 20.4062C150.06 20.4062 149.774 20.4635 149.534 20.5781C149.295 20.6875 149.094 20.8411 148.933 21.0391C148.771 21.237 148.646 21.4688 148.558 21.7344C148.469 21.9948 148.407 22.2786 148.37 22.5859V24.1016C148.433 24.4766 148.54 24.8203 148.691 25.1328C148.842 25.4453 149.055 25.6953 149.331 25.8828C149.613 26.0651 149.972 26.1562 150.409 26.1562C150.748 26.1562 151.037 26.0833 151.277 25.9375C151.516 25.7917 151.711 25.5911 151.863 25.3359C152.019 25.0755 152.133 24.776 152.206 24.4375C152.279 24.099 152.316 23.7396 152.316 23.3594Z" fill="#000D28"/>
</svg>
