<svg width="166" height="63" viewBox="0 0 166 63" fill="none" xmlns="http://www.w3.org/2000/svg">
<rect x="1.07422" y="1" width="163.001" height="61" rx="9" fill="url(#paint0_linear_2140_67969)" fill-opacity="0.3"/>
<rect x="1.07422" y="1" width="163.001" height="61" rx="9" stroke="url(#paint1_linear_2140_67969)" stroke-width="2"/>
<path d="M82.819 32.6272C80.4453 32.6272 78.505 34.3912 78.505 36.8167C78.505 39.2422 80.4391 41.0062 82.819 41.0062C85.1989 41.0062 87.1329 39.23 87.1329 36.8167C87.1329 34.4034 85.1989 32.6272 82.819 32.6272ZM82.819 39.3586C81.5191 39.3586 80.3951 38.3112 80.3951 36.8167C80.3951 35.3222 81.5191 34.2748 82.819 34.2748C84.1188 34.2748 85.2428 35.3038 85.2428 36.8167C85.2428 38.3296 84.1188 39.3586 82.819 39.3586ZM73.4124 32.6272C71.0387 32.6272 69.0984 34.3912 69.0984 36.8167C69.0984 39.2422 71.0324 41.0062 73.4124 41.0062C75.7923 41.0062 77.7263 39.23 77.7263 36.8167C77.7263 34.4034 75.7923 32.6272 73.4124 32.6272ZM73.4124 39.3586C72.1125 39.3586 70.9885 38.3112 70.9885 36.8167C70.9885 35.3222 72.1125 34.2748 73.4124 34.2748C74.7122 34.2748 75.8362 35.3038 75.8362 36.8167C75.8362 38.3296 74.7122 39.3586 73.4124 39.3586ZM62.2224 33.9134V35.6897H66.5803C66.4484 36.6881 66.1093 37.417 65.5882 37.9253C64.9539 38.544 63.9618 39.2238 62.2224 39.2238C59.5348 39.2238 57.4374 37.1107 57.4374 34.4953C57.4374 31.8799 59.5348 29.7668 62.2224 29.7668C63.6729 29.7668 64.7279 30.3241 65.5065 31.0347L66.7938 29.779C65.7012 28.7623 64.2569 27.9844 62.2224 27.9844C58.5426 27.9844 55.4531 30.906 55.4531 34.4892C55.4531 38.0723 58.5426 40.994 62.2224 40.994C64.2067 40.994 65.7075 40.357 66.8754 39.1687C68.0811 37.9927 68.4516 36.3451 68.4516 35.0098C68.4516 34.5994 68.4202 34.2136 68.3511 33.9012H62.2161L62.2224 33.9134ZM107.981 35.2916C107.623 34.3544 106.53 32.6272 104.301 32.6272C102.072 32.6272 100.251 34.3238 100.251 36.8167C100.251 39.1626 102.072 41.0062 104.514 41.0062C106.486 41.0062 107.623 39.8302 108.094 39.1503L106.631 38.201C106.141 38.8992 105.475 39.3586 104.514 39.3586C103.554 39.3586 102.869 38.9298 102.43 38.0907L108.175 35.7754L107.981 35.2977V35.2916ZM102.122 36.6881C102.072 35.0711 103.409 34.2442 104.37 34.2442C105.117 34.2442 105.752 34.6117 105.965 35.1323L102.128 36.6881H102.122ZM97.4501 40.749H99.3402V28.4315H97.4501V40.749ZM94.3606 33.5582H94.2978C93.8771 33.0682 93.0607 32.621 92.0372 32.621C89.8896 32.621 87.9179 34.4647 87.9179 36.829C87.9179 39.1932 89.8896 41.0001 92.0372 41.0001C93.0607 41.0001 93.8771 40.553 94.2978 40.0507H94.3606V40.651C94.3606 42.2557 93.4815 43.1133 92.0686 43.1133C90.9132 43.1133 90.1973 42.3047 89.9022 41.6187L88.257 42.2864C88.7279 43.395 89.9838 44.7609 92.0623 44.7609C94.2727 44.7609 96.144 43.493 96.144 40.3937V32.8722H94.3543V33.552L94.3606 33.5582ZM92.1942 39.3525C90.8943 39.3525 89.8017 38.2867 89.8017 36.829C89.8017 35.3712 90.8943 34.2748 92.1942 34.2748C93.494 34.2748 94.4862 35.3528 94.4862 36.829C94.4862 38.3051 93.4752 39.3525 92.1942 39.3525ZM116.816 28.4315H112.301V40.749H114.185V36.0817H116.816C118.907 36.0817 120.96 34.6056 120.96 32.2597C120.96 29.9138 118.907 28.4376 116.816 28.4376V28.4315ZM116.866 34.3667H114.185V30.1465H116.866C118.273 30.1465 119.076 31.2858 119.076 32.2597C119.076 33.2335 118.279 34.3728 116.866 34.3728V34.3667ZM128.515 32.5965C127.152 32.5965 125.739 33.1845 125.155 34.4831L126.825 35.1629C127.183 34.4831 127.849 34.2626 128.546 34.2626C129.519 34.2626 130.511 34.8322 130.53 35.8489V35.9776C130.191 35.7877 129.456 35.4998 128.565 35.4998C126.763 35.4998 124.929 36.4676 124.929 38.2745C124.929 39.9221 126.405 40.9817 128.062 40.9817C129.331 40.9817 130.028 40.4244 130.467 39.7751H130.53V40.7245H132.351V36.0021C132.351 33.8154 130.681 32.5965 128.521 32.5965H128.515ZM128.288 39.3463C127.673 39.3463 126.813 39.0462 126.813 38.299C126.813 37.3496 127.887 36.9821 128.81 36.9821C129.639 36.9821 130.028 37.1536 130.53 37.3925C130.386 38.5317 129.375 39.3402 128.288 39.3402V39.3463ZM138.976 32.866L136.816 38.2071H136.753L134.511 32.866H132.483L135.843 40.3264L133.927 44.4791H135.893L141.073 32.866H138.976ZM122.003 40.7429H123.887V28.4254H122.003V40.7429Z" fill="white"/>
<path d="M24.5389 18.6323C24.2438 18.9324 24.0742 19.4041 24.0742 20.0166V41.785C24.0742 42.3975 24.25 42.863 24.5389 43.1693L24.6143 43.2428L37.1166 31.0478V30.7599L24.6143 18.5649L24.5389 18.6384V18.6323Z" fill="#5BC9F4"/>
<path d="M41.2867 35.1143L37.1172 31.0473V30.7594L41.2867 26.6924L41.3809 26.7475L46.3166 29.4854C47.7295 30.2694 47.7295 31.5434 46.3166 32.3274L41.3809 35.0653L41.2867 35.1205V35.1143Z" fill="url(#paint2_linear_2140_67969)"/>
<path d="M41.3805 35.0588L37.1168 30.8999L24.5391 43.1684C25.0037 43.6461 25.7698 43.7074 26.6364 43.2296L41.3805 35.0588Z" fill="url(#paint3_linear_2140_67969)"/>
<path d="M41.3805 26.7414L26.6364 18.5706C25.7698 18.0928 25.0037 18.1479 24.5391 18.6318L37.1168 30.9003L41.3805 26.7414Z" fill="url(#paint4_linear_2140_67969)"/>
<path d="M60.3083 19.8756C59.9315 19.5449 59.4292 19.3366 58.8766 19.3366C57.6332 19.3366 56.6788 20.335 56.6788 21.5661C56.6788 22.7973 57.6332 23.7834 58.8766 23.7834C59.9441 23.7834 60.7227 23.177 60.773 22.2215H59.0838V21.5416H61.6898C61.6898 23.5751 60.5783 24.5368 58.8766 24.5368C57.1748 24.5368 55.875 23.2076 55.875 21.5661C55.875 19.9246 57.1874 18.5894 58.8766 18.5894C59.6615 18.5894 60.3711 18.8834 60.886 19.355L60.3083 19.8756Z" fill="white"/>
<path d="M66.3001 18.6572V19.3861H63.5811V21.2359H65.9547V21.9709H63.5811V23.7226H66.3817V24.4515H62.7773V18.6572H66.2938H66.3001Z" fill="white"/>
<path d="M71.4965 18.6572V19.3984H69.6943V24.4515H68.8842V19.3984H67.082V18.6572H71.4965Z" fill="white"/>
<path d="M75.3467 18.6572V24.4515H74.543V18.6572H75.3467Z" fill="white"/>
<path d="M80.8168 18.6572V19.3984H79.0146V24.4515H78.2045V19.3984H76.4023V18.6572H80.8168Z" fill="white"/>
<path d="M86.4742 18.5894C88.176 18.5894 89.4946 19.9185 89.4946 21.5661C89.4946 23.2138 88.176 24.5368 86.4742 24.5368C84.7725 24.5368 83.4727 23.2076 83.4727 21.5661C83.4727 19.9246 84.7851 18.5894 86.4742 18.5894ZM86.4742 23.7773C87.7238 23.7773 88.6846 22.7911 88.6846 21.5661C88.6846 20.3411 87.7301 19.3427 86.4742 19.3427C85.2183 19.3427 84.2764 20.335 84.2764 21.5661C84.2764 22.7973 85.2309 23.7773 86.4742 23.7773Z" fill="white"/>
<path d="M94.2368 24.4515L91.5303 20.0844V24.4515H90.7266V18.6572H91.5178L94.1991 22.9876V18.6572H95.0029V24.4515H94.2368Z" fill="white"/>
<defs>
<linearGradient id="paint0_linear_2140_67969" x1="82.5378" y1="1.17759e-10" x2="82.5741" y2="63" gradientUnits="userSpaceOnUse">
<stop stop-color="white"/>
<stop offset="1" stop-color="white" stop-opacity="0"/>
</linearGradient>
<linearGradient id="paint1_linear_2140_67969" x1="-31.6039" y1="-28.5" x2="26.7794" y2="56.3081" gradientUnits="userSpaceOnUse">
<stop stop-color="white"/>
<stop offset="1" stop-color="#545454"/>
</linearGradient>
<linearGradient id="paint2_linear_2140_67969" x1="45.3998" y1="30.9003" x2="20.979" y2="30.9003" gradientUnits="userSpaceOnUse">
<stop stop-color="#FEE000"/>
<stop offset="0.42" stop-color="#FBBC0E"/>
<stop offset="0.78" stop-color="#F9A318"/>
<stop offset="1" stop-color="#F99B1C"/>
</linearGradient>
<linearGradient id="paint3_linear_2140_67969" x1="39.0634" y1="33.16" x2="16.671" y2="56.1169" gradientUnits="userSpaceOnUse">
<stop stop-color="#EF4547"/>
<stop offset="1" stop-color="#C6186D"/>
</linearGradient>
<linearGradient id="paint4_linear_2140_67969" x1="15.9927" y1="6.14283" x2="34.2765" y2="24.8875" gradientUnits="userSpaceOnUse">
<stop stop-color="#279E6F"/>
<stop offset="0.04" stop-color="#2B9F6E"/>
<stop offset="0.46" stop-color="#52B16B"/>
<stop offset="0.8" stop-color="#6BBC69"/>
<stop offset="1" stop-color="#74C169"/>
</linearGradient>
</defs>
</svg>
