<svg width="79" height="79" viewBox="0 0 79 79" fill="none" xmlns="http://www.w3.org/2000/svg">
<path d="M4.35448 32.9185H1.75781V35.5151H4.35448V32.9185Z" fill="black"/>
<path d="M4.35448 43.3052H1.75781V45.9018H4.35448V43.3052Z" fill="black"/>
<path d="M4.35448 48.4985H1.75781V51.0952H4.35448V48.4985Z" fill="black"/>
<path d="M4.35448 51.0947H1.75781V53.6914H4.35448V51.0947Z" fill="black"/>
<path d="M6.95116 30.3218H4.35449V32.9184H6.95116V30.3218Z" fill="black"/>
<path d="M6.95116 32.9185H4.35449V35.5151H6.95116V32.9185Z" fill="black"/>
<path d="M6.95116 43.3052H4.35449V45.9018H6.95116V43.3052Z" fill="black"/>
<path d="M6.95116 48.4985H4.35449V51.0952H6.95116V48.4985Z" fill="black"/>
<path d="M6.95116 51.0947H4.35449V53.6914H6.95116V51.0947Z" fill="black"/>
<path d="M9.54784 25.1284H6.95117V27.7251H9.54784V25.1284Z" fill="black"/>
<path d="M9.54784 27.7251H6.95117V30.3218H9.54784V27.7251Z" fill="black"/>
<path d="M9.54784 35.5151H6.95117V38.1118H9.54784V35.5151Z" fill="black"/>
<path d="M9.54784 38.1118H6.95117V40.7085H9.54784V38.1118Z" fill="black"/>
<path d="M9.54784 40.7085H6.95117V43.3052H9.54784V40.7085Z" fill="black"/>
<path d="M9.54784 43.3052H6.95117V45.9018H9.54784V43.3052Z" fill="black"/>
<path d="M9.54784 45.9019H6.95117V48.4985H9.54784V45.9019Z" fill="black"/>
<path d="M12.1445 22.5317H9.54785V25.1284H12.1445V22.5317Z" fill="black"/>
<path d="M12.1445 25.1284H9.54785V27.7251H12.1445V25.1284Z" fill="black"/>
<path d="M12.1445 27.7251H9.54785V30.3218H12.1445V27.7251Z" fill="black"/>
<path d="M12.1445 30.3218H9.54785V32.9184H12.1445V30.3218Z" fill="black"/>
<path d="M12.1445 40.7085H9.54785V43.3052H12.1445V40.7085Z" fill="black"/>
<path d="M12.1445 43.3052H9.54785V45.9018H12.1445V43.3052Z" fill="black"/>
<path d="M12.1445 45.9019H9.54785V48.4985H12.1445V45.9019Z" fill="black"/>
<path d="M12.1445 48.4985H9.54785V51.0952H12.1445V48.4985Z" fill="black"/>
<path d="M12.1445 51.0947H9.54785V53.6914H12.1445V51.0947Z" fill="black"/>
<path d="M14.7412 25.1284H12.1445V27.7251H14.7412V25.1284Z" fill="black"/>
<path d="M14.7412 30.3218H12.1445V32.9184H14.7412V30.3218Z" fill="black"/>
<path d="M14.7412 35.5151H12.1445V38.1118H14.7412V35.5151Z" fill="black"/>
<path d="M14.7412 40.7085H12.1445V43.3052H14.7412V40.7085Z" fill="black"/>
<path d="M14.7412 45.9019H12.1445V48.4985H14.7412V45.9019Z" fill="black"/>
<path d="M14.7412 53.6914H12.1445V56.2881H14.7412V53.6914Z" fill="black"/>
<path d="M17.3379 22.5317H14.7412V25.1284H17.3379V22.5317Z" fill="black"/>
<path d="M17.3379 27.7251H14.7412V30.3218H17.3379V27.7251Z" fill="black"/>
<path d="M17.3379 35.5151H14.7412V38.1118H17.3379V35.5151Z" fill="black"/>
<path d="M17.3379 43.3052H14.7412V45.9018H17.3379V43.3052Z" fill="black"/>
<path d="M17.3379 53.6914H14.7412V56.2881H17.3379V53.6914Z" fill="black"/>
<path d="M19.9346 22.5317H17.3379V25.1284H19.9346V22.5317Z" fill="black"/>
<path d="M19.9346 27.7251H17.3379V30.3218H19.9346V27.7251Z" fill="black"/>
<path d="M19.9346 32.9185H17.3379V35.5151H19.9346V32.9185Z" fill="black"/>
<path d="M19.9346 38.1118H17.3379V40.7085H19.9346V38.1118Z" fill="black"/>
<path d="M19.9346 43.3052H17.3379V45.9018H19.9346V43.3052Z" fill="black"/>
<path d="M19.9346 48.4985H17.3379V51.0952H19.9346V48.4985Z" fill="black"/>
<path d="M19.9346 53.6914H17.3379V56.2881H19.9346V53.6914Z" fill="black"/>
<path d="M22.5312 22.5317H19.9346V25.1284H22.5312V22.5317Z" fill="black"/>
<path d="M22.5312 25.1284H19.9346V27.7251H22.5312V25.1284Z" fill="black"/>
<path d="M22.5312 30.3218H19.9346V32.9184H22.5312V30.3218Z" fill="black"/>
<path d="M22.5312 32.9185H19.9346V35.5151H22.5312V32.9185Z" fill="black"/>
<path d="M22.5312 35.5151H19.9346V38.1118H22.5312V35.5151Z" fill="black"/>
<path d="M22.5312 40.7085H19.9346V43.3052H22.5312V40.7085Z" fill="black"/>
<path d="M22.5312 43.3052H19.9346V45.9018H22.5312V43.3052Z" fill="black"/>
<path d="M22.5312 48.4985H19.9346V51.0952H22.5312V48.4985Z" fill="black"/>
<path d="M22.5312 53.6914H19.9346V56.2881H22.5312V53.6914Z" fill="black"/>
<path d="M25.1279 4.35498H22.5312V6.95165H25.1279V4.35498Z" fill="black"/>
<path d="M25.1279 6.95166H22.5312V9.54833H25.1279V6.95166Z" fill="black"/>
<path d="M25.1279 17.3384H22.5312V19.935H25.1279V17.3384Z" fill="black"/>
<path d="M25.1279 25.1284H22.5312V27.7251H25.1279V25.1284Z" fill="black"/>
<path d="M25.1279 30.3218H22.5312V32.9184H25.1279V30.3218Z" fill="black"/>
<path d="M25.1279 35.5151H22.5312V38.1118H25.1279V35.5151Z" fill="black"/>
<path d="M25.1279 40.7085H22.5312V43.3052H25.1279V40.7085Z" fill="black"/>
<path d="M25.1279 43.3052H22.5312V45.9018H25.1279V43.3052Z" fill="black"/>
<path d="M25.1279 45.9019H22.5312V48.4985H25.1279V45.9019Z" fill="black"/>
<path d="M25.1279 48.4985H22.5312V51.0952H25.1279V48.4985Z" fill="black"/>
<path d="M25.1279 51.0947H22.5312V53.6914H25.1279V51.0947Z" fill="black"/>
<path d="M25.1279 53.6914H22.5312V56.2881H25.1279V53.6914Z" fill="black"/>
<path d="M25.1279 58.8848H22.5312V61.4814H25.1279V58.8848Z" fill="black"/>
<path d="M25.1279 61.4814H22.5312V64.0781H25.1279V61.4814Z" fill="black"/>
<path d="M25.1279 66.6748H22.5312V69.2715H25.1279V66.6748Z" fill="black"/>
<path d="M27.7246 1.7583H25.1279V4.35497H27.7246V1.7583Z" fill="black"/>
<path d="M27.7246 4.35498H25.1279V6.95165H27.7246V4.35498Z" fill="black"/>
<path d="M27.7246 12.145H25.1279V14.7417H27.7246V12.145Z" fill="black"/>
<path d="M27.7246 19.9351H25.1279V22.5317H27.7246V19.9351Z" fill="black"/>
<path d="M27.7246 25.1284H25.1279V27.7251H27.7246V25.1284Z" fill="black"/>
<path d="M27.7246 48.4985H25.1279V51.0952H27.7246V48.4985Z" fill="black"/>
<path d="M27.7246 56.2881H25.1279V58.8848H27.7246V56.2881Z" fill="black"/>
<path d="M27.7246 58.8848H25.1279V61.4814H27.7246V58.8848Z" fill="black"/>
<path d="M27.7246 61.4814H25.1279V64.0781H27.7246V61.4814Z" fill="black"/>
<path d="M27.7246 66.6748H25.1279V69.2715H27.7246V66.6748Z" fill="black"/>
<path d="M27.7246 69.2715H25.1279V71.8682H27.7246V69.2715Z" fill="black"/>
<path d="M27.7246 71.8682H25.1279V74.4648H27.7246V71.8682Z" fill="black"/>
<path d="M27.7246 74.4648H25.1279V77.0615H27.7246V74.4648Z" fill="black"/>
<path d="M30.3213 9.54834H27.7246V12.145H30.3213V9.54834Z" fill="black"/>
<path d="M30.3213 12.145H27.7246V14.7417H30.3213V12.145Z" fill="black"/>
<path d="M30.3213 17.3384H27.7246V19.935H30.3213V17.3384Z" fill="black"/>
<path d="M30.3213 25.1284H27.7246V27.7251H30.3213V25.1284Z" fill="black"/>
<path d="M30.3213 30.3218H27.7246V32.9184H30.3213V30.3218Z" fill="black"/>
<path d="M30.3213 32.9185H27.7246V35.5151H30.3213V32.9185Z" fill="black"/>
<path d="M30.3213 40.7085H27.7246V43.3052H30.3213V40.7085Z" fill="black"/>
<path d="M30.3213 43.3052H27.7246V45.9018H30.3213V43.3052Z" fill="black"/>
<path d="M30.3213 45.9019H27.7246V48.4985H30.3213V45.9019Z" fill="black"/>
<path d="M30.3213 48.4985H27.7246V51.0952H30.3213V48.4985Z" fill="black"/>
<path d="M30.3213 51.0947H27.7246V53.6914H30.3213V51.0947Z" fill="black"/>
<path d="M30.3213 56.2881H27.7246V58.8848H30.3213V56.2881Z" fill="black"/>
<path d="M30.3213 74.4648H27.7246V77.0615H30.3213V74.4648Z" fill="black"/>
<path d="M32.918 4.35498H30.3213V6.95165H32.918V4.35498Z" fill="black"/>
<path d="M32.918 6.95166H30.3213V9.54833H32.918V6.95166Z" fill="black"/>
<path d="M32.918 9.54834H30.3213V12.145H32.918V9.54834Z" fill="black"/>
<path d="M32.918 19.9351H30.3213V22.5317H32.918V19.9351Z" fill="black"/>
<path d="M32.918 22.5317H30.3213V25.1284H32.918V22.5317Z" fill="black"/>
<path d="M32.918 27.7251H30.3213V30.3218H32.918V27.7251Z" fill="black"/>
<path d="M32.918 35.5151H30.3213V38.1118H32.918V35.5151Z" fill="black"/>
<path d="M32.918 40.7085H30.3213V43.3052H32.918V40.7085Z" fill="black"/>
<path d="M32.918 48.4985H30.3213V51.0952H32.918V48.4985Z" fill="black"/>
<path d="M32.918 53.6914H30.3213V56.2881H32.918V53.6914Z" fill="black"/>
<path d="M32.918 58.8848H30.3213V61.4814H32.918V58.8848Z" fill="black"/>
<path d="M32.918 61.4814H30.3213V64.0781H32.918V61.4814Z" fill="black"/>
<path d="M32.918 66.6748H30.3213V69.2715H32.918V66.6748Z" fill="black"/>
<path d="M35.5146 9.54834H32.918V12.145H35.5146V9.54834Z" fill="black"/>
<path d="M35.5146 14.7417H32.918V17.3384H35.5146V14.7417Z" fill="black"/>
<path d="M35.5146 17.3384H32.918V19.935H35.5146V17.3384Z" fill="black"/>
<path d="M35.5146 22.5317H32.918V25.1284H35.5146V22.5317Z" fill="black"/>
<path d="M35.5146 25.1284H32.918V27.7251H35.5146V25.1284Z" fill="black"/>
<path d="M35.5146 27.7251H32.918V30.3218H35.5146V27.7251Z" fill="black"/>
<path d="M35.5146 30.3218H32.918V32.9184H35.5146V30.3218Z" fill="black"/>
<path d="M35.5146 35.5151H32.918V38.1118H35.5146V35.5151Z" fill="black"/>
<path d="M35.5146 38.1118H32.918V40.7085H35.5146V38.1118Z" fill="black"/>
<path d="M35.5146 40.7085H32.918V43.3052H35.5146V40.7085Z" fill="black"/>
<path d="M35.5146 51.0947H32.918V53.6914H35.5146V51.0947Z" fill="black"/>
<path d="M35.5146 53.6914H32.918V56.2881H35.5146V53.6914Z" fill="black"/>
<path d="M35.5146 56.2881H32.918V58.8848H35.5146V56.2881Z" fill="black"/>
<path d="M35.5146 58.8848H32.918V61.4814H35.5146V58.8848Z" fill="black"/>
<path d="M35.5146 66.6748H32.918V69.2715H35.5146V66.6748Z" fill="black"/>
<path d="M35.5146 69.2715H32.918V71.8682H35.5146V69.2715Z" fill="black"/>
<path d="M35.5146 71.8682H32.918V74.4648H35.5146V71.8682Z" fill="black"/>
<path d="M38.1113 1.7583H35.5146V4.35497H38.1113V1.7583Z" fill="black"/>
<path d="M38.1113 6.95166H35.5146V9.54833H38.1113V6.95166Z" fill="black"/>
<path d="M38.1113 14.7417H35.5146V17.3384H38.1113V14.7417Z" fill="black"/>
<path d="M38.1113 25.1284H35.5146V27.7251H38.1113V25.1284Z" fill="black"/>
<path d="M38.1113 32.9185H35.5146V35.5151H38.1113V32.9185Z" fill="black"/>
<path d="M38.1113 38.1118H35.5146V40.7085H38.1113V38.1118Z" fill="black"/>
<path d="M38.1113 43.3052H35.5146V45.9018H38.1113V43.3052Z" fill="black"/>
<path d="M38.1113 45.9019H35.5146V48.4985H38.1113V45.9019Z" fill="black"/>
<path d="M38.1113 48.4985H35.5146V51.0952H38.1113V48.4985Z" fill="black"/>
<path d="M38.1113 51.0947H35.5146V53.6914H38.1113V51.0947Z" fill="black"/>
<path d="M38.1113 53.6914H35.5146V56.2881H38.1113V53.6914Z" fill="black"/>
<path d="M38.1113 58.8848H35.5146V61.4814H38.1113V58.8848Z" fill="black"/>
<path d="M38.1113 66.6748H35.5146V69.2715H38.1113V66.6748Z" fill="black"/>
<path d="M38.1113 74.4648H35.5146V77.0615H38.1113V74.4648Z" fill="black"/>
<path d="M40.708 1.7583H38.1113V4.35497H40.708V1.7583Z" fill="black"/>
<path d="M40.708 4.35498H38.1113V6.95165H40.708V4.35498Z" fill="black"/>
<path d="M40.708 12.145H38.1113V14.7417H40.708V12.145Z" fill="black"/>
<path d="M40.708 14.7417H38.1113V17.3384H40.708V14.7417Z" fill="black"/>
<path d="M40.708 17.3384H38.1113V19.935H40.708V17.3384Z" fill="black"/>
<path d="M40.708 25.1284H38.1113V27.7251H40.708V25.1284Z" fill="black"/>
<path d="M40.708 27.7251H38.1113V30.3218H40.708V27.7251Z" fill="black"/>
<path d="M40.708 32.9185H38.1113V35.5151H40.708V32.9185Z" fill="black"/>
<path d="M40.708 35.5151H38.1113V38.1118H40.708V35.5151Z" fill="black"/>
<path d="M40.708 40.7085H38.1113V43.3052H40.708V40.7085Z" fill="black"/>
<path d="M40.708 43.3052H38.1113V45.9018H40.708V43.3052Z" fill="black"/>
<path d="M40.708 51.0947H38.1113V53.6914H40.708V51.0947Z" fill="black"/>
<path d="M40.708 56.2881H38.1113V58.8848H40.708V56.2881Z" fill="black"/>
<path d="M40.708 58.8848H38.1113V61.4814H40.708V58.8848Z" fill="black"/>
<path d="M40.708 66.6748H38.1113V69.2715H40.708V66.6748Z" fill="black"/>
<path d="M40.708 69.2715H38.1113V71.8682H40.708V69.2715Z" fill="black"/>
<path d="M40.708 71.8682H38.1113V74.4648H40.708V71.8682Z" fill="black"/>
<path d="M40.708 74.4648H38.1113V77.0615H40.708V74.4648Z" fill="black"/>
<path d="M43.3047 4.35498H40.708V6.95165H43.3047V4.35498Z" fill="black"/>
<path d="M43.3047 9.54834H40.708V12.145H43.3047V9.54834Z" fill="black"/>
<path d="M43.3047 19.9351H40.708V22.5317H43.3047V19.9351Z" fill="black"/>
<path d="M43.3047 22.5317H40.708V25.1284H43.3047V22.5317Z" fill="black"/>
<path d="M43.3047 25.1284H40.708V27.7251H43.3047V25.1284Z" fill="black"/>
<path d="M43.3047 27.7251H40.708V30.3218H43.3047V27.7251Z" fill="black"/>
<path d="M43.3047 38.1118H40.708V40.7085H43.3047V38.1118Z" fill="black"/>
<path d="M43.3047 40.7085H40.708V43.3052H43.3047V40.7085Z" fill="black"/>
<path d="M43.3047 45.9019H40.708V48.4985H43.3047V45.9019Z" fill="black"/>
<path d="M43.3047 53.6914H40.708V56.2881H43.3047V53.6914Z" fill="black"/>
<path d="M43.3047 56.2881H40.708V58.8848H43.3047V56.2881Z" fill="black"/>
<path d="M43.3047 58.8848H40.708V61.4814H43.3047V58.8848Z" fill="black"/>
<path d="M43.3047 66.6748H40.708V69.2715H43.3047V66.6748Z" fill="black"/>
<path d="M43.3047 71.8682H40.708V74.4648H43.3047V71.8682Z" fill="black"/>
<path d="M45.9014 1.7583H43.3047V4.35497H45.9014V1.7583Z" fill="black"/>
<path d="M45.9014 6.95166H43.3047V9.54833H45.9014V6.95166Z" fill="black"/>
<path d="M45.9014 17.3384H43.3047V19.935H45.9014V17.3384Z" fill="black"/>
<path d="M45.9014 22.5317H43.3047V25.1284H45.9014V22.5317Z" fill="black"/>
<path d="M45.9014 35.5151H43.3047V38.1118H45.9014V35.5151Z" fill="black"/>
<path d="M45.9014 45.9019H43.3047V48.4985H45.9014V45.9019Z" fill="black"/>
<path d="M45.9014 58.8848H43.3047V61.4814H45.9014V58.8848Z" fill="black"/>
<path d="M45.9014 61.4814H43.3047V64.0781H45.9014V61.4814Z" fill="black"/>
<path d="M45.9014 64.0781H43.3047V66.6748H45.9014V64.0781Z" fill="black"/>
<path d="M48.498 4.35498H45.9014V6.95165H48.498V4.35498Z" fill="black"/>
<path d="M48.498 12.145H45.9014V14.7417H48.498V12.145Z" fill="black"/>
<path d="M48.498 27.7251H45.9014V30.3218H48.498V27.7251Z" fill="black"/>
<path d="M48.498 30.3218H45.9014V32.9184H48.498V30.3218Z" fill="black"/>
<path d="M48.498 32.9185H45.9014V35.5151H48.498V32.9185Z" fill="black"/>
<path d="M48.498 38.1118H45.9014V40.7085H48.498V38.1118Z" fill="black"/>
<path d="M48.498 51.0947H45.9014V53.6914H48.498V51.0947Z" fill="black"/>
<path d="M48.498 56.2881H45.9014V58.8848H48.498V56.2881Z" fill="black"/>
<path d="M48.498 58.8848H45.9014V61.4814H48.498V58.8848Z" fill="black"/>
<path d="M48.498 61.4814H45.9014V64.0781H48.498V61.4814Z" fill="black"/>
<path d="M48.498 66.6748H45.9014V69.2715H48.498V66.6748Z" fill="black"/>
<path d="M48.498 69.2715H45.9014V71.8682H48.498V69.2715Z" fill="black"/>
<path d="M48.498 74.4648H45.9014V77.0615H48.498V74.4648Z" fill="black"/>
<path d="M51.0947 1.7583H48.498V4.35497H51.0947V1.7583Z" fill="black"/>
<path d="M51.0947 4.35498H48.498V6.95165H51.0947V4.35498Z" fill="black"/>
<path d="M51.0947 6.95166H48.498V9.54833H51.0947V6.95166Z" fill="black"/>
<path d="M51.0947 9.54834H48.498V12.145H51.0947V9.54834Z" fill="black"/>
<path d="M51.0947 12.145H48.498V14.7417H51.0947V12.145Z" fill="black"/>
<path d="M51.0947 14.7417H48.498V17.3384H51.0947V14.7417Z" fill="black"/>
<path d="M51.0947 17.3384H48.498V19.935H51.0947V17.3384Z" fill="black"/>
<path d="M51.0947 22.5317H48.498V25.1284H51.0947V22.5317Z" fill="black"/>
<path d="M51.0947 30.3218H48.498V32.9184H51.0947V30.3218Z" fill="black"/>
<path d="M51.0947 38.1118H48.498V40.7085H51.0947V38.1118Z" fill="black"/>
<path d="M51.0947 40.7085H48.498V43.3052H51.0947V40.7085Z" fill="black"/>
<path d="M51.0947 48.4985H48.498V51.0952H51.0947V48.4985Z" fill="black"/>
<path d="M51.0947 51.0947H48.498V53.6914H51.0947V51.0947Z" fill="black"/>
<path d="M51.0947 53.6914H48.498V56.2881H51.0947V53.6914Z" fill="black"/>
<path d="M51.0947 64.0781H48.498V66.6748H51.0947V64.0781Z" fill="black"/>
<path d="M51.0947 66.6748H48.498V69.2715H51.0947V66.6748Z" fill="black"/>
<path d="M51.0947 69.2715H48.498V71.8682H51.0947V69.2715Z" fill="black"/>
<path d="M51.0947 74.4648H48.498V77.0615H51.0947V74.4648Z" fill="black"/>
<path d="M53.6914 6.95166H51.0947V9.54833H53.6914V6.95166Z" fill="black"/>
<path d="M53.6914 9.54834H51.0947V12.145H53.6914V9.54834Z" fill="black"/>
<path d="M53.6914 14.7417H51.0947V17.3384H53.6914V14.7417Z" fill="black"/>
<path d="M53.6914 25.1284H51.0947V27.7251H53.6914V25.1284Z" fill="black"/>
<path d="M53.6914 27.7251H51.0947V30.3218H53.6914V27.7251Z" fill="black"/>
<path d="M53.6914 30.3218H51.0947V32.9184H53.6914V30.3218Z" fill="black"/>
<path d="M53.6914 35.5151H51.0947V38.1118H53.6914V35.5151Z" fill="black"/>
<path d="M53.6914 51.0947H51.0947V53.6914H53.6914V51.0947Z" fill="black"/>
<path d="M53.6914 56.2881H51.0947V58.8848H53.6914V56.2881Z" fill="black"/>
<path d="M53.6914 58.8848H51.0947V61.4814H53.6914V58.8848Z" fill="black"/>
<path d="M53.6914 61.4814H51.0947V64.0781H53.6914V61.4814Z" fill="black"/>
<path d="M53.6914 66.6748H51.0947V69.2715H53.6914V66.6748Z" fill="black"/>
<path d="M53.6914 74.4648H51.0947V77.0615H53.6914V74.4648Z" fill="black"/>
<path d="M56.2881 1.7583H53.6914V4.35497H56.2881V1.7583Z" fill="black"/>
<path d="M56.2881 4.35498H53.6914V6.95165H56.2881V4.35498Z" fill="black"/>
<path d="M56.2881 9.54834H53.6914V12.145H56.2881V9.54834Z" fill="black"/>
<path d="M56.2881 17.3384H53.6914V19.935H56.2881V17.3384Z" fill="black"/>
<path d="M56.2881 19.9351H53.6914V22.5317H56.2881V19.9351Z" fill="black"/>
<path d="M56.2881 25.1284H53.6914V27.7251H56.2881V25.1284Z" fill="black"/>
<path d="M56.2881 32.9185H53.6914V35.5151H56.2881V32.9185Z" fill="black"/>
<path d="M56.2881 35.5151H53.6914V38.1118H56.2881V35.5151Z" fill="black"/>
<path d="M56.2881 40.7085H53.6914V43.3052H56.2881V40.7085Z" fill="black"/>
<path d="M56.2881 43.3052H53.6914V45.9018H56.2881V43.3052Z" fill="black"/>
<path d="M56.2881 48.4985H53.6914V51.0952H56.2881V48.4985Z" fill="black"/>
<path d="M56.2881 51.0947H53.6914V53.6914H56.2881V51.0947Z" fill="black"/>
<path d="M56.2881 53.6914H53.6914V56.2881H56.2881V53.6914Z" fill="black"/>
<path d="M56.2881 56.2881H53.6914V58.8848H56.2881V56.2881Z" fill="black"/>
<path d="M56.2881 58.8848H53.6914V61.4814H56.2881V58.8848Z" fill="black"/>
<path d="M56.2881 61.4814H53.6914V64.0781H56.2881V61.4814Z" fill="black"/>
<path d="M56.2881 64.0781H53.6914V66.6748H56.2881V64.0781Z" fill="black"/>
<path d="M56.2881 71.8682H53.6914V74.4648H56.2881V71.8682Z" fill="black"/>
<path d="M58.8848 22.5317H56.2881V25.1284H58.8848V22.5317Z" fill="black"/>
<path d="M58.8848 25.1284H56.2881V27.7251H58.8848V25.1284Z" fill="black"/>
<path d="M58.8848 27.7251H56.2881V30.3218H58.8848V27.7251Z" fill="black"/>
<path d="M58.8848 40.7085H56.2881V43.3052H58.8848V40.7085Z" fill="black"/>
<path d="M58.8848 43.3052H56.2881V45.9018H58.8848V43.3052Z" fill="black"/>
<path d="M58.8848 53.6914H56.2881V56.2881H58.8848V53.6914Z" fill="black"/>
<path d="M58.8848 64.0781H56.2881V66.6748H58.8848V64.0781Z" fill="black"/>
<path d="M58.8848 66.6748H56.2881V69.2715H58.8848V66.6748Z" fill="black"/>
<path d="M58.8848 74.4648H56.2881V77.0615H58.8848V74.4648Z" fill="black"/>
<path d="M61.4814 27.7251H58.8848V30.3218H61.4814V27.7251Z" fill="black"/>
<path d="M61.4814 30.3218H58.8848V32.9184H61.4814V30.3218Z" fill="black"/>
<path d="M61.4814 38.1118H58.8848V40.7085H61.4814V38.1118Z" fill="black"/>
<path d="M61.4814 40.7085H58.8848V43.3052H61.4814V40.7085Z" fill="black"/>
<path d="M61.4814 45.9019H58.8848V48.4985H61.4814V45.9019Z" fill="black"/>
<path d="M61.4814 48.4985H58.8848V51.0952H61.4814V48.4985Z" fill="black"/>
<path d="M61.4814 53.6914H58.8848V56.2881H61.4814V53.6914Z" fill="black"/>
<path d="M61.4814 58.8848H58.8848V61.4814H61.4814V58.8848Z" fill="black"/>
<path d="M61.4814 64.0781H58.8848V66.6748H61.4814V64.0781Z" fill="black"/>
<path d="M61.4814 66.6748H58.8848V69.2715H61.4814V66.6748Z" fill="black"/>
<path d="M61.4814 69.2715H58.8848V71.8682H61.4814V69.2715Z" fill="black"/>
<path d="M61.4814 74.4648H58.8848V77.0615H61.4814V74.4648Z" fill="black"/>
<path d="M64.0781 25.1284H61.4814V27.7251H64.0781V25.1284Z" fill="black"/>
<path d="M64.0781 32.9185H61.4814V35.5151H64.0781V32.9185Z" fill="black"/>
<path d="M64.0781 38.1118H61.4814V40.7085H64.0781V38.1118Z" fill="black"/>
<path d="M64.0781 40.7085H61.4814V43.3052H64.0781V40.7085Z" fill="black"/>
<path d="M64.0781 48.4985H61.4814V51.0952H64.0781V48.4985Z" fill="black"/>
<path d="M64.0781 51.0947H61.4814V53.6914H64.0781V51.0947Z" fill="black"/>
<path d="M64.0781 53.6914H61.4814V56.2881H64.0781V53.6914Z" fill="black"/>
<path d="M64.0781 64.0781H61.4814V66.6748H64.0781V64.0781Z" fill="black"/>
<path d="M64.0781 66.6748H61.4814V69.2715H64.0781V66.6748Z" fill="black"/>
<path d="M64.0781 71.8682H61.4814V74.4648H64.0781V71.8682Z" fill="black"/>
<path d="M64.0781 74.4648H61.4814V77.0615H64.0781V74.4648Z" fill="black"/>
<path d="M66.6748 27.7251H64.0781V30.3218H66.6748V27.7251Z" fill="black"/>
<path d="M66.6748 32.9185H64.0781V35.5151H66.6748V32.9185Z" fill="black"/>
<path d="M66.6748 35.5151H64.0781V38.1118H66.6748V35.5151Z" fill="black"/>
<path d="M66.6748 38.1118H64.0781V40.7085H66.6748V38.1118Z" fill="black"/>
<path d="M66.6748 40.7085H64.0781V43.3052H66.6748V40.7085Z" fill="black"/>
<path d="M66.6748 43.3052H64.0781V45.9018H66.6748V43.3052Z" fill="black"/>
<path d="M66.6748 45.9019H64.0781V48.4985H66.6748V45.9019Z" fill="black"/>
<path d="M66.6748 48.4985H64.0781V51.0952H66.6748V48.4985Z" fill="black"/>
<path d="M66.6748 51.0947H64.0781V53.6914H66.6748V51.0947Z" fill="black"/>
<path d="M66.6748 53.6914H64.0781V56.2881H66.6748V53.6914Z" fill="black"/>
<path d="M66.6748 56.2881H64.0781V58.8848H66.6748V56.2881Z" fill="black"/>
<path d="M66.6748 58.8848H64.0781V61.4814H66.6748V58.8848Z" fill="black"/>
<path d="M66.6748 61.4814H64.0781V64.0781H66.6748V61.4814Z" fill="black"/>
<path d="M66.6748 64.0781H64.0781V66.6748H66.6748V64.0781Z" fill="black"/>
<path d="M69.2715 30.3218H66.6748V32.9184H69.2715V30.3218Z" fill="black"/>
<path d="M69.2715 43.3052H66.6748V45.9018H69.2715V43.3052Z" fill="black"/>
<path d="M69.2715 45.9019H66.6748V48.4985H69.2715V45.9019Z" fill="black"/>
<path d="M69.2715 48.4985H66.6748V51.0952H69.2715V48.4985Z" fill="black"/>
<path d="M69.2715 51.0947H66.6748V53.6914H69.2715V51.0947Z" fill="black"/>
<path d="M69.2715 53.6914H66.6748V56.2881H69.2715V53.6914Z" fill="black"/>
<path d="M69.2715 61.4814H66.6748V64.0781H69.2715V61.4814Z" fill="black"/>
<path d="M69.2715 64.0781H66.6748V66.6748H69.2715V64.0781Z" fill="black"/>
<path d="M69.2715 69.2715H66.6748V71.8682H69.2715V69.2715Z" fill="black"/>
<path d="M69.2715 71.8682H66.6748V74.4648H69.2715V71.8682Z" fill="black"/>
<path d="M71.8682 22.5317H69.2715V25.1284H71.8682V22.5317Z" fill="black"/>
<path d="M71.8682 27.7251H69.2715V30.3218H71.8682V27.7251Z" fill="black"/>
<path d="M71.8682 32.9185H69.2715V35.5151H71.8682V32.9185Z" fill="black"/>
<path d="M71.8682 43.3052H69.2715V45.9018H71.8682V43.3052Z" fill="black"/>
<path d="M71.8682 56.2881H69.2715V58.8848H71.8682V56.2881Z" fill="black"/>
<path d="M71.8682 64.0781H69.2715V66.6748H71.8682V64.0781Z" fill="black"/>
<path d="M71.8682 66.6748H69.2715V69.2715H71.8682V66.6748Z" fill="black"/>
<path d="M71.8682 69.2715H69.2715V71.8682H71.8682V69.2715Z" fill="black"/>
<path d="M71.8682 71.8682H69.2715V74.4648H71.8682V71.8682Z" fill="black"/>
<path d="M71.8682 74.4648H69.2715V77.0615H71.8682V74.4648Z" fill="black"/>
<path d="M74.4648 22.5317H71.8682V25.1284H74.4648V22.5317Z" fill="black"/>
<path d="M74.4648 27.7251H71.8682V30.3218H74.4648V27.7251Z" fill="black"/>
<path d="M74.4648 30.3218H71.8682V32.9184H74.4648V30.3218Z" fill="black"/>
<path d="M74.4648 38.1118H71.8682V40.7085H74.4648V38.1118Z" fill="black"/>
<path d="M74.4648 40.7085H71.8682V43.3052H74.4648V40.7085Z" fill="black"/>
<path d="M74.4648 43.3052H71.8682V45.9018H74.4648V43.3052Z" fill="black"/>
<path d="M74.4648 51.0947H71.8682V53.6914H74.4648V51.0947Z" fill="black"/>
<path d="M74.4648 53.6914H71.8682V56.2881H74.4648V53.6914Z" fill="black"/>
<path d="M74.4648 66.6748H71.8682V69.2715H74.4648V66.6748Z" fill="black"/>
<path d="M77.0615 35.5151H74.4648V38.1118H77.0615V35.5151Z" fill="black"/>
<path d="M77.0615 43.3052H74.4648V45.9018H77.0615V43.3052Z" fill="black"/>
<path d="M77.0615 53.6914H74.4648V56.2881H77.0615V53.6914Z" fill="black"/>
<path d="M77.0615 56.2881H74.4648V58.8848H77.0615V56.2881Z" fill="black"/>
<path d="M77.0615 58.8848H74.4648V61.4814H77.0615V58.8848Z" fill="black"/>
<path d="M77.0615 61.4814H74.4648V64.0781H77.0615V61.4814Z" fill="black"/>
<path d="M77.0615 64.0781H74.4648V66.6748H77.0615V64.0781Z" fill="black"/>
<path d="M77.0615 74.4648H74.4648V77.0615H77.0615V74.4648Z" fill="black"/>
<path d="M4.35448 1.7583H1.75781V4.35497H4.35448V1.7583Z" fill="black"/>
<path d="M4.35448 4.35498H1.75781V6.95165H4.35448V4.35498Z" fill="black"/>
<path d="M4.35448 6.95166H1.75781V9.54833H4.35448V6.95166Z" fill="black"/>
<path d="M4.35448 9.54834H1.75781V12.145H4.35448V9.54834Z" fill="black"/>
<path d="M4.35448 12.145H1.75781V14.7417H4.35448V12.145Z" fill="black"/>
<path d="M4.35448 14.7417H1.75781V17.3384H4.35448V14.7417Z" fill="black"/>
<path d="M4.35448 17.3384H1.75781V19.935H4.35448V17.3384Z" fill="black"/>
<path d="M6.95116 1.7583H4.35449V4.35497H6.95116V1.7583Z" fill="black"/>
<path d="M6.95116 17.3384H4.35449V19.935H6.95116V17.3384Z" fill="black"/>
<path d="M9.54784 1.7583H6.95117V4.35497H9.54784V1.7583Z" fill="black"/>
<path d="M9.54784 17.3384H6.95117V19.935H9.54784V17.3384Z" fill="black"/>
<path d="M12.1445 1.7583H9.54785V4.35497H12.1445V1.7583Z" fill="black"/>
<path d="M12.1445 17.3384H9.54785V19.935H12.1445V17.3384Z" fill="black"/>
<path d="M14.7412 1.7583H12.1445V4.35497H14.7412V1.7583Z" fill="black"/>
<path d="M14.7412 17.3384H12.1445V19.935H14.7412V17.3384Z" fill="black"/>
<path d="M17.3379 1.7583H14.7412V4.35497H17.3379V1.7583Z" fill="black"/>
<path d="M17.3379 17.3384H14.7412V19.935H17.3379V17.3384Z" fill="black"/>
<path d="M19.9346 1.7583H17.3379V4.35497H19.9346V1.7583Z" fill="black"/>
<path d="M19.9346 4.35498H17.3379V6.95165H19.9346V4.35498Z" fill="black"/>
<path d="M19.9346 6.95166H17.3379V9.54833H19.9346V6.95166Z" fill="black"/>
<path d="M19.9346 9.54834H17.3379V12.145H19.9346V9.54834Z" fill="black"/>
<path d="M19.9346 12.145H17.3379V14.7417H19.9346V12.145Z" fill="black"/>
<path d="M19.9346 14.7417H17.3379V17.3384H19.9346V14.7417Z" fill="black"/>
<path d="M19.9346 17.3384H17.3379V19.935H19.9346V17.3384Z" fill="black"/>
<path d="M9.54784 6.95166H6.95117V9.54833H9.54784V6.95166Z" fill="black"/>
<path d="M9.54784 9.54834H6.95117V12.145H9.54784V9.54834Z" fill="black"/>
<path d="M9.54784 12.145H6.95117V14.7417H9.54784V12.145Z" fill="black"/>
<path d="M12.1445 6.95166H9.54785V9.54833H12.1445V6.95166Z" fill="black"/>
<path d="M12.1445 9.54834H9.54785V12.145H12.1445V9.54834Z" fill="black"/>
<path d="M12.1445 12.145H9.54785V14.7417H12.1445V12.145Z" fill="black"/>
<path d="M14.7412 6.95166H12.1445V9.54833H14.7412V6.95166Z" fill="black"/>
<path d="M14.7412 9.54834H12.1445V12.145H14.7412V9.54834Z" fill="black"/>
<path d="M14.7412 12.145H12.1445V14.7417H14.7412V12.145Z" fill="black"/>
<path d="M61.4814 1.7583H58.8848V4.35497H61.4814V1.7583Z" fill="black"/>
<path d="M61.4814 4.35498H58.8848V6.95165H61.4814V4.35498Z" fill="black"/>
<path d="M61.4814 6.95166H58.8848V9.54833H61.4814V6.95166Z" fill="black"/>
<path d="M61.4814 9.54834H58.8848V12.145H61.4814V9.54834Z" fill="black"/>
<path d="M61.4814 12.145H58.8848V14.7417H61.4814V12.145Z" fill="black"/>
<path d="M61.4814 14.7417H58.8848V17.3384H61.4814V14.7417Z" fill="black"/>
<path d="M61.4814 17.3384H58.8848V19.935H61.4814V17.3384Z" fill="black"/>
<path d="M64.0781 1.7583H61.4814V4.35497H64.0781V1.7583Z" fill="black"/>
<path d="M64.0781 17.3384H61.4814V19.935H64.0781V17.3384Z" fill="black"/>
<path d="M66.6748 1.7583H64.0781V4.35497H66.6748V1.7583Z" fill="black"/>
<path d="M66.6748 17.3384H64.0781V19.935H66.6748V17.3384Z" fill="black"/>
<path d="M69.2715 1.7583H66.6748V4.35497H69.2715V1.7583Z" fill="black"/>
<path d="M69.2715 17.3384H66.6748V19.935H69.2715V17.3384Z" fill="black"/>
<path d="M71.8682 1.7583H69.2715V4.35497H71.8682V1.7583Z" fill="black"/>
<path d="M71.8682 17.3384H69.2715V19.935H71.8682V17.3384Z" fill="black"/>
<path d="M74.4648 1.7583H71.8682V4.35497H74.4648V1.7583Z" fill="black"/>
<path d="M74.4648 17.3384H71.8682V19.935H74.4648V17.3384Z" fill="black"/>
<path d="M77.0615 1.7583H74.4648V4.35497H77.0615V1.7583Z" fill="black"/>
<path d="M77.0615 4.35498H74.4648V6.95165H77.0615V4.35498Z" fill="black"/>
<path d="M77.0615 6.95166H74.4648V9.54833H77.0615V6.95166Z" fill="black"/>
<path d="M77.0615 9.54834H74.4648V12.145H77.0615V9.54834Z" fill="black"/>
<path d="M77.0615 12.145H74.4648V14.7417H77.0615V12.145Z" fill="black"/>
<path d="M77.0615 14.7417H74.4648V17.3384H77.0615V14.7417Z" fill="black"/>
<path d="M77.0615 17.3384H74.4648V19.935H77.0615V17.3384Z" fill="black"/>
<path d="M66.6748 6.95166H64.0781V9.54833H66.6748V6.95166Z" fill="black"/>
<path d="M66.6748 9.54834H64.0781V12.145H66.6748V9.54834Z" fill="black"/>
<path d="M66.6748 12.145H64.0781V14.7417H66.6748V12.145Z" fill="black"/>
<path d="M69.2715 6.95166H66.6748V9.54833H69.2715V6.95166Z" fill="black"/>
<path d="M69.2715 9.54834H66.6748V12.145H69.2715V9.54834Z" fill="black"/>
<path d="M69.2715 12.145H66.6748V14.7417H69.2715V12.145Z" fill="black"/>
<path d="M71.8682 6.95166H69.2715V9.54833H71.8682V6.95166Z" fill="black"/>
<path d="M71.8682 9.54834H69.2715V12.145H71.8682V9.54834Z" fill="black"/>
<path d="M71.8682 12.145H69.2715V14.7417H71.8682V12.145Z" fill="black"/>
<path d="M4.35448 58.8848H1.75781V61.4814H4.35448V58.8848Z" fill="black"/>
<path d="M4.35448 61.4814H1.75781V64.0781H4.35448V61.4814Z" fill="black"/>
<path d="M4.35448 64.0781H1.75781V66.6748H4.35448V64.0781Z" fill="black"/>
<path d="M4.35448 66.6748H1.75781V69.2715H4.35448V66.6748Z" fill="black"/>
<path d="M4.35448 69.2715H1.75781V71.8682H4.35448V69.2715Z" fill="black"/>
<path d="M4.35448 71.8682H1.75781V74.4648H4.35448V71.8682Z" fill="black"/>
<path d="M4.35448 74.4648H1.75781V77.0615H4.35448V74.4648Z" fill="black"/>
<path d="M6.95116 58.8848H4.35449V61.4814H6.95116V58.8848Z" fill="black"/>
<path d="M6.95116 74.4648H4.35449V77.0615H6.95116V74.4648Z" fill="black"/>
<path d="M9.54784 58.8848H6.95117V61.4814H9.54784V58.8848Z" fill="black"/>
<path d="M9.54784 74.4648H6.95117V77.0615H9.54784V74.4648Z" fill="black"/>
<path d="M12.1445 58.8848H9.54785V61.4814H12.1445V58.8848Z" fill="black"/>
<path d="M12.1445 74.4648H9.54785V77.0615H12.1445V74.4648Z" fill="black"/>
<path d="M14.7412 58.8848H12.1445V61.4814H14.7412V58.8848Z" fill="black"/>
<path d="M14.7412 74.4648H12.1445V77.0615H14.7412V74.4648Z" fill="black"/>
<path d="M17.3379 58.8848H14.7412V61.4814H17.3379V58.8848Z" fill="black"/>
<path d="M17.3379 74.4648H14.7412V77.0615H17.3379V74.4648Z" fill="black"/>
<path d="M19.9346 58.8848H17.3379V61.4814H19.9346V58.8848Z" fill="black"/>
<path d="M19.9346 61.4814H17.3379V64.0781H19.9346V61.4814Z" fill="black"/>
<path d="M19.9346 64.0781H17.3379V66.6748H19.9346V64.0781Z" fill="black"/>
<path d="M19.9346 66.6748H17.3379V69.2715H19.9346V66.6748Z" fill="black"/>
<path d="M19.9346 69.2715H17.3379V71.8682H19.9346V69.2715Z" fill="black"/>
<path d="M19.9346 71.8682H17.3379V74.4648H19.9346V71.8682Z" fill="black"/>
<path d="M19.9346 74.4648H17.3379V77.0615H19.9346V74.4648Z" fill="black"/>
<path d="M9.54784 64.0781H6.95117V66.6748H9.54784V64.0781Z" fill="black"/>
<path d="M9.54784 66.6748H6.95117V69.2715H9.54784V66.6748Z" fill="black"/>
<path d="M9.54784 69.2715H6.95117V71.8682H9.54784V69.2715Z" fill="black"/>
<path d="M12.1445 64.0781H9.54785V66.6748H12.1445V64.0781Z" fill="black"/>
<path d="M12.1445 66.6748H9.54785V69.2715H12.1445V66.6748Z" fill="black"/>
<path d="M12.1445 69.2715H9.54785V71.8682H12.1445V69.2715Z" fill="black"/>
<path d="M14.7412 64.0781H12.1445V66.6748H14.7412V64.0781Z" fill="black"/>
<path d="M14.7412 66.6748H12.1445V69.2715H14.7412V66.6748Z" fill="black"/>
<path d="M14.7412 69.2715H12.1445V71.8682H14.7412V69.2715Z" fill="black"/>
</svg>
