<svg width="82" height="82" viewBox="0 0 82 82" fill="none" xmlns="http://www.w3.org/2000/svg">
<path d="M6.35448 34.9182H3.75781V37.5149H6.35448V34.9182Z" fill="white"/>
<path d="M6.35448 45.3049H3.75781V47.9016H6.35448V45.3049Z" fill="white"/>
<path d="M6.35448 50.4983H3.75781V53.095H6.35448V50.4983Z" fill="white"/>
<path d="M6.35448 53.095H3.75781V55.6916H6.35448V53.095Z" fill="white"/>
<path d="M8.95116 32.3215H6.35449V34.9182H8.95116V32.3215Z" fill="white"/>
<path d="M8.95116 34.9182H6.35449V37.5149H8.95116V34.9182Z" fill="white"/>
<path d="M8.95116 45.3049H6.35449V47.9016H8.95116V45.3049Z" fill="white"/>
<path d="M8.95116 50.4983H6.35449V53.095H8.95116V50.4983Z" fill="white"/>
<path d="M8.95116 53.095H6.35449V55.6916H8.95116V53.095Z" fill="white"/>
<path d="M11.5478 27.1284H8.95117V29.7251H11.5478V27.1284Z" fill="white"/>
<path d="M11.5478 29.7249H8.95117V32.3215H11.5478V29.7249Z" fill="white"/>
<path d="M11.5478 37.5149H8.95117V40.1116H11.5478V37.5149Z" fill="white"/>
<path d="M11.5478 40.1116H8.95117V42.7082H11.5478V40.1116Z" fill="white"/>
<path d="M11.5478 42.7083H8.95117V45.3049H11.5478V42.7083Z" fill="white"/>
<path d="M11.5478 45.3049H8.95117V47.9016H11.5478V45.3049Z" fill="white"/>
<path d="M11.5478 47.9016H8.95117V50.4983H11.5478V47.9016Z" fill="white"/>
<path d="M14.1445 24.5317H11.5479V27.1284H14.1445V24.5317Z" fill="white"/>
<path d="M14.1445 27.1284H11.5479V29.7251H14.1445V27.1284Z" fill="white"/>
<path d="M14.1445 29.7249H11.5479V32.3215H14.1445V29.7249Z" fill="white"/>
<path d="M14.1445 32.3215H11.5479V34.9182H14.1445V32.3215Z" fill="white"/>
<path d="M14.1445 42.7083H11.5479V45.3049H14.1445V42.7083Z" fill="white"/>
<path d="M14.1445 45.3049H11.5479V47.9016H14.1445V45.3049Z" fill="white"/>
<path d="M14.1445 47.9016H11.5479V50.4983H14.1445V47.9016Z" fill="white"/>
<path d="M14.1445 50.4983H11.5479V53.095H14.1445V50.4983Z" fill="white"/>
<path d="M14.1445 53.095H11.5479V55.6916H14.1445V53.095Z" fill="white"/>
<path d="M16.7412 27.1284H14.1445V29.7251H16.7412V27.1284Z" fill="white"/>
<path d="M16.7412 32.3215H14.1445V34.9182H16.7412V32.3215Z" fill="white"/>
<path d="M16.7412 37.5149H14.1445V40.1116H16.7412V37.5149Z" fill="white"/>
<path d="M16.7412 42.7083H14.1445V45.3049H16.7412V42.7083Z" fill="white"/>
<path d="M16.7412 47.9016H14.1445V50.4983H16.7412V47.9016Z" fill="white"/>
<path d="M16.7412 55.6917H14.1445V58.2883H16.7412V55.6917Z" fill="white"/>
<path d="M19.3379 24.5317H16.7412V27.1284H19.3379V24.5317Z" fill="white"/>
<path d="M19.3379 29.7249H16.7412V32.3215H19.3379V29.7249Z" fill="white"/>
<path d="M19.3379 37.5149H16.7412V40.1116H19.3379V37.5149Z" fill="white"/>
<path d="M19.3379 45.3049H16.7412V47.9016H19.3379V45.3049Z" fill="white"/>
<path d="M19.3379 55.6917H16.7412V58.2883H19.3379V55.6917Z" fill="white"/>
<path d="M21.9346 24.5317H19.3379V27.1284H21.9346V24.5317Z" fill="white"/>
<path d="M21.9346 29.7249H19.3379V32.3215H21.9346V29.7249Z" fill="white"/>
<path d="M21.9346 34.9182H19.3379V37.5149H21.9346V34.9182Z" fill="white"/>
<path d="M21.9346 40.1116H19.3379V42.7082H21.9346V40.1116Z" fill="white"/>
<path d="M21.9346 45.3049H19.3379V47.9016H21.9346V45.3049Z" fill="white"/>
<path d="M21.9346 50.4983H19.3379V53.095H21.9346V50.4983Z" fill="white"/>
<path d="M21.9346 55.6917H19.3379V58.2883H21.9346V55.6917Z" fill="white"/>
<path d="M24.5312 24.5317H21.9346V27.1284H24.5312V24.5317Z" fill="white"/>
<path d="M24.5312 27.1284H21.9346V29.7251H24.5312V27.1284Z" fill="white"/>
<path d="M24.5312 32.3215H21.9346V34.9182H24.5312V32.3215Z" fill="white"/>
<path d="M24.5312 34.9182H21.9346V37.5149H24.5312V34.9182Z" fill="white"/>
<path d="M24.5312 37.5149H21.9346V40.1116H24.5312V37.5149Z" fill="white"/>
<path d="M24.5312 42.7083H21.9346V45.3049H24.5312V42.7083Z" fill="white"/>
<path d="M24.5312 45.3049H21.9346V47.9016H24.5312V45.3049Z" fill="white"/>
<path d="M24.5312 50.4983H21.9346V53.095H24.5312V50.4983Z" fill="white"/>
<path d="M24.5312 55.6917H21.9346V58.2883H24.5312V55.6917Z" fill="white"/>
<path d="M27.1279 6.35498H24.5312V8.95165H27.1279V6.35498Z" fill="white"/>
<path d="M27.1279 8.95166H24.5312V11.5483H27.1279V8.95166Z" fill="white"/>
<path d="M27.1279 19.3384H24.5312V21.935H27.1279V19.3384Z" fill="white"/>
<path d="M27.1279 27.1284H24.5312V29.7251H27.1279V27.1284Z" fill="white"/>
<path d="M27.1279 32.3215H24.5312V34.9182H27.1279V32.3215Z" fill="white"/>
<path d="M27.1279 37.5149H24.5312V40.1116H27.1279V37.5149Z" fill="white"/>
<path d="M27.1279 42.7083H24.5312V45.3049H27.1279V42.7083Z" fill="white"/>
<path d="M27.1279 45.3049H24.5312V47.9016H27.1279V45.3049Z" fill="white"/>
<path d="M27.1279 47.9016H24.5312V50.4983H27.1279V47.9016Z" fill="white"/>
<path d="M27.1279 50.4983H24.5312V53.095H27.1279V50.4983Z" fill="white"/>
<path d="M27.1279 53.095H24.5312V55.6916H27.1279V53.095Z" fill="white"/>
<path d="M27.1279 55.6917H24.5312V58.2883H27.1279V55.6917Z" fill="white"/>
<path d="M27.1279 60.885H24.5312V63.4817H27.1279V60.885Z" fill="white"/>
<path d="M27.1279 63.4817H24.5312V66.0784H27.1279V63.4817Z" fill="white"/>
<path d="M27.1279 68.675H24.5312V71.2717H27.1279V68.675Z" fill="white"/>
<path d="M29.7246 3.7583H27.1279V6.35497H29.7246V3.7583Z" fill="white"/>
<path d="M29.7246 6.35498H27.1279V8.95165H29.7246V6.35498Z" fill="white"/>
<path d="M29.7246 14.145H27.1279V16.7417H29.7246V14.145Z" fill="white"/>
<path d="M29.7246 21.9351H27.1279V24.5317H29.7246V21.9351Z" fill="white"/>
<path d="M29.7246 27.1284H27.1279V29.7251H29.7246V27.1284Z" fill="white"/>
<path d="M29.7246 50.4983H27.1279V53.095H29.7246V50.4983Z" fill="white"/>
<path d="M29.7246 58.2883H27.1279V60.885H29.7246V58.2883Z" fill="white"/>
<path d="M29.7246 60.885H27.1279V63.4817H29.7246V60.885Z" fill="white"/>
<path d="M29.7246 63.4817H27.1279V66.0784H29.7246V63.4817Z" fill="white"/>
<path d="M29.7246 68.675H27.1279V71.2717H29.7246V68.675Z" fill="white"/>
<path d="M29.7246 71.2717H27.1279V73.8684H29.7246V71.2717Z" fill="white"/>
<path d="M29.7246 73.8684H27.1279V76.4651H29.7246V73.8684Z" fill="white"/>
<path d="M29.7246 76.4648H27.1279V79.0615H29.7246V76.4648Z" fill="white"/>
<path d="M32.3213 11.5483H29.7246V14.145H32.3213V11.5483Z" fill="white"/>
<path d="M32.3213 14.145H29.7246V16.7417H32.3213V14.145Z" fill="white"/>
<path d="M32.3213 19.3384H29.7246V21.935H32.3213V19.3384Z" fill="white"/>
<path d="M32.3213 27.1284H29.7246V29.7251H32.3213V27.1284Z" fill="white"/>
<path d="M32.3213 32.3215H29.7246V34.9182H32.3213V32.3215Z" fill="white"/>
<path d="M32.3213 34.9182H29.7246V37.5149H32.3213V34.9182Z" fill="white"/>
<path d="M32.3213 42.7083H29.7246V45.3049H32.3213V42.7083Z" fill="white"/>
<path d="M32.3213 45.3049H29.7246V47.9016H32.3213V45.3049Z" fill="white"/>
<path d="M32.3213 47.9016H29.7246V50.4983H32.3213V47.9016Z" fill="white"/>
<path d="M32.3213 50.4983H29.7246V53.095H32.3213V50.4983Z" fill="white"/>
<path d="M32.3213 53.095H29.7246V55.6916H32.3213V53.095Z" fill="white"/>
<path d="M32.3213 58.2883H29.7246V60.885H32.3213V58.2883Z" fill="white"/>
<path d="M32.3213 76.4648H29.7246V79.0615H32.3213V76.4648Z" fill="white"/>
<path d="M34.918 6.35498H32.3213V8.95165H34.918V6.35498Z" fill="white"/>
<path d="M34.918 8.95166H32.3213V11.5483H34.918V8.95166Z" fill="white"/>
<path d="M34.918 11.5483H32.3213V14.145H34.918V11.5483Z" fill="white"/>
<path d="M34.918 21.9351H32.3213V24.5317H34.918V21.9351Z" fill="white"/>
<path d="M34.918 24.5317H32.3213V27.1284H34.918V24.5317Z" fill="white"/>
<path d="M34.918 29.7249H32.3213V32.3215H34.918V29.7249Z" fill="white"/>
<path d="M34.918 37.5149H32.3213V40.1116H34.918V37.5149Z" fill="white"/>
<path d="M34.918 42.7083H32.3213V45.3049H34.918V42.7083Z" fill="white"/>
<path d="M34.918 50.4983H32.3213V53.095H34.918V50.4983Z" fill="white"/>
<path d="M34.918 55.6917H32.3213V58.2883H34.918V55.6917Z" fill="white"/>
<path d="M34.918 60.885H32.3213V63.4817H34.918V60.885Z" fill="white"/>
<path d="M34.918 63.4817H32.3213V66.0784H34.918V63.4817Z" fill="white"/>
<path d="M34.918 68.675H32.3213V71.2717H34.918V68.675Z" fill="white"/>
<path d="M37.5146 11.5483H34.918V14.145H37.5146V11.5483Z" fill="white"/>
<path d="M37.5146 16.7417H34.918V19.3384H37.5146V16.7417Z" fill="white"/>
<path d="M37.5146 19.3384H34.918V21.935H37.5146V19.3384Z" fill="white"/>
<path d="M37.5146 24.5317H34.918V27.1284H37.5146V24.5317Z" fill="white"/>
<path d="M37.5146 27.1284H34.918V29.7251H37.5146V27.1284Z" fill="white"/>
<path d="M37.5146 29.7249H34.918V32.3215H37.5146V29.7249Z" fill="white"/>
<path d="M37.5146 32.3215H34.918V34.9182H37.5146V32.3215Z" fill="white"/>
<path d="M37.5146 37.5149H34.918V40.1116H37.5146V37.5149Z" fill="white"/>
<path d="M37.5146 40.1116H34.918V42.7082H37.5146V40.1116Z" fill="white"/>
<path d="M37.5146 42.7083H34.918V45.3049H37.5146V42.7083Z" fill="white"/>
<path d="M37.5146 53.095H34.918V55.6916H37.5146V53.095Z" fill="white"/>
<path d="M37.5146 55.6917H34.918V58.2883H37.5146V55.6917Z" fill="white"/>
<path d="M37.5146 58.2883H34.918V60.885H37.5146V58.2883Z" fill="white"/>
<path d="M37.5146 60.885H34.918V63.4817H37.5146V60.885Z" fill="white"/>
<path d="M37.5146 68.675H34.918V71.2717H37.5146V68.675Z" fill="white"/>
<path d="M37.5146 71.2717H34.918V73.8684H37.5146V71.2717Z" fill="white"/>
<path d="M37.5146 73.8684H34.918V76.4651H37.5146V73.8684Z" fill="white"/>
<path d="M40.1113 3.7583H37.5146V6.35497H40.1113V3.7583Z" fill="white"/>
<path d="M40.1113 8.95166H37.5146V11.5483H40.1113V8.95166Z" fill="white"/>
<path d="M40.1113 16.7417H37.5146V19.3384H40.1113V16.7417Z" fill="white"/>
<path d="M40.1113 27.1284H37.5146V29.7251H40.1113V27.1284Z" fill="white"/>
<path d="M40.1113 34.9182H37.5146V37.5149H40.1113V34.9182Z" fill="white"/>
<path d="M40.1113 40.1116H37.5146V42.7082H40.1113V40.1116Z" fill="white"/>
<path d="M40.1113 45.3049H37.5146V47.9016H40.1113V45.3049Z" fill="white"/>
<path d="M40.1113 47.9016H37.5146V50.4983H40.1113V47.9016Z" fill="white"/>
<path d="M40.1113 50.4983H37.5146V53.095H40.1113V50.4983Z" fill="white"/>
<path d="M40.1113 53.095H37.5146V55.6916H40.1113V53.095Z" fill="white"/>
<path d="M40.1113 55.6917H37.5146V58.2883H40.1113V55.6917Z" fill="white"/>
<path d="M40.1113 60.885H37.5146V63.4817H40.1113V60.885Z" fill="white"/>
<path d="M40.1113 68.675H37.5146V71.2717H40.1113V68.675Z" fill="white"/>
<path d="M40.1113 76.4648H37.5146V79.0615H40.1113V76.4648Z" fill="white"/>
<path d="M42.708 3.7583H40.1113V6.35497H42.708V3.7583Z" fill="white"/>
<path d="M42.708 6.35498H40.1113V8.95165H42.708V6.35498Z" fill="white"/>
<path d="M42.708 14.145H40.1113V16.7417H42.708V14.145Z" fill="white"/>
<path d="M42.708 16.7417H40.1113V19.3384H42.708V16.7417Z" fill="white"/>
<path d="M42.708 19.3384H40.1113V21.935H42.708V19.3384Z" fill="white"/>
<path d="M42.708 27.1284H40.1113V29.7251H42.708V27.1284Z" fill="white"/>
<path d="M42.708 29.7249H40.1113V32.3215H42.708V29.7249Z" fill="white"/>
<path d="M42.708 34.9182H40.1113V37.5149H42.708V34.9182Z" fill="white"/>
<path d="M42.708 37.5149H40.1113V40.1116H42.708V37.5149Z" fill="white"/>
<path d="M42.708 42.7083H40.1113V45.3049H42.708V42.7083Z" fill="white"/>
<path d="M42.708 45.3049H40.1113V47.9016H42.708V45.3049Z" fill="white"/>
<path d="M42.708 53.095H40.1113V55.6916H42.708V53.095Z" fill="white"/>
<path d="M42.708 58.2883H40.1113V60.885H42.708V58.2883Z" fill="white"/>
<path d="M42.708 60.885H40.1113V63.4817H42.708V60.885Z" fill="white"/>
<path d="M42.708 68.675H40.1113V71.2717H42.708V68.675Z" fill="white"/>
<path d="M42.708 71.2717H40.1113V73.8684H42.708V71.2717Z" fill="white"/>
<path d="M42.708 73.8684H40.1113V76.4651H42.708V73.8684Z" fill="white"/>
<path d="M42.708 76.4648H40.1113V79.0615H42.708V76.4648Z" fill="white"/>
<path d="M45.3047 6.35498H42.708V8.95165H45.3047V6.35498Z" fill="white"/>
<path d="M45.3047 11.5483H42.708V14.145H45.3047V11.5483Z" fill="white"/>
<path d="M45.3047 21.9351H42.708V24.5317H45.3047V21.9351Z" fill="white"/>
<path d="M45.3047 24.5317H42.708V27.1284H45.3047V24.5317Z" fill="white"/>
<path d="M45.3047 27.1284H42.708V29.7251H45.3047V27.1284Z" fill="white"/>
<path d="M45.3047 29.7249H42.708V32.3215H45.3047V29.7249Z" fill="white"/>
<path d="M45.3047 40.1116H42.708V42.7082H45.3047V40.1116Z" fill="white"/>
<path d="M45.3047 42.7083H42.708V45.3049H45.3047V42.7083Z" fill="white"/>
<path d="M45.3047 47.9016H42.708V50.4983H45.3047V47.9016Z" fill="white"/>
<path d="M45.3047 55.6917H42.708V58.2883H45.3047V55.6917Z" fill="white"/>
<path d="M45.3047 58.2883H42.708V60.885H45.3047V58.2883Z" fill="white"/>
<path d="M45.3047 60.885H42.708V63.4817H45.3047V60.885Z" fill="white"/>
<path d="M45.3047 68.675H42.708V71.2717H45.3047V68.675Z" fill="white"/>
<path d="M45.3047 73.8684H42.708V76.4651H45.3047V73.8684Z" fill="white"/>
<path d="M47.9014 3.7583H45.3047V6.35497H47.9014V3.7583Z" fill="white"/>
<path d="M47.9014 8.95166H45.3047V11.5483H47.9014V8.95166Z" fill="white"/>
<path d="M47.9014 19.3384H45.3047V21.935H47.9014V19.3384Z" fill="white"/>
<path d="M47.9014 24.5317H45.3047V27.1284H47.9014V24.5317Z" fill="white"/>
<path d="M47.9014 37.5149H45.3047V40.1116H47.9014V37.5149Z" fill="white"/>
<path d="M47.9014 47.9016H45.3047V50.4983H47.9014V47.9016Z" fill="white"/>
<path d="M47.9014 60.885H45.3047V63.4817H47.9014V60.885Z" fill="white"/>
<path d="M47.9014 63.4817H45.3047V66.0784H47.9014V63.4817Z" fill="white"/>
<path d="M47.9014 66.0784H45.3047V68.675H47.9014V66.0784Z" fill="white"/>
<path d="M50.498 6.35498H47.9014V8.95165H50.498V6.35498Z" fill="white"/>
<path d="M50.498 14.145H47.9014V16.7417H50.498V14.145Z" fill="white"/>
<path d="M50.498 29.7249H47.9014V32.3215H50.498V29.7249Z" fill="white"/>
<path d="M50.498 32.3215H47.9014V34.9182H50.498V32.3215Z" fill="white"/>
<path d="M50.498 34.9182H47.9014V37.5149H50.498V34.9182Z" fill="white"/>
<path d="M50.498 40.1116H47.9014V42.7082H50.498V40.1116Z" fill="white"/>
<path d="M50.498 53.095H47.9014V55.6916H50.498V53.095Z" fill="white"/>
<path d="M50.498 58.2883H47.9014V60.885H50.498V58.2883Z" fill="white"/>
<path d="M50.498 60.885H47.9014V63.4817H50.498V60.885Z" fill="white"/>
<path d="M50.498 63.4817H47.9014V66.0784H50.498V63.4817Z" fill="white"/>
<path d="M50.498 68.675H47.9014V71.2717H50.498V68.675Z" fill="white"/>
<path d="M50.498 71.2717H47.9014V73.8684H50.498V71.2717Z" fill="white"/>
<path d="M50.498 76.4648H47.9014V79.0615H50.498V76.4648Z" fill="white"/>
<path d="M53.0947 3.7583H50.498V6.35497H53.0947V3.7583Z" fill="white"/>
<path d="M53.0947 6.35498H50.498V8.95165H53.0947V6.35498Z" fill="white"/>
<path d="M53.0947 8.95166H50.498V11.5483H53.0947V8.95166Z" fill="white"/>
<path d="M53.0947 11.5483H50.498V14.145H53.0947V11.5483Z" fill="white"/>
<path d="M53.0947 14.145H50.498V16.7417H53.0947V14.145Z" fill="white"/>
<path d="M53.0947 16.7417H50.498V19.3384H53.0947V16.7417Z" fill="white"/>
<path d="M53.0947 19.3384H50.498V21.935H53.0947V19.3384Z" fill="white"/>
<path d="M53.0947 24.5317H50.498V27.1284H53.0947V24.5317Z" fill="white"/>
<path d="M53.0947 32.3215H50.498V34.9182H53.0947V32.3215Z" fill="white"/>
<path d="M53.0947 40.1116H50.498V42.7082H53.0947V40.1116Z" fill="white"/>
<path d="M53.0947 42.7083H50.498V45.3049H53.0947V42.7083Z" fill="white"/>
<path d="M53.0947 50.4983H50.498V53.095H53.0947V50.4983Z" fill="white"/>
<path d="M53.0947 53.095H50.498V55.6916H53.0947V53.095Z" fill="white"/>
<path d="M53.0947 55.6917H50.498V58.2883H53.0947V55.6917Z" fill="white"/>
<path d="M53.0947 66.0784H50.498V68.675H53.0947V66.0784Z" fill="white"/>
<path d="M53.0947 68.675H50.498V71.2717H53.0947V68.675Z" fill="white"/>
<path d="M53.0947 71.2717H50.498V73.8684H53.0947V71.2717Z" fill="white"/>
<path d="M53.0947 76.4648H50.498V79.0615H53.0947V76.4648Z" fill="white"/>
<path d="M55.6914 8.95166H53.0947V11.5483H55.6914V8.95166Z" fill="white"/>
<path d="M55.6914 11.5483H53.0947V14.145H55.6914V11.5483Z" fill="white"/>
<path d="M55.6914 16.7417H53.0947V19.3384H55.6914V16.7417Z" fill="white"/>
<path d="M55.6914 27.1284H53.0947V29.7251H55.6914V27.1284Z" fill="white"/>
<path d="M55.6914 29.7249H53.0947V32.3215H55.6914V29.7249Z" fill="white"/>
<path d="M55.6914 32.3215H53.0947V34.9182H55.6914V32.3215Z" fill="white"/>
<path d="M55.6914 37.5149H53.0947V40.1116H55.6914V37.5149Z" fill="white"/>
<path d="M55.6914 53.095H53.0947V55.6916H55.6914V53.095Z" fill="white"/>
<path d="M55.6914 58.2883H53.0947V60.885H55.6914V58.2883Z" fill="white"/>
<path d="M55.6914 60.885H53.0947V63.4817H55.6914V60.885Z" fill="white"/>
<path d="M55.6914 63.4817H53.0947V66.0784H55.6914V63.4817Z" fill="white"/>
<path d="M55.6914 68.675H53.0947V71.2717H55.6914V68.675Z" fill="white"/>
<path d="M55.6914 76.4648H53.0947V79.0615H55.6914V76.4648Z" fill="white"/>
<path d="M58.2881 3.7583H55.6914V6.35497H58.2881V3.7583Z" fill="white"/>
<path d="M58.2881 6.35498H55.6914V8.95165H58.2881V6.35498Z" fill="white"/>
<path d="M58.2881 11.5483H55.6914V14.145H58.2881V11.5483Z" fill="white"/>
<path d="M58.2881 19.3384H55.6914V21.935H58.2881V19.3384Z" fill="white"/>
<path d="M58.2881 21.9351H55.6914V24.5317H58.2881V21.9351Z" fill="white"/>
<path d="M58.2881 27.1284H55.6914V29.7251H58.2881V27.1284Z" fill="white"/>
<path d="M58.2881 34.9182H55.6914V37.5149H58.2881V34.9182Z" fill="white"/>
<path d="M58.2881 37.5149H55.6914V40.1116H58.2881V37.5149Z" fill="white"/>
<path d="M58.2881 42.7083H55.6914V45.3049H58.2881V42.7083Z" fill="white"/>
<path d="M58.2881 45.3049H55.6914V47.9016H58.2881V45.3049Z" fill="white"/>
<path d="M58.2881 50.4983H55.6914V53.095H58.2881V50.4983Z" fill="white"/>
<path d="M58.2881 53.095H55.6914V55.6916H58.2881V53.095Z" fill="white"/>
<path d="M58.2881 55.6917H55.6914V58.2883H58.2881V55.6917Z" fill="white"/>
<path d="M58.2881 58.2883H55.6914V60.885H58.2881V58.2883Z" fill="white"/>
<path d="M58.2881 60.885H55.6914V63.4817H58.2881V60.885Z" fill="white"/>
<path d="M58.2881 63.4817H55.6914V66.0784H58.2881V63.4817Z" fill="white"/>
<path d="M58.2881 66.0784H55.6914V68.675H58.2881V66.0784Z" fill="white"/>
<path d="M58.2881 73.8684H55.6914V76.4651H58.2881V73.8684Z" fill="white"/>
<path d="M60.8848 24.5317H58.2881V27.1284H60.8848V24.5317Z" fill="white"/>
<path d="M60.8848 27.1284H58.2881V29.7251H60.8848V27.1284Z" fill="white"/>
<path d="M60.8848 29.7249H58.2881V32.3215H60.8848V29.7249Z" fill="white"/>
<path d="M60.8848 42.7083H58.2881V45.3049H60.8848V42.7083Z" fill="white"/>
<path d="M60.8848 45.3049H58.2881V47.9016H60.8848V45.3049Z" fill="white"/>
<path d="M60.8848 55.6917H58.2881V58.2883H60.8848V55.6917Z" fill="white"/>
<path d="M60.8848 66.0784H58.2881V68.675H60.8848V66.0784Z" fill="white"/>
<path d="M60.8848 68.675H58.2881V71.2717H60.8848V68.675Z" fill="white"/>
<path d="M60.8848 76.4648H58.2881V79.0615H60.8848V76.4648Z" fill="white"/>
<path d="M63.4814 29.7249H60.8848V32.3215H63.4814V29.7249Z" fill="white"/>
<path d="M63.4814 32.3215H60.8848V34.9182H63.4814V32.3215Z" fill="white"/>
<path d="M63.4814 40.1116H60.8848V42.7082H63.4814V40.1116Z" fill="white"/>
<path d="M63.4814 42.7083H60.8848V45.3049H63.4814V42.7083Z" fill="white"/>
<path d="M63.4814 47.9016H60.8848V50.4983H63.4814V47.9016Z" fill="white"/>
<path d="M63.4814 50.4983H60.8848V53.095H63.4814V50.4983Z" fill="white"/>
<path d="M63.4814 55.6917H60.8848V58.2883H63.4814V55.6917Z" fill="white"/>
<path d="M63.4814 60.885H60.8848V63.4817H63.4814V60.885Z" fill="white"/>
<path d="M63.4814 66.0784H60.8848V68.675H63.4814V66.0784Z" fill="white"/>
<path d="M63.4814 68.675H60.8848V71.2717H63.4814V68.675Z" fill="white"/>
<path d="M63.4814 71.2717H60.8848V73.8684H63.4814V71.2717Z" fill="white"/>
<path d="M63.4814 76.4648H60.8848V79.0615H63.4814V76.4648Z" fill="white"/>
<path d="M66.0781 27.1284H63.4814V29.7251H66.0781V27.1284Z" fill="white"/>
<path d="M66.0781 34.9182H63.4814V37.5149H66.0781V34.9182Z" fill="white"/>
<path d="M66.0781 40.1116H63.4814V42.7082H66.0781V40.1116Z" fill="white"/>
<path d="M66.0781 42.7083H63.4814V45.3049H66.0781V42.7083Z" fill="white"/>
<path d="M66.0781 50.4983H63.4814V53.095H66.0781V50.4983Z" fill="white"/>
<path d="M66.0781 53.095H63.4814V55.6916H66.0781V53.095Z" fill="white"/>
<path d="M66.0781 55.6917H63.4814V58.2883H66.0781V55.6917Z" fill="white"/>
<path d="M66.0781 66.0784H63.4814V68.675H66.0781V66.0784Z" fill="white"/>
<path d="M66.0781 68.675H63.4814V71.2717H66.0781V68.675Z" fill="white"/>
<path d="M66.0781 73.8684H63.4814V76.4651H66.0781V73.8684Z" fill="white"/>
<path d="M66.0781 76.4648H63.4814V79.0615H66.0781V76.4648Z" fill="white"/>
<path d="M68.6748 29.7249H66.0781V32.3215H68.6748V29.7249Z" fill="white"/>
<path d="M68.6748 34.9182H66.0781V37.5149H68.6748V34.9182Z" fill="white"/>
<path d="M68.6748 37.5149H66.0781V40.1116H68.6748V37.5149Z" fill="white"/>
<path d="M68.6748 40.1116H66.0781V42.7082H68.6748V40.1116Z" fill="white"/>
<path d="M68.6748 42.7083H66.0781V45.3049H68.6748V42.7083Z" fill="white"/>
<path d="M68.6748 45.3049H66.0781V47.9016H68.6748V45.3049Z" fill="white"/>
<path d="M68.6748 47.9016H66.0781V50.4983H68.6748V47.9016Z" fill="white"/>
<path d="M68.6748 50.4983H66.0781V53.095H68.6748V50.4983Z" fill="white"/>
<path d="M68.6748 53.095H66.0781V55.6916H68.6748V53.095Z" fill="white"/>
<path d="M68.6748 55.6917H66.0781V58.2883H68.6748V55.6917Z" fill="white"/>
<path d="M68.6748 58.2883H66.0781V60.885H68.6748V58.2883Z" fill="white"/>
<path d="M68.6748 60.885H66.0781V63.4817H68.6748V60.885Z" fill="white"/>
<path d="M68.6748 63.4817H66.0781V66.0784H68.6748V63.4817Z" fill="white"/>
<path d="M68.6748 66.0784H66.0781V68.675H68.6748V66.0784Z" fill="white"/>
<path d="M71.2715 32.3215H68.6748V34.9182H71.2715V32.3215Z" fill="white"/>
<path d="M71.2715 45.3049H68.6748V47.9016H71.2715V45.3049Z" fill="white"/>
<path d="M71.2715 47.9016H68.6748V50.4983H71.2715V47.9016Z" fill="white"/>
<path d="M71.2715 50.4983H68.6748V53.095H71.2715V50.4983Z" fill="white"/>
<path d="M71.2715 53.095H68.6748V55.6916H71.2715V53.095Z" fill="white"/>
<path d="M71.2715 55.6917H68.6748V58.2883H71.2715V55.6917Z" fill="white"/>
<path d="M71.2715 63.4817H68.6748V66.0784H71.2715V63.4817Z" fill="white"/>
<path d="M71.2715 66.0784H68.6748V68.675H71.2715V66.0784Z" fill="white"/>
<path d="M71.2715 71.2717H68.6748V73.8684H71.2715V71.2717Z" fill="white"/>
<path d="M71.2715 73.8684H68.6748V76.4651H71.2715V73.8684Z" fill="white"/>
<path d="M73.8682 24.5317H71.2715V27.1284H73.8682V24.5317Z" fill="white"/>
<path d="M73.8682 29.7249H71.2715V32.3215H73.8682V29.7249Z" fill="white"/>
<path d="M73.8682 34.9182H71.2715V37.5149H73.8682V34.9182Z" fill="white"/>
<path d="M73.8682 45.3049H71.2715V47.9016H73.8682V45.3049Z" fill="white"/>
<path d="M73.8682 58.2883H71.2715V60.885H73.8682V58.2883Z" fill="white"/>
<path d="M73.8682 66.0784H71.2715V68.675H73.8682V66.0784Z" fill="white"/>
<path d="M73.8682 68.675H71.2715V71.2717H73.8682V68.675Z" fill="white"/>
<path d="M73.8682 71.2717H71.2715V73.8684H73.8682V71.2717Z" fill="white"/>
<path d="M73.8682 73.8684H71.2715V76.4651H73.8682V73.8684Z" fill="white"/>
<path d="M73.8682 76.4648H71.2715V79.0615H73.8682V76.4648Z" fill="white"/>
<path d="M76.4648 24.5317H73.8682V27.1284H76.4648V24.5317Z" fill="white"/>
<path d="M76.4648 29.7249H73.8682V32.3215H76.4648V29.7249Z" fill="white"/>
<path d="M76.4648 32.3215H73.8682V34.9182H76.4648V32.3215Z" fill="white"/>
<path d="M76.4648 40.1116H73.8682V42.7082H76.4648V40.1116Z" fill="white"/>
<path d="M76.4648 42.7083H73.8682V45.3049H76.4648V42.7083Z" fill="white"/>
<path d="M76.4648 45.3049H73.8682V47.9016H76.4648V45.3049Z" fill="white"/>
<path d="M76.4648 53.095H73.8682V55.6916H76.4648V53.095Z" fill="white"/>
<path d="M76.4648 55.6917H73.8682V58.2883H76.4648V55.6917Z" fill="white"/>
<path d="M76.4648 68.675H73.8682V71.2717H76.4648V68.675Z" fill="white"/>
<path d="M79.0615 37.5149H76.4648V40.1116H79.0615V37.5149Z" fill="white"/>
<path d="M79.0615 45.3049H76.4648V47.9016H79.0615V45.3049Z" fill="white"/>
<path d="M79.0615 55.6917H76.4648V58.2883H79.0615V55.6917Z" fill="white"/>
<path d="M79.0615 58.2883H76.4648V60.885H79.0615V58.2883Z" fill="white"/>
<path d="M79.0615 60.885H76.4648V63.4817H79.0615V60.885Z" fill="white"/>
<path d="M79.0615 63.4817H76.4648V66.0784H79.0615V63.4817Z" fill="white"/>
<path d="M79.0615 66.0784H76.4648V68.675H79.0615V66.0784Z" fill="white"/>
<path d="M79.0615 76.4648H76.4648V79.0615H79.0615V76.4648Z" fill="white"/>
<path d="M6.35448 3.7583H3.75781V6.35497H6.35448V3.7583Z" fill="white"/>
<path d="M6.35448 6.35498H3.75781V8.95165H6.35448V6.35498Z" fill="white"/>
<path d="M6.35448 8.95166H3.75781V11.5483H6.35448V8.95166Z" fill="white"/>
<path d="M6.35448 11.5483H3.75781V14.145H6.35448V11.5483Z" fill="white"/>
<path d="M6.35448 14.145H3.75781V16.7417H6.35448V14.145Z" fill="white"/>
<path d="M6.35448 16.7417H3.75781V19.3384H6.35448V16.7417Z" fill="white"/>
<path d="M6.35448 19.3384H3.75781V21.935H6.35448V19.3384Z" fill="white"/>
<path d="M8.95116 3.7583H6.35449V6.35497H8.95116V3.7583Z" fill="white"/>
<path d="M8.95116 19.3384H6.35449V21.935H8.95116V19.3384Z" fill="white"/>
<path d="M11.5478 3.7583H8.95117V6.35497H11.5478V3.7583Z" fill="white"/>
<path d="M11.5478 19.3384H8.95117V21.935H11.5478V19.3384Z" fill="white"/>
<path d="M14.1445 3.7583H11.5479V6.35497H14.1445V3.7583Z" fill="white"/>
<path d="M14.1445 19.3384H11.5479V21.935H14.1445V19.3384Z" fill="white"/>
<path d="M16.7412 3.7583H14.1445V6.35497H16.7412V3.7583Z" fill="white"/>
<path d="M16.7412 19.3384H14.1445V21.935H16.7412V19.3384Z" fill="white"/>
<path d="M19.3379 3.7583H16.7412V6.35497H19.3379V3.7583Z" fill="white"/>
<path d="M19.3379 19.3384H16.7412V21.935H19.3379V19.3384Z" fill="white"/>
<path d="M21.9346 3.7583H19.3379V6.35497H21.9346V3.7583Z" fill="white"/>
<path d="M21.9346 6.35498H19.3379V8.95165H21.9346V6.35498Z" fill="white"/>
<path d="M21.9346 8.95166H19.3379V11.5483H21.9346V8.95166Z" fill="white"/>
<path d="M21.9346 11.5483H19.3379V14.145H21.9346V11.5483Z" fill="white"/>
<path d="M21.9346 14.145H19.3379V16.7417H21.9346V14.145Z" fill="white"/>
<path d="M21.9346 16.7417H19.3379V19.3384H21.9346V16.7417Z" fill="white"/>
<path d="M21.9346 19.3384H19.3379V21.935H21.9346V19.3384Z" fill="white"/>
<path d="M11.5478 8.95166H8.95117V11.5483H11.5478V8.95166Z" fill="white"/>
<path d="M11.5478 11.5483H8.95117V14.145H11.5478V11.5483Z" fill="white"/>
<path d="M11.5478 14.145H8.95117V16.7417H11.5478V14.145Z" fill="white"/>
<path d="M14.1445 8.95166H11.5479V11.5483H14.1445V8.95166Z" fill="white"/>
<path d="M14.1445 11.5483H11.5479V14.145H14.1445V11.5483Z" fill="white"/>
<path d="M14.1445 14.145H11.5479V16.7417H14.1445V14.145Z" fill="white"/>
<path d="M16.7412 8.95166H14.1445V11.5483H16.7412V8.95166Z" fill="white"/>
<path d="M16.7412 11.5483H14.1445V14.145H16.7412V11.5483Z" fill="white"/>
<path d="M16.7412 14.145H14.1445V16.7417H16.7412V14.145Z" fill="white"/>
<path d="M63.4814 3.7583H60.8848V6.35497H63.4814V3.7583Z" fill="white"/>
<path d="M63.4814 6.35498H60.8848V8.95165H63.4814V6.35498Z" fill="white"/>
<path d="M63.4814 8.95166H60.8848V11.5483H63.4814V8.95166Z" fill="white"/>
<path d="M63.4814 11.5483H60.8848V14.145H63.4814V11.5483Z" fill="white"/>
<path d="M63.4814 14.145H60.8848V16.7417H63.4814V14.145Z" fill="white"/>
<path d="M63.4814 16.7417H60.8848V19.3384H63.4814V16.7417Z" fill="white"/>
<path d="M63.4814 19.3384H60.8848V21.935H63.4814V19.3384Z" fill="white"/>
<path d="M66.0781 3.7583H63.4814V6.35497H66.0781V3.7583Z" fill="white"/>
<path d="M66.0781 19.3384H63.4814V21.935H66.0781V19.3384Z" fill="white"/>
<path d="M68.6748 3.7583H66.0781V6.35497H68.6748V3.7583Z" fill="white"/>
<path d="M68.6748 19.3384H66.0781V21.935H68.6748V19.3384Z" fill="white"/>
<path d="M71.2715 3.7583H68.6748V6.35497H71.2715V3.7583Z" fill="white"/>
<path d="M71.2715 19.3384H68.6748V21.935H71.2715V19.3384Z" fill="white"/>
<path d="M73.8682 3.7583H71.2715V6.35497H73.8682V3.7583Z" fill="white"/>
<path d="M73.8682 19.3384H71.2715V21.935H73.8682V19.3384Z" fill="white"/>
<path d="M76.4648 3.7583H73.8682V6.35497H76.4648V3.7583Z" fill="white"/>
<path d="M76.4648 19.3384H73.8682V21.935H76.4648V19.3384Z" fill="white"/>
<path d="M79.0615 3.7583H76.4648V6.35497H79.0615V3.7583Z" fill="white"/>
<path d="M79.0615 6.35498H76.4648V8.95165H79.0615V6.35498Z" fill="white"/>
<path d="M79.0615 8.95166H76.4648V11.5483H79.0615V8.95166Z" fill="white"/>
<path d="M79.0615 11.5483H76.4648V14.145H79.0615V11.5483Z" fill="white"/>
<path d="M79.0615 14.145H76.4648V16.7417H79.0615V14.145Z" fill="white"/>
<path d="M79.0615 16.7417H76.4648V19.3384H79.0615V16.7417Z" fill="white"/>
<path d="M79.0615 19.3384H76.4648V21.935H79.0615V19.3384Z" fill="white"/>
<path d="M68.6748 8.95166H66.0781V11.5483H68.6748V8.95166Z" fill="white"/>
<path d="M68.6748 11.5483H66.0781V14.145H68.6748V11.5483Z" fill="white"/>
<path d="M68.6748 14.145H66.0781V16.7417H68.6748V14.145Z" fill="white"/>
<path d="M71.2715 8.95166H68.6748V11.5483H71.2715V8.95166Z" fill="white"/>
<path d="M71.2715 11.5483H68.6748V14.145H71.2715V11.5483Z" fill="white"/>
<path d="M71.2715 14.145H68.6748V16.7417H71.2715V14.145Z" fill="white"/>
<path d="M73.8682 8.95166H71.2715V11.5483H73.8682V8.95166Z" fill="white"/>
<path d="M73.8682 11.5483H71.2715V14.145H73.8682V11.5483Z" fill="white"/>
<path d="M73.8682 14.145H71.2715V16.7417H73.8682V14.145Z" fill="white"/>
<path d="M6.35448 60.885H3.75781V63.4817H6.35448V60.885Z" fill="white"/>
<path d="M6.35448 63.4817H3.75781V66.0784H6.35448V63.4817Z" fill="white"/>
<path d="M6.35448 66.0784H3.75781V68.675H6.35448V66.0784Z" fill="white"/>
<path d="M6.35448 68.675H3.75781V71.2717H6.35448V68.675Z" fill="white"/>
<path d="M6.35448 71.2717H3.75781V73.8684H6.35448V71.2717Z" fill="white"/>
<path d="M6.35448 73.8684H3.75781V76.4651H6.35448V73.8684Z" fill="white"/>
<path d="M6.35448 76.4651H3.75781V79.0618H6.35448V76.4651Z" fill="white"/>
<path d="M8.95116 60.885H6.35449V63.4817H8.95116V60.885Z" fill="white"/>
<path d="M8.95116 76.4651H6.35449V79.0618H8.95116V76.4651Z" fill="white"/>
<path d="M11.5478 60.885H8.95117V63.4817H11.5478V60.885Z" fill="white"/>
<path d="M11.5478 76.4651H8.95117V79.0618H11.5478V76.4651Z" fill="white"/>
<path d="M14.1445 60.885H11.5479V63.4817H14.1445V60.885Z" fill="white"/>
<path d="M14.1445 76.4651H11.5479V79.0618H14.1445V76.4651Z" fill="white"/>
<path d="M16.7412 60.885H14.1445V63.4817H16.7412V60.885Z" fill="white"/>
<path d="M16.7412 76.4651H14.1445V79.0618H16.7412V76.4651Z" fill="white"/>
<path d="M19.3379 60.885H16.7412V63.4817H19.3379V60.885Z" fill="white"/>
<path d="M19.3379 76.4651H16.7412V79.0618H19.3379V76.4651Z" fill="white"/>
<path d="M21.9346 60.885H19.3379V63.4817H21.9346V60.885Z" fill="white"/>
<path d="M21.9346 63.4817H19.3379V66.0784H21.9346V63.4817Z" fill="white"/>
<path d="M21.9346 66.0784H19.3379V68.675H21.9346V66.0784Z" fill="white"/>
<path d="M21.9346 68.675H19.3379V71.2717H21.9346V68.675Z" fill="white"/>
<path d="M21.9346 71.2717H19.3379V73.8684H21.9346V71.2717Z" fill="white"/>
<path d="M21.9346 73.8684H19.3379V76.4651H21.9346V73.8684Z" fill="white"/>
<path d="M21.9346 76.4651H19.3379V79.0618H21.9346V76.4651Z" fill="white"/>
<path d="M11.5478 66.0784H8.95117V68.675H11.5478V66.0784Z" fill="white"/>
<path d="M11.5478 68.675H8.95117V71.2717H11.5478V68.675Z" fill="white"/>
<path d="M11.5478 71.2717H8.95117V73.8684H11.5478V71.2717Z" fill="white"/>
<path d="M14.1445 66.0784H11.5479V68.675H14.1445V66.0784Z" fill="white"/>
<path d="M14.1445 68.675H11.5479V71.2717H14.1445V68.675Z" fill="white"/>
<path d="M14.1445 71.2717H11.5479V73.8684H14.1445V71.2717Z" fill="white"/>
<path d="M16.7412 66.0784H14.1445V68.675H16.7412V66.0784Z" fill="white"/>
<path d="M16.7412 68.675H14.1445V71.2717H16.7412V68.675Z" fill="white"/>
<path d="M16.7412 71.2717H14.1445V73.8684H16.7412V71.2717Z" fill="white"/>
</svg>
