<svg width="1728" height="429" viewBox="0 0 1728 429" fill="none" xmlns="http://www.w3.org/2000/svg">
<g clip-path="url(#clip0_261_122682)">
<path d="M1758.2 380.446C1690.22 360.338 1630 332.014 1581.27 297.24C1509.46 245.346 1513.35 213.319 1444.39 183.811C1377.36 155.155 1285.37 147.619 1210.75 158.935C1108.93 174.388 1104.34 215.106 973.844 280.203C897.099 318.453 753.185 390.262 583.404 384.209C497.63 381.147 412.347 358.465 333.073 337.395C235.907 311.569 221.951 298.126 169.516 292.157C107.236 285.057 10.9519 290.794 -127.491 357.671" stroke="url(#paint0_linear_261_122682)" stroke-opacity="0.5" stroke-miterlimit="10"/>
<path d="M1760.09 372.745C1698.84 355.102 1643.62 330.828 1597.19 301.136C1592.75 298.257 1588.31 295.299 1583.83 292.26C1511.29 242.05 1514.14 211.493 1446.05 182.744C1416.36 170.163 1382.76 161.264 1347.18 156.565C1321.7 153.214 1295.56 151.889 1269.45 152.626C1249.92 153.183 1230.54 155.057 1211.68 158.21C1190.66 161.551 1170.68 166.948 1152.55 174.182C1119.18 187.547 1095.82 205.483 1059.89 228.022C1032.82 244.985 1003.37 260.522 971.866 274.459C955.182 281.941 935.695 290.958 913.171 300.209C852.907 325.028 775.79 352.049 683.246 361.704C651.844 365.069 619.936 366.299 588.13 365.37C583.257 365.234 578.418 365.018 573.645 364.761C526.385 362.253 481.36 355.213 435.365 345.797C400.953 338.845 368.409 330.124 336.132 321.941C322.614 318.447 310.531 315.266 299.616 312.279C233.693 294.18 216.567 284.383 171.543 280.284C137.333 277.171 93.0781 277.968 36.9137 289.925C-9.1391 299.712 -63.6655 317.201 -127.499 345.997" stroke="url(#paint1_linear_261_122682)" stroke-opacity="0.5" stroke-miterlimit="10"/>
<path d="M1761.84 365.004C1701.23 348.05 1646.35 324.617 1599.88 295.847C1595.43 293.071 1590.98 290.228 1586.53 287.319C1513.08 238.773 1514.84 209.725 1447.68 181.674C1417.92 168.937 1384.21 159.872 1348.47 154.999C1322.84 151.628 1296.54 150.358 1270.28 151.225C1250.72 151.918 1231.36 154.026 1212.61 157.503C1191.69 161.226 1171.82 166.829 1153.68 174.12C1118.97 187.881 1094.35 205.23 1058.81 226.269C1031.62 242.239 1001.83 256.54 969.89 268.955C953.206 275.592 934.153 283.72 911.862 291.783C852.465 313.28 780.052 335.879 688.442 343.582C656.792 346.349 624.806 347.362 592.892 346.609C587.952 346.473 583.08 346.297 578.274 346.061C530.213 343.778 486.323 337.778 439.395 329.433C404.048 323.131 371.805 314.575 339.261 306.521C325.743 303.189 313.526 300.151 302.345 297.308C236.222 280.424 218.496 271.437 173.64 268.459C139.463 266.189 95.5426 267.743 39.0782 279.831C-7.04114 289.73 -62.2685 306.889 -127.504 334.29" stroke="url(#paint2_linear_261_122682)" stroke-opacity="0.5" stroke-miterlimit="10"/>
<path d="M1763.94 357.385C1703.82 341.095 1649.16 318.454 1602.57 290.54C1598.13 287.846 1593.66 285.112 1589.22 282.318C1514.81 235.456 1515.63 207.874 1449.37 180.601C1417.99 167.695 1387.08 158.441 1349.87 153.411C1324.06 150.015 1297.56 148.801 1271.14 149.803C1251.54 150.636 1232.19 152.986 1213.57 156.794C1192.75 160.895 1172.96 166.704 1154.77 174.056C1118.8 188.21 1092.94 204.931 1057.77 224.453C1030.43 239.44 1000.27 252.476 967.913 263.294C951.062 269.088 932.575 276.327 910.551 283.204C851.72 301.584 784.312 319.627 693.636 325.423C661.736 327.583 629.637 328.374 597.585 327.79C592.612 327.674 587.573 327.519 582.9 327.303C535.745 325.223 489.071 320.429 443.522 312.988C407.242 307.355 375.265 298.885 342.321 291.058C328.803 287.85 316.487 284.974 305.005 282.275C238.716 266.624 220.357 258.487 175.701 256.569C141.525 255.099 97.8385 257.469 41.174 269.688C-5.04527 279.579 -60.8732 296.607 -127.511 322.713" stroke="url(#paint3_linear_261_122682)" stroke-opacity="0.5" stroke-miterlimit="10"/>
<path d="M1765.86 349.706C1706.32 334.072 1651.96 312.252 1605.27 285.251C1600.83 282.639 1596.32 280.028 1591.91 277.336C1516.7 232.076 1516.36 206.141 1451.03 179.507C1418.95 166.476 1389.08 156.965 1351.2 151.824C1325.24 148.397 1298.57 147.244 1272 148.401C1252.31 149.35 1232.93 151.936 1214.4 156.084C1193.72 160.529 1174.03 166.504 1155.8 173.868C1118.56 188.435 1091.3 204.469 1056.63 222.655C1032.18 235.463 1003.24 246.698 965.837 257.654C948.851 262.645 930.765 269.018 909.108 274.691C850.509 290.04 788.439 303.412 698.864 307.302C666.761 308.874 634.556 309.451 602.38 309.03C597.34 308.935 592.367 308.8 587.595 308.624C540.353 307.003 493.459 302.988 447.417 296.621C410.136 291.656 378.627 283.251 345.349 275.712C331.998 272.625 319.348 269.854 307.599 267.338C241.178 252.819 222.184 245.63 177.663 244.79C143.487 244.139 100.102 247.284 43.2039 259.613C-3.01516 269.635 -59.5105 286.351 -127.516 311.124" stroke="url(#paint4_linear_261_122682)" stroke-opacity="0.5" stroke-miterlimit="10"/>
<path d="M1767.75 342.028C1708.81 327.038 1654.75 306.039 1607.96 279.962C1603.52 277.453 1599.01 274.963 1594.61 272.394C1518.5 228.915 1517.12 204.305 1452.76 178.449C1419.98 165.274 1391.14 155.509 1352.62 150.256C1326.5 146.803 1299.62 145.711 1272.89 147.018C1253.2 148.09 1233.87 150.905 1215.53 155.371C1194.97 160.177 1175.37 166.351 1157.1 173.774C1118.55 188.713 1089.86 204.001 1055.76 220.851C1030.57 233.252 1001 243.044 964.027 252.035C946.841 256.225 929.155 261.693 907.964 266.261C849.131 278.707 792.766 287.295 704.124 289.322C673.32 290.031 639.246 290.895 607.173 290.394C602.067 290.319 597.16 290.204 592.288 290.068C545.035 288.907 498.016 285.673 451.611 280.391C413.396 276.093 382.12 267.755 348.476 260.385C334.958 257.421 322.375 254.871 310.326 252.459C243.772 238.971 224.044 232.29 179.824 232.925C145.649 233.411 102.531 237.03 45.433 249.527C-0.819203 259.719 -58.0153 276.084 -127.39 299.505" stroke="url(#paint5_linear_261_122682)" stroke-opacity="0.5" stroke-miterlimit="10"/>
<path d="M1769.67 334.371C1711.32 320.01 1657.55 299.825 1610.65 274.674C1606.21 272.266 1601.67 269.879 1597.3 267.431C1520.26 225.593 1517.84 202.527 1454.45 177.369C1421.07 164.091 1393.2 154.052 1353.98 148.668C1327.74 145.21 1300.72 144.181 1273.89 145.614C1254.13 146.821 1234.8 149.872 1216.59 154.655C1196.2 159.843 1176.69 166.207 1158.36 173.657C1118.55 189.004 1088.28 203.628 1054.92 219.064C1028.96 231.138 998.724 239.37 962.249 246.417C944.796 249.808 925.807 251.812 906.853 257.659C845.346 259.493 796.96 274.126 709.552 271.167C678.68 270.103 644.072 271.965 612.133 271.643C606.96 271.569 601.954 271.493 597.148 271.378C545.684 270.175 506.302 268.675 455.839 264.102C416.689 260.49 385.748 252.199 351.736 245.077C338.385 242.235 325.535 239.828 313.186 237.559C246.599 225.3 226.172 220.063 182.018 221.274C147.81 222.257 104.96 226.967 47.6623 239.552C1.34354 249.734 -56.4534 265.946 -127.264 288.016" stroke="url(#paint6_linear_261_122682)" stroke-opacity="0.5" stroke-miterlimit="10"/>
<path d="M1771.6 326.692C1713.83 312.962 1660.36 293.603 1613.35 269.403C1608.87 267.077 1604.33 264.812 1599.99 262.486C1521.85 222.33 1518.43 200.765 1456.01 176.285C1421.8 162.886 1395.1 152.594 1355.25 147.08C1328.77 143.582 1301.5 142.621 1274.45 144.231C1252.45 145.433 1234.4 149.459 1217.25 153.958C1197.01 159.516 1177.58 166.071 1159.15 173.556C1118.08 189.291 1086.11 203.151 1053.51 217.274C1026.81 228.881 995.78 235.656 960.072 240.823C942.251 243.396 923.696 244.063 905.309 249.165C843.8 246.641 801.084 254.746 714.545 253.159C683.507 252.574 648.498 253.183 616.659 252.92C611.453 252.946 606.38 252.831 601.607 252.755C549.276 251.836 511.03 251.426 459.665 247.679C419.615 244.731 388.974 236.507 354.596 229.613C341.245 226.893 328.295 224.649 315.645 222.523C248.892 211.351 227.831 207.038 183.846 209.381C149.638 211.159 107.089 216.638 49.5574 229.35C3.20541 239.522 -55.2587 255.56 -127.471 276.281" stroke="url(#paint7_linear_261_122682)" stroke-opacity="0.5" stroke-miterlimit="10"/>
<path d="M1773.49 319.036C1716.34 305.912 1663.18 287.388 1616.04 264.172C1611.57 261.929 1607 259.766 1602.49 257.582C1523.54 219.105 1519.03 199.06 1457.68 175.279C1422.76 161.76 1397.09 151.196 1356.57 145.592C1329.97 142.059 1302.54 141.145 1275.37 142.888C1253.08 144.208 1235.33 148.547 1218.28 153.299C1197.22 159.163 1179.9 166.003 1160.38 173.449C1118 189.55 1079.66 199.293 1052.54 215.478C1021.8 223.436 993.073 238.477 958.062 235.211C939.84 233.511 921.685 236.341 903.932 240.68C842.388 233.827 805.111 238.519 719.673 235.16C688.501 233.941 652.925 234.432 621.353 234.288C616.046 234.314 610.974 234.338 606.168 234.183C553.036 233.548 515.891 234.285 463.66 231.4C422.576 229.156 392.335 220.979 357.624 214.313C344.273 211.716 331.189 209.614 318.273 207.651C251.521 197.545 229.626 194.294 185.807 197.627C151.567 200.237 109.285 206.483 51.5874 219.321C5.16891 229.6 -53.7957 245.345 -127.543 264.718" stroke="url(#paint8_linear_261_122682)" stroke-opacity="0.5" stroke-miterlimit="10"/>
<path d="M1775.41 311.38C1718.85 298.836 1665.99 281.11 1618.73 258.841C1614.26 256.7 1609.69 254.737 1605.15 252.597C1525.04 215.798 1519.79 197.27 1459.34 174.168C1423.69 160.549 1399.09 149.715 1357.93 143.982C1331.16 140.437 1303.55 139.586 1276.23 141.462C1253.64 142.902 1236.19 147.61 1219.2 152.555C1198.55 158.609 1181.43 165.756 1161.51 173.335C1117.86 189.859 1077.52 198.469 1051.39 213.697C1019.59 220.797 989.061 234.877 955.985 229.62C937.895 226.751 919.641 228.606 902.588 232.202C841.009 221.031 809.137 222.278 724.833 217.191C693.528 215.359 657.684 215.692 626.046 215.687L610.794 215.761C556.795 215.429 520.686 217.252 467.654 215.267C425.602 213.706 395.729 205.556 360.651 199.139C347.3 196.663 334.117 194.723 320.9 192.922C254.148 183.841 231.453 181.63 187.802 185.989C153.562 189.43 111.548 196.441 53.6499 209.383C7.1982 219.75 -52.5673 235.221 -127.584 253.267" stroke="url(#paint9_linear_261_122682)" stroke-opacity="0.5" stroke-miterlimit="10"/>
<path d="M1777.34 303.746C1721.43 291.759 1668.92 274.853 1621.56 253.589C1617.05 251.629 1612.48 249.67 1607.94 247.71C1526.96 212.608 1520.58 195.595 1461.06 173.113C1424.68 159.417 1400.98 148.295 1359.33 142.453C1332.41 138.866 1304.61 138.069 1277.16 140.097C1254.23 141.655 1237.12 146.614 1220.23 151.868C1199.98 158.229 1183.03 165.546 1162.7 173.235C1117.76 190.14 1075.44 197.659 1050.52 211.911C1017.62 218.175 987.113 220.503 954.175 224.052C935.285 222.003 917.863 220.919 901.378 223.754C839.796 208.198 813.397 206.067 730.16 199.317C698.721 196.754 662.41 196.792 630.906 197.163C625.499 197.189 620.326 197.215 615.554 197.238C560.688 197.921 525.78 200.151 471.814 199.026C428.762 198.145 399.29 190.044 363.811 183.855C350.46 181.522 337.11 179.704 323.76 178.104C257.009 170.045 233.647 168.91 190.063 174.294C155.79 178.543 114.077 186.317 55.9124 199.382C9.42751 209.815 -50.8719 225.031 -127.39 241.753" stroke="url(#paint10_linear_261_122682)" stroke-opacity="0.5" stroke-miterlimit="10"/>
<path d="M1779.23 296.091C1723.87 284.669 1671.62 268.579 1624.09 248.316C1619.61 246.359 1615.01 244.541 1610.47 242.702C1528.42 209.317 1521.11 193.796 1462.66 172.033C1425.54 158.201 1403.08 146.831 1360.62 140.862C1333.47 137.238 1305.41 136.509 1277.75 138.711C1254.39 140.388 1237.54 145.635 1221.03 151.138C1201 157.746 1184.32 165.289 1163.67 173.187C1117.48 190.471 1073.13 196.9 1049.34 210.177C1015.37 215.586 984.402 216.429 952.064 218.565C932.94 215.491 915.785 213.318 899.9 215.414C838.317 195.625 817.356 189.948 735.22 181.539C703.647 178.308 666.903 178.249 635.499 178.738C630.025 178.764 624.853 178.789 620.047 178.813C564.38 179.815 530.541 183.205 475.708 182.897C431.722 182.695 402.583 174.623 366.737 168.682C353.387 166.451 340.037 164.853 326.186 163.317C259.436 156.239 235.14 156.199 191.857 162.603C157.585 167.678 116.139 176.191 57.7743 189.378C11.2562 199.875 -49.8441 214.837 -127.631 230.216" stroke="url(#paint11_linear_261_122682)" stroke-opacity="0.5" stroke-miterlimit="10"/>
<path d="M1781.15 288.459C1726.39 277.571 1674.45 262.291 1626.78 243.044C1622.28 241.089 1617.67 239.491 1613.13 237.754C1529.98 206.103 1521.73 192.073 1464.32 170.949C1426.47 157.042 1405.07 145.407 1361.95 139.312C1334.7 135.67 1306.52 134.996 1278.78 137.324C1255.42 139.137 1238.47 144.673 1222.05 150.444C1202.57 157.297 1186.02 165.065 1164.86 172.973C1117.38 190.653 1071.06 195.976 1048.37 208.298C1013.3 212.875 981.994 212.355 950.156 212.865C930.831 208.789 913.909 205.511 898.658 206.87C837.04 182.782 821.551 173.648 740.482 163.587C708.776 159.67 671.598 159.81 640.36 160.12C634.82 160.146 629.614 160.172 624.808 160.195C568.274 161.516 535.537 165.153 479.837 166.549C434.917 167.676 406.112 159.002 369.899 153.249C356.417 151.161 342.746 149.512 328.948 148.309C262.198 142.19 237.102 143.26 193.987 150.682C159.682 156.579 118.536 165.829 59.9717 179.136C13.2536 189.698 -48.3472 204.423 -127.536 218.462" stroke="url(#paint12_linear_261_122682)" stroke-opacity="0.5" stroke-miterlimit="10"/>
<path d="M1783.08 285.212C1728.91 274.791 1677.28 260.26 1629.48 241.981C1624.97 240.223 1620.33 238.624 1615.76 237.005C1531.55 207.022 1522.3 194.451 1465.99 173.943C1427.4 159.893 1407.07 147.969 1363.32 141.755C1335.9 138.074 1307.53 137.454 1279.65 139.926C1255.82 141.881 1239.24 147.695 1222.92 153.746C1203.93 160.996 1187.65 168.984 1165.99 176.998C1117.24 195.031 1068.89 199.358 1047.33 210.714C1011.19 214.468 979.519 212.526 948.181 211.531C928.655 206.425 912 202.057 897.349 202.662C835.696 174.25 825.644 161.485 745.71 150.009C713.836 145.398 676.224 145.481 645.054 145.929L629.435 146.183C572.033 147.054 540.431 153.337 483.864 154.798C437.909 156.009 409.538 147.941 372.959 142.483C359.327 140.506 345.509 138.995 331.573 137.957C264.991 132.783 238.927 135.005 196.013 143.439C161.674 150.17 120.796 160.176 62.0316 173.63C15.3135 184.277 -46.9881 198.776 -127.579 211.506" stroke="url(#paint13_linear_261_122682)" stroke-opacity="0.5" stroke-miterlimit="10"/>
<path d="M1785.08 283.894C1731.51 273.998 1680.21 260.284 1632.28 243.052C1627.74 241.371 1623.1 239.889 1618.53 238.386C1533.08 210.01 1523.03 198.811 1467.65 178.962C1428.3 164.797 1409.07 152.554 1364.65 146.195C1337.06 142.504 1308.49 141.971 1280.48 144.624C1256.39 146.721 1240 152.741 1223.92 159.156C1205.27 166.513 1189.08 174.79 1167.19 182.955C1117.14 201.475 1066.82 204.67 1046.36 215.085C1009.12 218.019 975.912 217.744 946.241 212.126C924.98 208.091 910.092 200.421 896.175 200.488C834.52 167.719 829.94 151.306 751.073 138.204C719.098 132.855 680.986 132.901 649.982 133.467C644.308 133.495 639.035 133.679 634.263 133.781C575.993 134.975 545.527 142.39 488.058 144.728C441.169 146.639 413.132 138.558 376.185 133.391C362.423 131.498 348.467 130.124 334.4 129.277C267.851 125.006 240.953 128.404 198.206 137.858C163.868 145.451 123.257 156.222 64.2919 169.815C17.5737 180.556 -45.4293 194.842 -127.423 206.388" stroke="url(#paint14_linear_261_122682)" stroke-opacity="0.5" stroke-miterlimit="10"/>
<path d="M1786.92 282.614C1733.93 273.183 1682.94 260.247 1634.88 244.049C1630.31 242.465 1625.64 241.099 1621.1 239.693C1534.58 213.065 1523.63 203.361 1469.32 183.993C1429.27 169.711 1411.11 157.147 1365.85 150.665C1338.12 146.855 1309.35 146.321 1281.18 149.093C1256.75 151.334 1240.6 157.718 1224.72 164.32C1206.43 171.925 1190.45 180.49 1168 188.789C1116.71 207.739 1064.38 209.838 1044.99 219.332C1006.71 221.501 972.84 219.465 944.002 212.585C922.34 207.415 907.885 198.879 894.469 197.972C832.811 160.812 833.703 140.758 755.869 126.105C723.761 120.014 685.281 120.043 654.311 120.649L638.492 121.044C579.387 122.541 550.022 131.112 491.653 134.291C443.763 136.923 416.126 128.709 378.779 123.833C364.886 122.008 350.79 120.751 336.593 120.072C270.111 116.687 242.346 121.284 199.766 131.763C165.428 140.2 125.118 151.739 65.9188 165.492C3.25527 180.612 -61.507 192.395 -127.6 200.7" stroke="url(#paint15_linear_261_122682)" stroke-opacity="0.5" stroke-miterlimit="10"/>
<path d="M1788.85 282.179C1736.44 273.166 1685.76 260.981 1637.59 245.815C1632.98 244.328 1628.31 243.06 1623.77 241.771C1536.08 216.835 1524.27 208.492 1470.99 189.764C1430.14 175.365 1413.11 162.478 1367.35 155.849C1339.44 152.017 1310.48 151.577 1282.18 154.555C1257.49 156.94 1241.54 163.611 1225.82 170.5C1207.94 178.353 1192.15 187.189 1169.36 195.622C1116.77 215.004 1062.58 216.003 1044.19 224.573C1004.81 225.837 970.4 222.152 942.263 214.046C920.233 207.699 906.178 198.154 893.395 196.528C831.702 154.981 838.099 131.256 761.332 115.045C729.09 108.211 690.143 108.242 659.306 109.008C653.532 109.155 648.159 109.34 643.387 109.483C583.315 111.304 555.185 120.995 495.982 125.037C447.157 128.373 419.854 120.224 382.139 115.501C368.106 113.786 353.872 112.687 339.553 112.213C273.104 109.697 244.505 115.536 202.092 127.024C167.755 136.327 127.712 148.618 68.3123 162.551C5.09489 177.778 -60.5685 189.048 -127.61 196.177" stroke="url(#paint16_linear_261_122682)" stroke-opacity="0.5" stroke-miterlimit="10"/>
<path d="M1790.79 283.324C1738.94 274.734 1688.56 263.316 1640.29 249.212C1635.69 247.822 1630.98 246.65 1626.44 245.459C1537.55 222.27 1524.74 215.407 1472.66 197.153C1431.04 182.63 1415.11 169.394 1368.69 162.655C1340.62 158.77 1311.47 158.384 1283.05 161.52C1258.05 164.07 1242.3 171.013 1226.79 178.193C1209.27 186.239 1193.69 195.41 1170.5 203.981C1116.64 223.806 1060.37 223.742 1043.15 231.349C1002.71 231.785 967.828 226.343 940.29 217.005C917.993 209.432 904.238 198.951 892.055 196.583C830.36 150.595 842.296 123.192 766.529 105.432C734.219 97.8288 694.771 97.8222 664.034 98.7284C658.227 98.8961 652.82 99.1015 648.048 99.2641C587.208 101.392 560.18 112.27 500.109 117.16C450.317 121.224 423.347 113.037 385.332 108.546C371.144 106.934 356.762 105.973 342.311 105.671C275.896 104.005 246.497 111.114 204.251 123.619C169.913 133.737 130.104 146.867 70.504 160.949C6.82745 176.359 -59.6554 187.18 -127.523 193.179" stroke="url(#paint17_linear_261_122682)" stroke-opacity="0.5" stroke-miterlimit="10"/>
<path d="M1792.69 284.472C1741.41 276.273 1691.35 265.617 1643 252.608C1638.36 251.314 1633.65 250.281 1629.11 249.187C1538.99 227.697 1525.64 222.28 1474.34 204.588C1431.98 189.963 1417.12 176.379 1370.06 169.492C1341.83 165.542 1312.47 165.217 1283.92 168.537C1258.62 171.272 1243.07 178.446 1227.72 185.937C1210.57 194.294 1195.23 203.68 1171.63 212.387C1116.48 232.593 1058.17 231.523 1042.12 238.18C1005.28 238.098 969.306 231.798 938.352 220.007C915.82 211.186 902.299 199.788 890.75 196.655C829.018 146.239 846.526 115.133 771.726 95.8212C739.349 87.4268 699.4 87.4625 668.796 88.4494C662.889 88.6378 657.483 88.8636 652.677 89.0665C591.036 91.5607 565.009 103.45 504.07 109.29C453.377 114.064 426.674 105.861 388.292 101.603C374.941 100.133 360.857 99.9625 344.904 99.1632C278.755 95.8382 248.289 106.713 206.21 120.256C171.873 131.309 132.33 145.138 72.5299 159.386C8.32963 174.977 -59.016 185.364 -127.702 190.269" stroke="url(#paint18_linear_261_122682)" stroke-opacity="0.5" stroke-miterlimit="10"/>
<path d="M1794.63 285.621C1743.89 277.805 1694.13 267.921 1645.7 256.038C1641.03 254.862 1636.32 253.907 1631.75 252.931C1540.5 233.409 1526.11 229.186 1476.01 212.059C1432.85 197.314 1419.26 183.403 1371.4 176.369C1342.95 172.36 1313.35 172.097 1284.62 175.595C1259.06 178.516 1243.71 185.94 1228.53 193.722C1211.84 202.33 1196.63 211.989 1172.64 220.833C1116.18 241.557 1055.83 239.376 1040.95 245.02C1003.12 244.018 966.732 236.323 936.38 222.908C913.714 212.855 900.359 200.52 889.444 196.64C827.677 141.789 850.79 106.971 776.957 86.0861C744.479 76.9198 704.063 76.9779 673.492 78.0661C667.552 78.2749 662.078 78.5413 657.306 78.7444C594.797 81.5864 569.905 94.7077 508.065 101.32C456.371 106.825 430.168 98.5467 391.252 94.5638C376.721 93.4253 362.093 92.7504 347.43 92.5419C281.181 90.2903 250.048 102.224 208.103 116.787C173.799 128.716 134.49 143.306 74.6228 157.716C9.94328 173.453 -58.2166 183.357 -127.614 187.101" stroke="url(#paint19_linear_261_122682)" stroke-opacity="0.5" stroke-miterlimit="10"/>
<path d="M1796.57 286.771C1746.35 279.321 1696.88 270.218 1648.37 259.502C1643.7 258.425 1638.99 257.548 1634.42 256.711C1541.97 238.927 1526.71 236.162 1477.54 219.485C1433.75 204.742 1421.26 190.466 1372.76 183.305C1344.2 179.232 1314.44 179.022 1285.62 182.692C1259.76 185.798 1244.58 193.472 1229.63 201.544C1213.21 210.383 1198.3 220.334 1173.87 229.313C1116.18 250.472 1053.73 247.139 1040.05 251.966C1001.13 250.087 964.227 241.034 934.407 226.047C911.674 214.721 898.452 201.487 888.137 196.859C826.368 137.55 855.087 98.8954 782.153 76.5764C749.608 66.6175 708.725 66.6979 678.287 67.887C672.28 68.1164 666.773 68.4034 662.001 68.6467C598.59 71.8371 574.867 86.0913 512.126 93.5578C459.464 99.8151 433.628 91.463 394.411 87.7359C379.746 86.6626 364.978 86.1273 350.189 86.1329C283.84 84.9584 252.039 97.9524 210.261 113.555C175.924 126.341 136.849 141.711 76.7813 156.203C11.5814 172.102 -57.4282 181.539 -127.526 184.14" stroke="url(#paint20_linear_261_122682)" stroke-opacity="0.5" stroke-miterlimit="10"/>
<path d="M1798.44 287.923C1741.26 279.493 1689.96 270.875 1651.05 262.937C1646.31 261.959 1641.6 261.221 1637.06 260.443C1543.37 244.564 1527.28 243.121 1479.32 227.178C1434.62 212.26 1423.1 197.639 1374.07 190.331C1345.35 186.203 1315.39 186.055 1286.46 189.9C1260.29 193.213 1245.28 201.095 1230.53 209.477C1214.52 218.566 1199.8 228.79 1174.98 237.902C1115.98 259.496 1051.5 255.067 1038.98 258.853C998.994 256.074 961.642 245.675 932.403 229.182C909.636 216.579 895.045 203.235 886.765 197.048C809.978 139.499 859.385 90.8406 787.318 67.0466C754.739 56.274 713.288 56.3974 682.984 57.6874C676.91 57.9375 671.403 58.2649 666.597 58.5287C602.419 62.0675 579.831 77.4559 516.155 85.7576C462.525 92.7687 437.056 84.3639 397.439 80.9142C382.672 79.6727 367.731 79.2701 352.816 79.7116C286.434 81.399 253.899 93.6926 212.255 110.296C177.951 123.98 139.177 140.108 78.7748 154.822C13.0163 170.874 -56.8636 179.847 -127.637 181.324" stroke="url(#paint21_linear_261_122682)" stroke-opacity="0.5" stroke-miterlimit="10"/>
<path d="M1800.41 289.075C1742.6 280.899 1691.63 273.131 1653.78 266.4C1649.01 265.542 1644.3 264.903 1639.76 264.224C1544.77 250.257 1527.92 250.119 1481.02 234.673C1435.52 219.661 1425.14 204.657 1375.47 197.223C1346.57 193.034 1316.4 192.949 1287.33 196.974C1260.9 200.512 1246.08 208.604 1231.53 217.295C1215.85 226.634 1201.5 237.129 1176.14 246.375C1115.88 268.422 1049.56 262.875 1037.95 265.718C992.087 261.934 956.035 247.758 930.463 232.166C907.729 218.245 893.338 203.822 885.492 197.105C811.204 133.58 863.747 82.6426 792.581 57.3521C759.968 45.7849 717.949 45.9513 687.779 47.3425C681.638 47.6333 676.064 47.9614 671.292 48.2454C606.245 52.1535 584.759 68.7178 520.216 77.8356C465.651 85.5814 440.549 77.1045 400.565 73.9331C385.646 72.792 370.566 72.5371 355.541 73.1721C289.126 75.6435 255.824 89.2788 214.313 106.924C180.043 121.486 141.502 138.375 80.8327 153.247C33.8123 164.765 -34.5343 177.349 -127.684 178.328" stroke="url(#paint22_linear_261_122682)" stroke-opacity="0.5" stroke-miterlimit="10"/>
<path d="M1802.35 290.228C1743.94 282.247 1693.3 275.431 1656.49 269.853C1651.68 269.134 1646.98 268.595 1642.44 267.915C1546.34 256.005 1528.52 257.157 1482.69 242.25C1436.86 227.344 1427.14 211.798 1376.81 204.239C1347.76 199.973 1317.38 199.943 1288.2 204.153C1261.5 207.937 1246.82 216.198 1232.47 225.179C1217.15 234.747 1202.91 245.533 1177.28 254.911C1115.71 277.29 1047.39 270.742 1036.91 272.62C989.95 267.995 953.864 252.117 928.491 235.224C905.823 220.123 891.765 204.518 884.186 197.311C812.766 127.923 868.145 74.5687 797.778 47.822C765.165 35.4194 722.612 35.6489 692.508 37.1416C686.334 37.4529 680.727 37.8216 675.821 38.1267C609.94 42.4646 589.556 60.0649 524.144 70.0599C468.612 78.5412 443.843 69.9933 403.492 67.1013C388.422 66.0547 373.201 65.9413 358.068 66.7628C291.619 70.0399 257.616 85.0179 216.206 103.685C181.969 119.126 143.662 136.774 82.7257 151.804C35.6383 163.415 -33.3429 175.796 -127.895 175.398" stroke="url(#paint23_linear_261_122682)" stroke-opacity="0.5" stroke-miterlimit="10"/>
<path d="M1804.25 291.382C1745.27 283.637 1694.97 277.738 1659.19 273.293C1654.35 272.694 1649.65 272.235 1645.11 271.776C1547.85 261.788 1529.12 264.211 1484.36 249.826C1437.26 234.71 1429.18 218.96 1378.18 211.256C1348.96 206.909 1318.37 206.942 1289.06 211.353C1262.1 215.403 1247.55 223.832 1233.4 233.082C1218.46 242.919 1204.44 253.957 1178.38 263.487C1115.58 286.397 1044.72 281.583 1035.87 279.557C990.212 269.155 951.725 256.527 926.519 238.29C903.95 221.948 890.025 205.242 882.846 197.342C814.56 122.244 872.575 66.291 802.975 38.0871C770.361 24.8683 727.241 25.1811 697.27 26.755C690.996 27.0872 685.389 27.4764 680.583 27.8014C613.834 32.4293 594.618 51.247 528.305 62.1004C471.838 71.3382 447.437 62.6995 406.684 60.0877C391.461 59.139 376.099 59.1675 360.86 60.1728C294.378 64.2368 259.641 80.5796 218.398 100.269C184.161 116.509 146.088 135.018 84.9175 150.205C37.7964 161.908 -31.8862 174.044 -127.808 172.327" stroke="url(#paint24_linear_261_122682)" stroke-opacity="0.5" stroke-miterlimit="10"/>
<path d="M1806.19 292.537C1746.61 284.928 1696.68 280.107 1661.9 276.82C1657.02 276.362 1652.32 275.983 1647.75 275.623C1549.35 267.623 1529.69 271.279 1486.03 257.459C1437.97 242.213 1431.28 226.159 1379.51 218.371C1350.13 213.964 1319.32 214.06 1289.9 218.652C1262.73 222.989 1248.29 231.545 1234.37 241.045C1219.76 251.171 1205.98 262.439 1179.52 272.08C1115.41 295.419 1043.05 287.069 1034.84 286.527C984.775 283.174 949.62 260.968 924.68 241.385C907.811 227.721 893.395 213.011 881.673 197.5C816.555 116.827 877.14 58.1353 808.173 28.4744C775.592 14.4389 731.87 14.775 701.999 16.4706C695.692 16.8234 690.018 17.2535 685.312 17.5984C617.762 22.6567 599.648 42.5925 532.401 54.2447C475.032 64.2596 450.931 55.4707 409.811 53.18C394.431 52.33 378.929 52.5076 363.586 53.7095C297.037 58.5618 261.667 76.3305 220.49 96.9831C186.321 114.223 148.482 133.371 87.0103 148.695C39.8222 160.489 -30.4617 172.418 -127.82 169.359" stroke="url(#paint25_linear_261_122682)" stroke-opacity="0.5" stroke-miterlimit="10"/>
<path d="M1808.12 293.693C1748.05 286.423 1698.41 282.522 1664.6 280.314C1552.72 273.017 1532.23 278.954 1487.7 265.087C1438.97 249.891 1433.19 233.336 1380.88 225.363C1351.34 220.876 1320.31 221.029 1290.77 225.808C1234.77 235.342 1233.24 261.552 1180.65 280.689C1115.28 304.477 1040.95 294.52 1033.8 293.489C938.611 279.871 894.193 217.078 880.234 197.646C818.351 111.574 881.504 49.9817 813.404 18.8621C773.879 0.803657 717.008 5.25012 689.908 7.39634C621.523 12.765 604.511 33.8595 536.396 46.3914C459.638 60.5356 442.708 40.8161 366.179 47.2311C244.095 57.5539 224.528 113.135 89.2034 147.211C41.9817 159.096 -28.9703 170.797 -127.731 166.393" stroke="url(#paint26_linear_261_122682)" stroke-opacity="0.5" stroke-miterlimit="10"/>
<path d="M1806.32 291.142C1747.31 283.872 1698.51 279.608 1664.7 277.281C1555.79 269.533 1534.53 275.108 1490.27 261.23C1442.44 246.183 1436.06 230.127 1385.05 222.094C1356.12 217.631 1325.76 217.546 1296.64 221.846C1241.37 229.981 1239.25 255.53 1187.46 273.923C1123.49 296.801 1051.39 287.765 1043.05 286.982C964.979 279.745 921.904 233.607 900.7 208.977C896.359 203.952 893.22 199.624 890.682 196.499C827.232 115.11 887.082 55.9759 819.984 26.626C779.926 9.14779 722.589 13.8745 694.354 15.9241C668.48 17.7631 643.401 22.5983 620.5 30.1632C597.14 37.3366 575.282 45.4075 539.339 50.8733C528.326 52.5363 518.514 53.4694 509.703 54.277C456.304 59.1854 435.706 47.845 371.361 55.0595C346.469 57.8154 322.5 63.0945 300.478 70.6716C240.711 91.0751 203.346 127.455 110.807 154.334C105.379 155.916 99.7054 157.459 93.7874 158.963C46.1323 171.143 -25.8872 183.382 -126.15 179.311" stroke="url(#paint27_linear_261_122682)" stroke-opacity="0.5" stroke-miterlimit="10"/>
<path d="M1804.51 288.592C1746.7 281.323 1698.61 276.878 1664.76 274.272C1558.89 266.094 1536.97 271.265 1492.84 257.358C1445.87 242.642 1438.92 226.743 1389.36 218.85C1361.02 214.402 1331.28 214.066 1302.58 217.871C1248.15 224.709 1245.26 249.416 1194.3 267.187C1131.7 289.013 1061.51 282.427 1052.36 280.483C980.129 265.268 933.254 230.339 911.416 207.161C906.975 202.441 903.903 198.297 901.399 195.376C836.483 118.565 892.796 62.0314 826.767 34.3894C786.376 17.5106 728.405 22.4975 699.035 24.4705C672.958 26.2105 647.542 30.652 623.912 37.5986C600.185 44.0844 577.994 51.0851 542.484 55.3385C531.437 56.6788 521.558 57.2097 512.748 58.0165C459.516 62.9198 439.82 53.9958 376.778 62.9054C352.173 66.4402 328.613 72.2786 306.964 80.2064C249.434 100.581 210.2 138.205 115.793 165.954C110.287 167.548 104.547 169.144 98.5737 170.7C50.5185 183.172 -22.5682 195.949 -124.365 192.231" stroke="url(#paint28_linear_261_122682)" stroke-opacity="0.5" stroke-miterlimit="10"/>
<path d="M1802.71 286.044C1746.1 278.795 1698.74 274.07 1664.93 271.166C1562.06 262.619 1539.4 267.327 1495.47 253.432C1449.41 238.966 1441.86 223.386 1393.49 215.535C1365.77 211.127 1336.68 210.584 1308.45 213.946C1255.06 219.528 1251.23 243.393 1201.11 260.461C1139.87 281.317 1071.92 276.392 1061.6 274.034C1004.25 260.492 955.483 236.497 922.098 205.389C917.557 200.976 914.518 197.016 912.08 194.278C845.765 122.202 898.474 68.0476 833.615 42.1116C792.756 25.8129 734.252 31.0989 703.748 32.9552C677.46 34.6271 651.715 38.686 627.39 44.9932C603.229 50.7926 580.67 56.7047 545.694 59.7873C534.547 60.7655 524.635 60.9147 515.824 61.7208C462.659 66.6393 444.033 60.0668 382.327 70.7079C358.054 75.0383 334.906 81.4246 313.582 89.6737C258.288 110.159 217.019 148.821 120.944 177.516C115.405 179.149 109.598 180.777 103.525 182.4C55.0693 195.143 -19.1183 208.455 -122.416 205.069" stroke="url(#paint29_linear_261_122682)" stroke-opacity="0.5" stroke-miterlimit="10"/>
<path d="M1800.9 283.515C1745.5 276.247 1698.84 271.263 1664.96 268.141C1565.1 259.228 1541.67 263.473 1498.08 249.571C1452.95 235.335 1444.66 220.116 1397.77 212.286C1370.62 207.856 1342.15 207.038 1314.33 209.889C1261.7 214.158 1257.2 237.24 1207.88 253.624C1148.01 273.67 1083.1 266.129 1070.85 267.532C1000.26 259.317 955.852 223.983 932.747 203.563C928.106 199.475 925.134 195.72 922.53 193.146C854.749 125.743 903.855 74.1075 840.198 49.9166C798.806 34.1986 739.867 39.7621 708.195 41.542C681.675 43.1386 655.589 46.8128 630.603 52.4709C605.974 57.585 583.148 62.3894 548.605 64.3238C537.392 64.9605 527.446 64.7086 518.568 65.5142C465.471 70.4273 447.914 66.2826 387.343 78.5716C361.68 83.791 340.624 91.1935 319.668 99.2372C266.543 119.731 223.44 159.646 125.531 189.143C119.969 190.815 114.095 192.481 107.911 194.143C59.0219 207.196 -16.2328 221.041 -121.032 217.987" stroke="url(#paint30_linear_261_122682)" stroke-opacity="0.5" stroke-miterlimit="10"/>
<path d="M1799.13 280.966C1745.02 273.72 1698.97 268.478 1664.92 265.24C1568.13 255.981 1544.1 259.664 1500.51 245.857C1456.31 231.813 1447.53 216.974 1401.8 209.187C1375.29 204.761 1347.48 203.711 1320.17 206.102C1268.54 209.32 1263.14 231.36 1214.65 247.041C1156.19 265.936 1093.64 259.092 1080.02 261.102C1011.54 253.667 967.166 220.835 943.361 201.803C938.62 198.021 935.682 194.45 933.011 192.059C863.797 129.365 909.199 80.229 846.811 57.7213C804.886 42.5842 745.481 48.4442 712.707 50.1074C679.333 51.7935 655.806 56.0553 633.847 59.9287C608.751 64.3584 585.391 70.7225 551.581 68.8654C541.587 68.268 531.497 68.4185 521.544 69.3134C468.48 74.2209 452.059 72.3987 392.658 86.451C367.796 92.3216 347.107 100.335 325.918 108.812C274.963 129.252 230.025 170.354 130.314 200.768C124.686 202.478 118.746 204.19 112.494 205.903C63.2055 219.225 -13.1167 233.601 -119.45 230.898" stroke="url(#paint31_linear_261_122682)" stroke-opacity="0.5" stroke-miterlimit="10"/>
<path d="M1797.32 278.398C1744.29 271.156 1699.06 265.656 1665.15 262.201C1571.26 252.659 1546.47 255.821 1503.08 241.99C1459.68 228.159 1450.36 213.72 1406.01 205.915C1367.36 199.123 1335.15 200.781 1325.9 202.127C1276.61 209.371 1269.01 225.313 1221.33 240.291C1164.26 258.216 1104.02 252.009 1089.13 254.603C1022.78 247.927 978.481 217.675 953.876 199.99C949.068 196.513 946.163 193.126 943.459 190.899C872.813 132.908 914.41 86.3302 853.292 65.4237C810.766 50.8679 750.995 57.0228 717.053 58.5897C683.112 60.1566 659.317 64.0344 636.958 67.325C611.428 71.0713 587.267 76.6114 554.425 73.3114C544.513 72.2612 534.373 72.1691 524.387 73.0386C471.391 77.9399 456.072 78.4352 397.873 94.2252C373.779 100.745 353.558 109.387 332.336 118.214C283.517 138.459 236.711 180.901 135.233 212.228C129.56 213.976 123.553 215.726 117.212 217.478C67.4901 231.085 -9.89926 245.989 -117.734 243.637" stroke="url(#paint32_linear_261_122682)" stroke-opacity="0.5" stroke-miterlimit="10"/>
<path d="M1795.52 275.914C1743.68 268.616 1699.19 262.84 1665.25 259.25C1574.37 249.466 1548.84 252.048 1505.64 238.234C1463.25 224.656 1453.23 210.52 1410.18 202.739C1372.59 195.95 1341.29 196.963 1331.91 198.247C1283.59 204.917 1275.18 219.344 1228.27 233.619C1172.61 250.594 1114.8 244.984 1098.51 248.24C1034.26 242.341 990.131 214.806 964.692 198.288C960.937 195.598 957.416 192.795 954.142 189.888C882.13 136.596 919.823 92.5965 860.175 73.2689C817.015 59.3149 756.877 65.7831 721.801 67.2136C688.06 68.6176 663.264 72.1555 640.471 74.8445C614.473 77.9088 589.511 82.4865 557.67 77.9073C547.813 76.3929 537.541 76.0495 527.432 76.8966C474.469 81.8112 460.286 84.5779 403.257 102.139C379.898 109.307 360.211 118.534 338.822 127.789C292.106 147.997 243.465 191.591 140.219 223.824C134.501 225.61 128.428 227.398 121.999 229.188C71.9429 243.079 -6.58058 258.508 -115.95 256.486" stroke="url(#paint33_linear_261_122682)" stroke-opacity="0.5" stroke-miterlimit="10"/>
<path d="M1793.71 273.41C1743.08 266.156 1699.32 260.185 1665.31 256.282C1577.47 246.218 1551.2 248.241 1508.04 234.447C1466.55 221.104 1455.93 207.35 1414.21 199.614C1377.5 192.831 1347.26 193.199 1337.62 194.423C1290.23 200.46 1280.89 213.434 1234.9 227.025C1180.65 243.031 1125.07 238.036 1107.59 241.833C1045.48 236.71 1001.58 211.687 975.172 196.595C971.383 194.133 967.828 191.546 964.522 188.846C891.078 140.267 924.868 98.8847 866.688 81.0943C822.895 67.7223 762.424 74.462 726.213 75.7962C692.172 77.0799 666.809 80.2564 643.615 82.3449C616.045 84.7464 588.076 84.7958 560.546 82.4918C548.798 81.6515 538.918 79.9442 530.208 80.6452C477.312 85.5723 464.265 90.5638 408.404 109.909C385.914 117.7 366.594 127.57 345.005 137.212C300.326 157.221 249.95 202.137 144.802 235.27C139.063 237.073 132.889 238.919 126.349 240.766C75.8263 254.979 -3.798 270.889 -114.568 269.197" stroke="url(#paint34_linear_261_122682)" stroke-opacity="0.5" stroke-miterlimit="10"/>
<path d="M1791.74 269.961C1742.31 262.731 1699.25 256.465 1665.24 252.387C1580.54 242.102 1553.54 243.568 1510.78 229.73C1470.16 216.619 1458.97 203.224 1418.55 195.512C1383.04 188.731 1353.6 188.477 1343.69 189.621C1297.17 194.969 1287.13 206.574 1241.85 219.468C1189.02 234.51 1135.75 230.128 1117 234.503C1056.92 230.154 1013.53 207.791 986.021 193.859C982.196 191.627 978.596 189.263 975.238 186.778C900.627 142.89 930.179 104.131 873.536 87.8504C829.043 75.0568 768.305 82.0682 730.926 83.3068C696.652 84.4505 670.688 87.2672 647.093 88.7572C620.194 90.4627 595.129 89.2502 563.656 85.9968C551.741 84.7599 541.895 82.7158 533.218 83.5154C480.389 88.4358 468.444 95.6472 413.753 116.815C392.063 125.23 373.212 135.703 351.456 145.772C308.779 165.546 256.669 211.787 149.887 245.842C144.08 247.704 137.874 249.567 131.233 251.472C80.3105 265.908 -0.280901 282.381 -112.686 281.037" stroke="url(#paint35_linear_261_122682)" stroke-opacity="0.5" stroke-miterlimit="10"/>
<path d="M1790.11 261.532C1741.88 254.287 1699.56 247.811 1665.51 243.45C1583.64 232.938 1555.91 233.752 1513.35 219.997C1473.63 207.085 1461.84 193.997 1422.72 186.309C1388.28 179.515 1359.78 178.637 1349.56 179.705C1303.91 184.336 1293.14 194.642 1248.65 206.869C1197.26 221.084 1146.3 217.184 1126.24 222.189C1068.37 218.482 1028.61 195.617 996.667 186.058C992.428 183.366 988.756 181.19 985.818 179.648C909.941 140.362 935.256 104.092 880.215 89.2808C834.987 77.0743 773.982 84.3744 735.469 85.5003C700.96 86.5069 674.395 88.9708 650.4 89.906C623.033 90.9375 597.501 88.4092 566.795 84.2307C554.712 82.5942 544.899 80.2085 536.256 81.0287C483.46 85.9548 472.65 95.3035 419.162 118.426C398.24 127.445 379.855 138.566 357.933 149.106C317.225 168.675 263.413 216.395 154.862 251.436C149.011 253.313 142.727 255.232 136.008 257.193C84.6516 271.847 2.89203 288.884 -110.915 287.785" stroke="url(#paint36_linear_261_122682)" stroke-opacity="0.5" stroke-miterlimit="10"/>
<path d="M1788.41 253.95C1741.28 246.69 1699.7 239.982 1665.62 235.375C1586.72 224.654 1558.11 224.795 1515.92 210.938C1477.1 198.244 1464.72 185.46 1426.93 177.774C1393.55 170.986 1365.99 169.563 1355.44 170.474C1310.62 174.349 1299.14 183.374 1255.33 194.935C1205.27 208.165 1156.71 204.947 1135.35 210.544C1079.62 207.701 1040.26 186.899 1007.21 178.971C1003.75 176.921 1000.08 174.997 996.232 173.212C919.188 138.491 940.166 104.909 886.761 91.4068C840.766 79.7863 779.56 87.3773 739.912 88.3705C705.136 89.2599 677.97 91.3706 653.607 91.6697C625.773 92.0257 599.739 88.1381 569.699 83.0715C557.483 81.0138 547.67 78.3052 539.027 79.2265C486.33 84.1789 476.59 95.7527 424.303 120.759C404.283 130.386 386.232 142.14 364.243 153.154C325.504 172.481 270.024 221.734 159.704 257.791C153.831 259.818 147.457 261.687 140.649 263.678C88.8923 278.773 6.16463 296.298 -109.278 295.685" stroke="url(#paint37_linear_261_122682)" stroke-opacity="0.5" stroke-miterlimit="10"/>
<path d="M1786.55 246.329C1740.65 239.054 1699.77 232.114 1665.72 227.22C1589.79 216.352 1560.65 215.835 1518.5 201.941C1480.58 189.446 1467.59 176.968 1431.11 169.307C1398.73 162.505 1372.16 162.055 1361.32 161.288C1317.43 158.143 1305.15 172.165 1262.27 183.036C1213.71 195.274 1167.39 192.721 1144.73 198.933C1091.1 196.856 1052.21 178.205 1017.9 171.913C1014.4 170.063 1010.7 168.357 1006.81 166.807C928.636 136.688 945.21 105.785 893.307 93.6183C846.577 82.6066 785.138 90.4484 744.321 91.3486C709.278 92.1005 681.544 93.8366 656.78 93.558C628.478 93.2367 602.01 87.9461 572.604 81.9699C560.221 79.4904 550.474 76.478 541.83 77.2805C489.167 82.259 480.496 96.0025 429.478 122.955C410.092 133.19 392.609 145.597 370.386 157.087C333.683 176.148 276.434 226.952 164.345 264.104C158.405 266.054 151.987 268.085 145.09 270.199C92.9321 285.616 9.10296 303.788 -107.842 303.442" stroke="url(#paint38_linear_261_122682)" stroke-opacity="0.5" stroke-miterlimit="10"/>
<path d="M1784.75 238.651C1740.06 231.281 1699.94 224.209 1665.83 219.05C1592.86 208.035 1563.03 206.82 1521.07 192.889C1484.05 180.615 1470.46 168.528 1435.31 160.691C1403.97 153.876 1378.31 152.961 1367.23 151.954C1324.44 148.159 1311.19 160.799 1269.08 170.998C1221.96 182.423 1177.9 180.356 1153.98 187.182C1102.48 185.853 1063.86 169.402 1028.68 164.729C1025.15 163.076 1021.41 161.588 1017.49 160.279C938.251 134.757 950.22 106.544 900.253 95.7163C852.623 85.3574 791.083 93.4488 749.164 94.2153C713.854 94.8492 685.519 96.2097 660.354 95.3321C631.585 94.3319 604.682 87.5958 575.91 80.8688C563.393 77.9267 553.646 74.6105 545.035 75.4337C492.439 80.4175 484.77 96.3141 434.92 125.233C416.302 136.077 399.286 149.116 376.93 161.1C341.962 179.874 283.245 232.245 169.387 270.249C163.402 272.267 156.917 274.301 149.932 276.351C97.3399 292.068 12.4758 310.806 -106.005 310.787" stroke="url(#paint39_linear_261_122682)" stroke-opacity="0.5" stroke-miterlimit="10"/>
<path d="M1782.95 230.975C1739.56 223.691 1700.08 216.308 1665.93 210.862C1595.84 199.741 1565.4 197.765 1523.64 183.838C1487.49 171.768 1473.33 159.89 1439.49 152.179C1409.21 145.351 1384.45 143.97 1373.1 142.722C1331.45 138.176 1317.2 149.552 1275.89 159.056C1230.2 169.564 1188.45 168.086 1163.22 175.526C1113.82 174.967 1075.77 160.681 1039.32 157.653C1035.75 156.205 1031.98 154.942 1028.04 153.88C947.932 132.885 955.13 107.591 906.932 97.9657C858.734 88.34 796.793 96.5023 753.707 97.2152C718.162 97.7307 689.227 98.7349 663.594 97.2572C634.39 95.5765 607.052 87.5121 578.88 79.8326C566.23 76.4269 556.483 72.8465 547.906 73.6504C495.375 78.6594 488.675 96.6734 440.261 127.602C422.344 139.036 405.796 152.708 383.307 165.207C350.207 183.631 289.888 237.61 174.294 276.707C168.287 278.741 161.714 280.778 154.639 282.997C101.713 299.114 15.7476 318.419 -104.236 318.648" stroke="url(#paint40_linear_261_122682)" stroke-opacity="0.5" stroke-miterlimit="10"/>
<path d="M1781.16 223.293C1738.87 215.996 1700.18 208.401 1666 202.69C1598.98 191.461 1567.77 188.745 1526.21 174.783C1490.96 162.917 1476.14 151.372 1443.7 143.746C1414.42 136.907 1390.56 135.058 1378.98 133.57C1338.42 128.372 1323.24 138.359 1282.66 147.187C1238.44 156.795 1198.99 155.866 1172.53 163.922C1125.27 164.154 1087.65 152.039 1050.07 150.659C1046.43 149.416 1042.61 148.367 1038.66 147.524C957.347 131.029 960.007 108.703 913.612 100.262C864.246 91.2949 802.505 99.7654 758.25 100.264C722.472 100.681 692.935 101.308 666.968 99.2282C637.297 96.8659 609.591 87.2502 581.986 78.858C569.202 74.9077 559.488 71.1229 550.911 71.9477C498.414 76.9414 492.682 97.0957 445.604 130.035C428.421 142.058 412.24 156.284 389.751 169.378C358.453 187.45 296.6 243.036 179.236 283.143C173.163 285.22 166.545 287.366 159.381 289.582C105.988 305.897 18.9539 325.789 -102.565 326.447" stroke="url(#paint41_linear_261_122682)" stroke-opacity="0.5" stroke-miterlimit="10"/>
<path d="M1779.36 215.526C1738.27 208.217 1700.32 200.43 1666.11 194.412C1602.02 183.119 1570.11 179.621 1528.79 165.604C1494.44 153.984 1479.08 142.732 1447.87 135.133C1427.44 130.412 1406.36 126.767 1384.85 124.236C1345.4 118.405 1329.28 127 1289.47 135.129C1246.72 143.835 1209.37 143.557 1181.71 152.149C1136.59 153.115 1099.37 143.215 1060.65 143.466C1056.95 142.436 1053.1 141.614 1049.14 141.012C967.095 129.044 964.817 109.754 920.291 102.482C869.991 94.2738 808.183 102.391 762.826 103.257C726.781 103.937 696.676 103.784 670.275 101.122C640.236 98.0763 612.062 86.9677 585.024 77.8016C572.139 73.4465 562.392 69.3169 553.848 70.1422C501.418 75.1604 496.588 97.4178 450.879 132.389C434.43 144.983 418.75 159.883 396.094 173.471C366.632 191.17 303.243 248.382 184.111 289.499C178.004 291.537 171.33 293.8 164.089 296.065C110.262 312.739 22.1592 333.177 -100.862 334.164" stroke="url(#paint42_linear_261_122682)" stroke-opacity="0.5" stroke-miterlimit="10"/>
<path d="M1777.56 207.756C1737.51 200.435 1700.42 192.477 1666.21 186.193C1605.06 174.875 1572.48 170.573 1531.33 156.523C1497.94 145.129 1481.95 134.172 1452.08 126.6C1432.17 121.744 1411.66 117.813 1390.73 114.841C1352.31 108.417 1335.33 115.597 1296.28 122.986C1255 130.828 1220.05 131.02 1190.95 140.29C1147.93 142.05 1111.15 134.331 1071.33 136.236C1067.56 135.426 1063.68 134.826 1059.72 134.444C976.743 126.912 969.594 110.765 926.97 104.623C875.702 97.2371 813.894 105.462 767.369 106.174C731.057 106.714 700.384 106.202 673.582 102.937C643.008 99.208 614.6 86.6033 588.029 76.6631C575.111 71.8219 565.296 67.4277 556.786 68.2536C504.388 73.2961 500.461 97.659 456.187 134.664C440.406 147.848 425.16 163.342 402.471 177.464C374.71 194.768 309.854 253.625 188.919 295.772C182.779 297.913 176.005 300.158 168.663 302.485C114.402 319.458 25.1646 340.462 -99.2925 341.799" stroke="url(#paint43_linear_261_122682)" stroke-opacity="0.5" stroke-miterlimit="10"/>
<path d="M1775.8 199.972C1737.08 192.659 1700.53 184.51 1666.31 177.859C1608.2 166.497 1574.82 161.39 1533.9 147.308C1501.35 136.122 1484.83 125.42 1456.25 117.936C1436.86 113.037 1416.95 108.914 1396.64 105.596C1359.22 98.5986 1341.37 104.32 1303.19 111.006C1263.34 117.942 1230.7 118.687 1200.3 128.594C1159.42 131.109 1123.07 125.595 1082.08 129.177C1078.25 128.58 1074.33 128.202 1070.37 128.048C986.46 124.921 974.539 112.064 933.752 106.974C881.516 100.432 819.708 108.743 772.014 109.26C735.468 109.682 704.194 108.81 676.991 104.941C645.95 100.527 617.24 86.425 591.169 75.7098C578.184 70.3621 568.336 65.7634 559.825 66.5497C507.494 71.5959 504.369 98.0869 461.565 137.126C446.485 150.881 431.539 166.949 408.95 181.646C382.791 198.533 316.6 258.953 193.863 302.209C187.689 304.392 180.848 306.679 173.406 309.049C118.744 326.319 28.5057 347.908 -97.554 349.515" stroke="url(#paint44_linear_261_122682)" stroke-opacity="0.5" stroke-miterlimit="10"/>
<path d="M1774 192.169C1736.48 184.824 1700.57 176.545 1666.42 169.526C1611.08 158.182 1577.2 152.208 1536.47 138.114C1504.79 127.157 1487.7 116.792 1460.46 109.296C1441.58 104.276 1422.24 99.9147 1402.52 96.2333C1366.1 88.6615 1347.44 92.9414 1309.9 98.9051C1271.52 104.974 1241.15 106.251 1209.45 116.756C1170.66 120.048 1134.75 116.742 1092.63 121.943C1088.71 121.647 1084.77 121.499 1080.82 121.498C996.04 119.642 979.216 113.242 940.331 109.165C887.127 103.589 825.286 112.27 776.49 112.229C739.776 112.189 707.802 111.279 680.198 106.805C648.689 101.706 619.745 86.0838 594.107 74.6133C581.055 68.7584 571.14 63.8948 562.663 64.7017C510.365 69.7516 508.041 98.3327 466.773 139.408C452.361 153.754 437.849 170.395 415.194 185.708C390.836 202.177 323.077 264.342 198.737 308.524C192.486 310.757 185.6 313.079 178.081 315.492C123.018 333.119 31.6778 355.254 -95.8844 357.252" stroke="url(#paint45_linear_261_122682)" stroke-opacity="0.5" stroke-miterlimit="10"/>
<path d="M1772.2 184.372C1735.88 177.036 1700.67 168.607 1666.52 161.24C1614.05 149.934 1579.57 143.093 1539.04 128.948C1508.27 118.22 1490.61 108.152 1464.64 100.685C1440.6 93.7516 1421.24 89.8176 1408.39 86.8589C1372.94 78.7531 1353.49 81.5692 1316.71 86.7677C1283.44 91.5437 1250.7 97.6076 1218.69 104.922C1183.58 112.55 1146.94 120.145 1103.31 114.74C1099.35 114.426 1095.33 114.501 1091.4 114.96C1005.49 120.501 984.025 114.482 947.01 111.381C892.805 106.854 830.996 115.42 781.032 115.223C743.951 115.084 711.509 113.773 683.504 108.713C651.56 102.827 622.348 85.7647 597.144 73.5384C584.058 67.1758 574.043 62.0674 565.566 62.895C513.368 67.9682 511.779 98.6616 472.147 141.773C458.402 156.71 444.225 173.886 421.67 189.793C399.114 205.701 329.686 269.55 203.711 314.901C197.437 317.128 190.363 319.521 182.854 321.996C127.357 339.919 34.982 362.619 -94.1494 364.97" stroke="url(#paint46_linear_261_122682)" stroke-opacity="0.5" stroke-miterlimit="10"/>
<path d="M1770.4 176.541C1735.29 169.195 1700.74 160.756 1666.59 152.86C1617.03 141.593 1581.91 133.863 1541.62 119.687C1511.58 109.19 1493.48 99.4206 1468.85 91.9817C1445.85 85.0186 1427.15 80.6956 1414.27 77.4729C1379.75 68.8328 1359.56 70.2028 1323.52 74.6351C1288.11 78.9835 1264.61 84.4224 1227.94 93.0514C1194.9 100.836 1159.72 102.481 1113.96 107.526C1109.76 107.991 1105.72 107.97 1101.95 108.392C1014.97 118.258 988.838 115.766 953.691 113.601C898.519 110.224 836.676 118.554 785.61 118.222C748.262 117.963 715.218 116.271 686.813 110.646C654.401 104.152 624.989 85.5071 600.184 72.5044C587.064 65.6336 576.816 60.2809 568.505 61.1083C516.374 66.1846 515.487 99.0122 477.357 144.222C464.247 159.751 450.37 177.42 427.949 193.983C406.828 209.572 336.199 274.983 208.488 321.341C202.147 323.61 195.139 326.044 187.431 328.582C131.533 346.802 38.0561 370.067 -92.5444 372.769" stroke="url(#paint47_linear_261_122682)" stroke-opacity="0.5" stroke-miterlimit="10"/>
<path d="M1768.44 168.715C1734.53 161.357 1700.61 152.749 1666.53 144.586C1619.8 133.378 1584.12 124.819 1544.02 110.532C1515.02 100.266 1496.19 90.796 1472.85 83.3662C1450.92 76.4136 1433.03 71.7208 1419.98 68.1539C1386.36 58.9795 1365.44 58.9014 1330.13 62.546C1296.22 66.0626 1274.76 71.5957 1237.01 81.1634C1205.94 89.1044 1171.4 92.9268 1124.48 100.28C1120.3 100.926 1116.17 101.209 1112.33 101.813C1024.22 115.988 993.379 113.356 960.204 115.82C903.69 119.851 846.829 121.642 789.986 121.181C752.371 120.822 718.76 118.749 689.853 112.477C656.974 105.296 627.393 85.1265 603.056 71.3669C589.936 63.9875 579.686 58.4095 571.276 59.2177C519.177 64.3172 519.026 99.2599 482.466 146.407C469.99 162.507 456.347 180.671 434.126 197.909C414.607 213.035 342.676 280.168 213.196 327.512C206.822 329.823 199.847 332.299 191.938 334.88C135.607 353.436 41.0947 377.266 -91.0417 380.28" stroke="url(#paint48_linear_261_122682)" stroke-opacity="0.5" stroke-miterlimit="10"/>
<path d="M1766.81 163.069C1734.1 155.699 1700.82 147.02 1666.67 138.426C1622.74 127.316 1586.56 117.742 1546.5 103.503C1518.36 93.5467 1498.96 84.2738 1476.93 76.8917C1456.07 69.9077 1438.94 64.8436 1425.79 60.9915C1392.98 51.3004 1371.41 49.7716 1336.84 52.6282C1304.4 55.3128 1284.87 60.8409 1246.16 71.613C1216.99 79.7331 1182.95 85.6563 1135.03 95.3836C1130.85 96.2321 1126.72 96.7978 1122.78 97.6047C1033.47 116.058 998.058 117.929 966.785 120.386C909.617 124.925 852.018 126.984 794.429 126.549C756.58 126.07 722.368 123.615 693.193 116.732C659.813 108.821 630.098 87.1813 605.994 72.7423C592.907 64.8516 582.624 59.0065 574.113 59.8361C522.081 64.9598 522.565 102.029 487.674 151.248C475.832 167.965 462.323 186.588 440.402 204.505C422.418 219.193 349.22 288.045 217.97 336.408C211.562 338.762 204.387 341.281 196.512 343.904C139.779 362.782 44.1653 387.182 -89.474 390.549" stroke="url(#paint49_linear_261_122682)" stroke-opacity="0.5" stroke-miterlimit="10"/>
<path d="M1765.12 160.018C1733.61 152.635 1700.9 143.943 1667.02 134.874C1625.89 123.859 1589.04 113.39 1549.45 99.0727C1522.17 89.2832 1502.24 80.3466 1481.51 73.0109C1461.68 65.9941 1445.33 60.5974 1432.04 56.3377C1400.03 46.1269 1377.83 43.1645 1344.02 45.2119C1313.05 47.0835 1295.32 52.4671 1255.78 64.4877C1228.48 72.7083 1194.84 80.7985 1146.08 92.9254C1141.87 93.9569 1137.7 94.8063 1133.73 95.8165C1043.09 118.601 1003.37 125.044 973.834 127.434C916.328 132.065 853.88 135.163 799.375 134.362C761.258 133.803 726.478 130.944 696.869 123.45C663.054 114.885 633.205 91.6869 609.4 76.362C596.312 67.9373 585.796 61.885 577.419 62.7149C525.419 67.8237 526.571 107.072 493.316 158.335C482.109 175.653 468.666 194.72 447.146 213.362C430.664 227.593 356.23 298.182 223.21 347.575C216.736 349.952 209.528 352.535 201.552 355.222C144.385 374.405 47.7355 399.382 -87.4406 403.144" stroke="url(#paint50_linear_261_122682)" stroke-opacity="0.5" stroke-miterlimit="10"/>
<path d="M1763.27 157.103C1732.92 149.727 1700.74 141.024 1667.03 131.439C1627.61 120.441 1589.19 108.191 1551.93 94.7418C1525.52 85.1611 1505.19 76.5012 1485.59 69.2337C1466.86 62.144 1451.24 56.435 1437.82 51.8278C1406.58 41.0774 1383.78 36.6988 1350.73 37.9148C1321.2 38.992 1305.18 44.1094 1264.93 57.4804C1239.36 65.9633 1206.09 76.0828 1156.63 90.5921C1152.43 91.8269 1148.22 92.9605 1144.18 94.154C1052.24 121.277 1008.52 133.37 980.418 134.622C921.708 137.179 859.495 143.315 803.821 142.316C765.436 141.677 730.088 138.373 700.078 130.287C665.795 121.028 635.845 96.2099 612.34 80.1404C599.319 71.2014 588.635 64.9014 580.258 65.7118C528.325 70.8656 530.212 112.272 498.526 165.581C487.338 185.546 472.193 204.632 453.425 222.415C438.411 236.228 362.775 308.53 228.018 358.95C221.511 361.37 214.236 363.996 206.159 366.727C148.592 386.233 50.8398 411.786 -85.8396 415.843" stroke="url(#paint51_linear_261_122682)" stroke-opacity="0.5" stroke-miterlimit="10"/>
<path d="M1761.48 154.304C1689.96 136.163 1620.79 114.847 1554.5 90.5302C1447.88 51.3889 1418.73 30.1086 1357.55 30.7566C1312.99 31.241 1302.48 42.7955 1167.32 88.4021C1065.66 122.705 1014.84 139.785 987.101 141.948C887.438 149.51 778.497 158.799 703.387 137.281C649.241 121.775 606.56 66.7232 583.196 69.0262C513.94 75.8906 541.309 151.248 459.769 231.642C446.19 245.035 369.386 319.026 232.859 370.472C179.863 390.439 73.4687 423.732 -84.2066 428.747" stroke="url(#paint52_linear_261_122682)" stroke-opacity="0.5" stroke-miterlimit="10"/>
</g>
<defs>
<linearGradient id="paint0_linear_261_122682" x1="815.36" y1="385.073" x2="814.236" y2="156.181" gradientUnits="userSpaceOnUse">
<stop stop-color="#002C88"/>
<stop offset="1" stop-color="#FF3971"/>
</linearGradient>
<linearGradient id="paint1_linear_261_122682" x1="816.302" y1="377.373" x2="815.21" y2="154.719" gradientUnits="userSpaceOnUse">
<stop stop-color="#002C88"/>
<stop offset="1" stop-color="#FF3971"/>
</linearGradient>
<linearGradient id="paint2_linear_261_122682" x1="817.179" y1="369.633" x2="816.119" y2="153.259" gradientUnits="userSpaceOnUse">
<stop stop-color="#002C88"/>
<stop offset="1" stop-color="#FF3971"/>
</linearGradient>
<linearGradient id="paint3_linear_261_122682" x1="818.222" y1="362.015" x2="817.193" y2="151.767" gradientUnits="userSpaceOnUse">
<stop stop-color="#002C88"/>
<stop offset="1" stop-color="#FF3971"/>
</linearGradient>
<linearGradient id="paint4_linear_261_122682" x1="819.182" y1="354.336" x2="818.184" y2="150.278" gradientUnits="userSpaceOnUse">
<stop stop-color="#002C88"/>
<stop offset="1" stop-color="#FF3971"/>
</linearGradient>
<linearGradient id="paint5_linear_261_122682" x1="820.192" y1="346.658" x2="819.225" y2="148.802" gradientUnits="userSpaceOnUse">
<stop stop-color="#002C88"/>
<stop offset="1" stop-color="#FF3971"/>
</linearGradient>
<linearGradient id="paint6_linear_261_122682" x1="821.218" y1="339.001" x2="820.282" y2="147.311" gradientUnits="userSpaceOnUse">
<stop stop-color="#002C88"/>
<stop offset="1" stop-color="#FF3971"/>
</linearGradient>
<linearGradient id="paint7_linear_261_122682" x1="822.077" y1="331.323" x2="821.172" y2="145.803" gradientUnits="userSpaceOnUse">
<stop stop-color="#002C88"/>
<stop offset="1" stop-color="#FF3971"/>
</linearGradient>
<linearGradient id="paint8_linear_261_122682" x1="822.987" y1="323.665" x2="822.114" y2="144.363" gradientUnits="userSpaceOnUse">
<stop stop-color="#002C88"/>
<stop offset="1" stop-color="#FF3971"/>
</linearGradient>
<linearGradient id="paint9_linear_261_122682" x1="823.93" y1="316.009" x2="823.088" y2="142.83" gradientUnits="userSpaceOnUse">
<stop stop-color="#002C88"/>
<stop offset="1" stop-color="#FF3971"/>
</linearGradient>
<linearGradient id="paint10_linear_261_122682" x1="824.99" y1="308.373" x2="824.178" y2="141.344" gradientUnits="userSpaceOnUse">
<stop stop-color="#002C88"/>
<stop offset="1" stop-color="#FF3971"/>
</linearGradient>
<linearGradient id="paint11_linear_261_122682" x1="825.815" y1="300.717" x2="825.035" y2="139.812" gradientUnits="userSpaceOnUse">
<stop stop-color="#002C88"/>
<stop offset="1" stop-color="#FF3971"/>
</linearGradient>
<linearGradient id="paint12_linear_261_122682" x1="826.827" y1="293.083" x2="826.077" y2="138.314" gradientUnits="userSpaceOnUse">
<stop stop-color="#002C88"/>
<stop offset="1" stop-color="#FF3971"/>
</linearGradient>
<linearGradient id="paint13_linear_261_122682" x1="827.771" y1="289.843" x2="827.008" y2="132.498" gradientUnits="userSpaceOnUse">
<stop stop-color="#002C88"/>
<stop offset="1" stop-color="#FF3971"/>
</linearGradient>
<linearGradient id="paint14_linear_261_122682" x1="828.85" y1="288.536" x2="828.055" y2="124.817" gradientUnits="userSpaceOnUse">
<stop stop-color="#002C88"/>
<stop offset="1" stop-color="#FF3971"/>
</linearGradient>
<linearGradient id="paint15_linear_261_122682" x1="829.68" y1="287.268" x2="828.849" y2="116.388" gradientUnits="userSpaceOnUse">
<stop stop-color="#002C88"/>
<stop offset="1" stop-color="#FF3971"/>
</linearGradient>
<linearGradient id="paint16_linear_261_122682" x1="830.643" y1="286.845" x2="829.772" y2="107.948" gradientUnits="userSpaceOnUse">
<stop stop-color="#002C88"/>
<stop offset="1" stop-color="#FF3971"/>
</linearGradient>
<linearGradient id="paint17_linear_261_122682" x1="831.655" y1="288.004" x2="830.726" y2="97.625" gradientUnits="userSpaceOnUse">
<stop stop-color="#002C88"/>
<stop offset="1" stop-color="#FF3971"/>
</linearGradient>
<linearGradient id="paint18_linear_261_122682" x1="832.519" y1="289.165" x2="831.533" y2="87.3244" gradientUnits="userSpaceOnUse">
<stop stop-color="#002C88"/>
<stop offset="1" stop-color="#FF3971"/>
</linearGradient>
<linearGradient id="paint19_linear_261_122682" x1="833.533" y1="290.326" x2="832.488" y2="76.9099" gradientUnits="userSpaceOnUse">
<stop stop-color="#002C88"/>
<stop offset="1" stop-color="#FF3971"/>
</linearGradient>
<linearGradient id="paint20_linear_261_122682" x1="834.546" y1="291.487" x2="833.444" y2="66.7001" gradientUnits="userSpaceOnUse">
<stop stop-color="#002C88"/>
<stop offset="1" stop-color="#FF3971"/>
</linearGradient>
<linearGradient id="paint21_linear_261_122682" x1="835.427" y1="292.65" x2="834.267" y2="56.4673" gradientUnits="userSpaceOnUse">
<stop stop-color="#002C88"/>
<stop offset="1" stop-color="#FF3971"/>
</linearGradient>
<linearGradient id="paint22_linear_261_122682" x1="836.389" y1="293.812" x2="835.172" y2="46.0886" gradientUnits="userSpaceOnUse">
<stop stop-color="#002C88"/>
<stop offset="1" stop-color="#FF3971"/>
</linearGradient>
<linearGradient id="paint23_linear_261_122682" x1="837.253" y1="294.976" x2="835.978" y2="35.8514" gradientUnits="userSpaceOnUse">
<stop stop-color="#002C88"/>
<stop offset="1" stop-color="#FF3971"/>
</linearGradient>
<linearGradient id="paint24_linear_261_122682" x1="838.249" y1="296.14" x2="836.916" y2="25.436" gradientUnits="userSpaceOnUse">
<stop stop-color="#002C88"/>
<stop offset="1" stop-color="#FF3971"/>
</linearGradient>
<linearGradient id="paint25_linear_261_122682" x1="839.213" y1="297.304" x2="837.822" y2="15.1088" gradientUnits="userSpaceOnUse">
<stop stop-color="#002C88"/>
<stop offset="1" stop-color="#FF3971"/>
</linearGradient>
<linearGradient id="paint26_linear_261_122682" x1="840.227" y1="298.469" x2="838.778" y2="4.78205" gradientUnits="userSpaceOnUse">
<stop stop-color="#002C88"/>
<stop offset="1" stop-color="#FF3971"/>
</linearGradient>
<linearGradient id="paint27_linear_261_122682" x1="840.111" y1="295.905" x2="838.718" y2="13.2816" gradientUnits="userSpaceOnUse">
<stop stop-color="#002C88"/>
<stop offset="1" stop-color="#FF3971"/>
</linearGradient>
<linearGradient id="paint28_linear_261_122682" x1="840.097" y1="293.342" x2="838.76" y2="21.7835" gradientUnits="userSpaceOnUse">
<stop stop-color="#002C88"/>
<stop offset="1" stop-color="#FF3971"/>
</linearGradient>
<linearGradient id="paint29_linear_261_122682" x1="840.165" y1="290.78" x2="838.883" y2="30.2339" gradientUnits="userSpaceOnUse">
<stop stop-color="#002C88"/>
<stop offset="1" stop-color="#FF3971"/>
</linearGradient>
<linearGradient id="paint30_linear_261_122682" x1="839.952" y1="288.239" x2="838.725" y2="38.7531" gradientUnits="userSpaceOnUse">
<stop stop-color="#002C88"/>
<stop offset="1" stop-color="#FF3971"/>
</linearGradient>
<linearGradient id="paint31_linear_261_122682" x1="839.852" y1="285.676" x2="838.682" y2="47.2656" gradientUnits="userSpaceOnUse">
<stop stop-color="#002C88"/>
<stop offset="1" stop-color="#FF3971"/>
</linearGradient>
<linearGradient id="paint32_linear_261_122682" x1="839.804" y1="283.094" x2="838.689" y2="55.6664" gradientUnits="userSpaceOnUse">
<stop stop-color="#002C88"/>
<stop offset="1" stop-color="#FF3971"/>
</linearGradient>
<linearGradient id="paint33_linear_261_122682" x1="839.791" y1="280.595" x2="838.731" y2="64.2214" gradientUnits="userSpaceOnUse">
<stop stop-color="#002C88"/>
<stop offset="1" stop-color="#FF3971"/>
</linearGradient>
<linearGradient id="paint34_linear_261_122682" x1="839.575" y1="278.076" x2="838.57" y2="72.7092" gradientUnits="userSpaceOnUse">
<stop stop-color="#002C88"/>
<stop offset="1" stop-color="#FF3971"/>
</linearGradient>
<linearGradient id="paint35_linear_261_122682" x1="839.528" y1="276.538" x2="838.568" y2="80.1119" gradientUnits="userSpaceOnUse">
<stop stop-color="#002C88"/>
<stop offset="1" stop-color="#FF3971"/>
</linearGradient>
<linearGradient id="paint36_linear_261_122682" x1="839.601" y1="283.25" x2="838.604" y2="79.4008" gradientUnits="userSpaceOnUse">
<stop stop-color="#002C88"/>
<stop offset="1" stop-color="#FF3971"/>
</linearGradient>
<linearGradient id="paint37_linear_261_122682" x1="839.574" y1="291.095" x2="838.528" y2="77.5919" gradientUnits="userSpaceOnUse">
<stop stop-color="#002C88"/>
<stop offset="1" stop-color="#FF3971"/>
</linearGradient>
<linearGradient id="paint38_linear_261_122682" x1="839.363" y1="298.832" x2="838.269" y2="75.7088" gradientUnits="userSpaceOnUse">
<stop stop-color="#002C88"/>
<stop offset="1" stop-color="#FF3971"/>
</linearGradient>
<linearGradient id="paint39_linear_261_122682" x1="839.386" y1="306.161" x2="838.246" y2="73.8799" gradientUnits="userSpaceOnUse">
<stop stop-color="#002C88"/>
<stop offset="1" stop-color="#FF3971"/>
</linearGradient>
<linearGradient id="paint40_linear_261_122682" x1="839.375" y1="314.016" x2="838.187" y2="72.1216" gradientUnits="userSpaceOnUse">
<stop stop-color="#002C88"/>
<stop offset="1" stop-color="#FF3971"/>
</linearGradient>
<linearGradient id="paint41_linear_261_122682" x1="839.316" y1="321.814" x2="838.079" y2="70.4326" gradientUnits="userSpaceOnUse">
<stop stop-color="#002C88"/>
<stop offset="1" stop-color="#FF3971"/>
</linearGradient>
<linearGradient id="paint42_linear_261_122682" x1="839.272" y1="329.535" x2="837.987" y2="68.648" gradientUnits="userSpaceOnUse">
<stop stop-color="#002C88"/>
<stop offset="1" stop-color="#FF3971"/>
</linearGradient>
<linearGradient id="paint43_linear_261_122682" x1="839.161" y1="337.174" x2="837.828" y2="66.7783" gradientUnits="userSpaceOnUse">
<stop stop-color="#002C88"/>
<stop offset="1" stop-color="#FF3971"/>
</linearGradient>
<linearGradient id="paint44_linear_261_122682" x1="839.152" y1="344.896" x2="837.772" y2="65.1002" gradientUnits="userSpaceOnUse">
<stop stop-color="#002C88"/>
<stop offset="1" stop-color="#FF3971"/>
</linearGradient>
<linearGradient id="paint45_linear_261_122682" x1="839.092" y1="352.638" x2="837.663" y2="63.2656" gradientUnits="userSpaceOnUse">
<stop stop-color="#002C88"/>
<stop offset="1" stop-color="#FF3971"/>
</linearGradient>
<linearGradient id="paint46_linear_261_122682" x1="839.063" y1="360.36" x2="837.587" y2="61.4721" gradientUnits="userSpaceOnUse">
<stop stop-color="#002C88"/>
<stop offset="1" stop-color="#FF3971"/>
</linearGradient>
<linearGradient id="paint47_linear_261_122682" x1="838.971" y1="368.165" x2="837.446" y2="59.7029" gradientUnits="userSpaceOnUse">
<stop stop-color="#002C88"/>
<stop offset="1" stop-color="#FF3971"/>
</linearGradient>
<linearGradient id="paint48_linear_261_122682" x1="838.743" y1="375.681" x2="837.171" y2="57.8328" gradientUnits="userSpaceOnUse">
<stop stop-color="#002C88"/>
<stop offset="1" stop-color="#FF3971"/>
</linearGradient>
<linearGradient id="paint49_linear_261_122682" x1="838.717" y1="385.955" x2="837.073" y2="53.9478" gradientUnits="userSpaceOnUse">
<stop stop-color="#002C88"/>
<stop offset="1" stop-color="#FF3971"/>
</linearGradient>
<linearGradient id="paint50_linear_261_122682" x1="838.892" y1="398.554" x2="837.151" y2="47.2033" gradientUnits="userSpaceOnUse">
<stop stop-color="#002C88"/>
<stop offset="1" stop-color="#FF3971"/>
</linearGradient>
<linearGradient id="paint51_linear_261_122682" x1="838.767" y1="411.257" x2="836.927" y2="40.3141" gradientUnits="userSpaceOnUse">
<stop stop-color="#002C88"/>
<stop offset="1" stop-color="#FF3971"/>
</linearGradient>
<linearGradient id="paint52_linear_261_122682" x1="838.692" y1="424.166" x2="836.752" y2="33.3378" gradientUnits="userSpaceOnUse">
<stop stop-color="#002C88"/>
<stop offset="1" stop-color="#FF3971"/>
</linearGradient>
<clipPath id="clip0_261_122682">
<rect width="1728" height="429" fill="white"/>
</clipPath>
</defs>
</svg>
